<?xml version="1.0" encoding="UTF-8"?>
<svg width="403px" height="208px" viewBox="0 0 403 208" version="1.1" xmlns="http://www.w3.org/2000/svg" xmlns:xlink="http://www.w3.org/1999/xlink">
    <!-- Generator: Sketch 45.2 (43514) - http://www.bohemiancoding.com/sketch -->
    <title>Group 13</title>
    <desc>Created with Sketch.</desc>
    <defs></defs>
    <g id="Page-1" stroke="none" stroke-width="1" fill="none" fill-rule="evenodd">
        <g id="main" transform="translate(-519.000000, -2143.000000)" fill="#000000">
            <g id="Group-13" transform="translate(519.000000, 2143.000000)">
                <path d="M344.072323,173.53076 C349.402327,172.680271 353.500461,170.482982 357.237132,167.027871 C361.448621,163.133649 364.649746,158.438627 367.511384,153.50036 C369.77733,149.589382 372.368304,145.834404 374.279726,141.759338 C376.907713,136.156049 379.054521,130.326271 381.359215,124.574493 C382.416425,121.935204 383.613015,119.313249 384.300086,116.571693 C385.614658,111.328938 386.607672,106.005871 387.741802,100.718049 C387.803684,100.430893 387.968512,100.166271 388.038491,99.8796933 C388.919307,96.2564489 390.61732,92.8169378 390.493555,88.96316 C390.48141,88.58876 390.724892,88.2132044 390.807595,87.8289822 C392.013439,82.2389822 393.07354,76.6530267 391.957918,70.8850711 C391.697086,69.5376933 391.390564,68.4225822 390.058063,67.70556 C388.605267,68.05916 387.366458,68.6230711 386.705412,70.2183156 C386.390794,70.9769378 385.513449,71.4824933 385.011447,72.18796 C384.300664,73.18636 383.675476,74.2494711 383.06359,75.3137378 C382.727573,75.8984489 382.530937,76.5617378 382.207065,77.1551156 C381.194387,79.0074711 379.276026,80.3843156 379.302629,82.7976933 C379.306099,83.0935156 378.8174,83.3777822 378.598787,83.6961378 C377.83364,84.8106711 377.099145,85.9465822 376.329949,87.0582267 C375.187145,88.70836 374.204541,90.5532044 371.857628,91.0177378 C371.987755,89.2046711 372.107472,87.5377822 372.227767,85.8714711 C372.03113,85.8229378 371.834494,85.7749822 371.637857,85.7264489 C371.131808,86.5336044 370.610721,87.3315156 370.123179,88.1490711 C369.183372,89.7258267 368.31528,91.3482267 367.319375,92.8880044 C366.293395,94.47516 365.078876,95.9427156 364.084127,97.5472044 C363.438697,98.5889378 362.373969,100.031071 362.681069,100.850938 C363.163406,102.139382 362.562508,102.809604 362.020023,103.433604 C361.262395,104.306627 360.839626,105.146716 360.760972,106.308049 C360.710078,107.057427 360.363651,107.877293 359.9137,108.493782 C357.681298,111.554271 356.432657,115.016316 355.506731,118.636093 C355.395111,119.072316 355.084541,119.539738 354.72886,119.818804 C353.086946,121.108982 352.643358,123.035293 352.090462,124.848938 C351.466431,126.896004 351.59251,129.326138 350.523155,131.051382 C348.014883,135.09756 347.661516,139.659693 346.584643,144.055427 C346.013819,146.384449 346.21913,148.860227 344.284575,150.857027 C343.060224,152.121204 342.762378,154.003027 343.498608,155.867516 C343.720113,156.429116 343.7525,157.248982 343.505548,157.780538 C341.617838,161.845782 343.135987,166.013871 343.089141,170.124182 C343.076996,171.215604 343.702762,172.314538 344.072323,173.53076 M400.300507,99.99236 C399.889884,100.817427 399.279155,101.603204 399.1097,102.475071 C398.737248,104.388671 398.818794,106.390671 397.665001,108.124582 C397.423254,108.486849 397.535452,109.082538 397.479353,109.570182 C397.064103,113.180716 397.135818,116.937427 396.10232,120.361916 C394.934646,124.22956 395.324449,128.654182 392.354661,131.936538 C392.371433,133.795827 391.989148,135.537827 391.056282,137.181027 C390.348391,138.427871 389.702961,139.729027 389.20443,141.071204 C388.602375,142.693027 388.314361,144.437338 387.652737,146.030271 C386.852311,147.958893 386.128805,150.071827 384.788207,151.591382 C382.491609,154.195427 381.740921,157.476049 380.256316,160.415204 C379.241903,162.42356 378.508565,164.499516 376.937787,166.238049 C374.783462,168.62196 372.98019,171.320182 370.85536,173.732982 C369.05845,175.773116 367.408439,177.996404 365.457112,179.829693 C362.720396,182.400804 359.545874,184.539738 355.532756,184.839604 C354.583697,184.910671 353.668759,185.383871 352.717964,185.484982 C349.858639,185.790049 347.244531,184.776627 344.841519,183.465071 C341.51605,181.650271 338.87823,179.045071 336.570644,175.96436 C333.571939,171.960938 331.995377,167.71716 331.555837,162.68356 C331.035907,156.73476 331.480074,150.963338 332.664519,145.189027 C333.495019,141.142849 334.407065,137.112849 335.320268,133.084582 C336.452084,128.089693 337.977751,123.219604 340.016408,118.512449 C342.243605,113.36676 344.386942,108.184671 346.663876,103.061516 C347.858153,100.373693 349.252536,97.7754267 350.567109,95.1419156 C352.189937,91.8901822 353.918603,88.68756 355.429233,85.38556 C357.669732,80.48716 360.707764,76.1584489 364.283077,72.1613822 C366.319421,69.8849378 368.204239,67.4721378 370.260246,65.21476 C372.783554,62.4448933 375.605865,60.07196 379.399213,59.1792933 C379.964253,59.0464044 380.609105,58.8511156 381.002956,58.4663156 C382.128989,57.3644933 383.484045,57.4263156 384.880742,57.4107156 C386.89106,57.38876 388.900222,57.2784044 391.465749,57.1853822 C394.595738,59.6334267 397.400698,62.9978267 398.395447,67.7269378 C399.140931,71.2716044 400.423694,74.7059156 401.122332,78.2569378 C401.603513,80.7044044 401.461819,83.2708933 401.681011,85.7767156 C401.720916,86.2354711 402.158721,86.6589822 402.412614,87.0992489 L402.124599,88.8574267 C401.771232,88.9140489 401.111343,88.9596933 401.10903,89.0296044 C401.024592,91.3147156 401.003193,93.6027156 400.972541,95.8901378 C400.748723,97.2577378 400.524326,98.62476 400.300507,99.99236" id="Fill-1"></path>
                <path d="M70.6232421,42.6484356 C67.9692288,44.3280356 65.4598011,44.82608 62.9399632,45.34608 C61.9134054,45.5581244 60.9626105,46.1347467 59.9748017,46.5380356 C55.8564254,48.2193689 51.5657031,48.9797244 47.1373353,48.62728 C44.5226492,48.41928 42.3313099,46.4091911 41.8408755,44.1425689 C41.216844,41.25888 42.321478,38.2197689 44.7296958,36.9862133 C48.2298241,35.1933689 51.7467243,33.3826133 55.4053183,31.9595467 C63.5553195,28.7898578 71.7972772,25.8553244 79.9333982,22.85088 C81.4162681,18.9127467 82.6140152,14.8336356 84.4641326,11.0751911 C86.251789,7.44270222 87.2378628,3.36128 89.9231066,-0.000231111111 C92.3371078,1.63661333 93.1398471,3.64265778 92.8599293,6.22705778 C92.563818,8.96572444 92.4851635,11.7361689 91.1596027,14.2541244 C90.9837866,14.5875022 90.9444593,15.0035022 90.7333643,15.3051022 C89.417057,17.1915467 89.4072252,17.1846133 89.7472905,19.6771467 C91.5991429,19.9527467 93.3549904,19.2900356 95.1206698,18.8330133 C102.533284,16.9142133 109.897318,14.7851022 117.360827,13.09048 C122.840043,11.8459467 128.423361,10.9839022 134.000895,10.2599467 C143.382765,9.04083556 152.831145,8.29608 162.185255,6.90768 C168.199438,6.01559111 174.198584,6.11381333 180.149149,6.51248 C187.218807,6.98568 194.235257,8.28452444 201.266744,9.28119111 C206.070456,9.96239111 210.727269,11.1895911 215.14407,13.2528356 C219.523278,15.2987467 223.140232,18.2292356 225.742773,22.3251022 C226.523535,23.5546133 227.482427,24.8534578 226.402661,26.3811022 C225.473843,27.6955467 222.697222,28.4703467 221.045476,27.7972356 C216.901652,26.1089689 212.544999,26.1026133 208.183719,25.8553244 C206.11094,25.7380356 204.076909,24.9684356 202.02148,24.5125689 C200.69245,24.2179022 199.357635,23.9486578 198.022243,23.6823022 C196.991058,23.4766133 195.956404,23.2911467 194.922327,23.0999022 C194.348033,22.9941689 193.776053,22.8439467 193.196554,22.80408 C191.537868,22.6902578 189.877447,22.5879911 188.215869,22.5487022 C186.961444,22.5192356 185.704128,22.5764356 184.450281,22.6307467 C184.063949,22.6475022 183.552694,22.9849244 183.319044,22.8341244 C180.330748,20.9043467 177.055595,22.3638133 173.95221,21.9697689 C169.390823,21.3908356 164.933539,22.4319911 160.476832,22.9421689 C158.552108,23.16288 156.789321,24.2098133 154.731,23.3177244 C154.263121,23.1149244 153.47831,23.7724356 152.81553,23.8671911 C149.789064,24.3011022 146.748718,24.6333244 143.725722,25.0863022 C141.84611,25.36768 139.992522,25.8166133 138.121585,26.1598133 C136.333928,26.4879911 134.539332,27.0247467 132.74647,27.0305244 C128.848442,27.0426578 125.313035,28.6442578 121.576365,29.23648 C118.212725,29.7697689 114.957814,31.3245689 111.243121,30.5977244 C110.936021,30.9259022 110.491854,31.3193689 110.148897,31.7862133 C109.483225,32.6921689 108.729067,33.0648356 107.595516,32.6170578 C107.070381,32.4090578 106.395455,32.2917689 105.866272,32.42928 C102.663411,33.2630133 99.4640213,34.11928 96.3010667,35.0905244 C92.8784363,36.1415022 89.5246287,37.4241689 86.081178,38.3942578 C85.0401616,38.6877689 84.383743,39.0927911 84.3825863,40.0478578 C84.3796946,43.0361244 83.1917793,45.5702578 82.0686384,48.2765689 C81.152544,50.48368 80.666158,52.9941244 79.7465936,55.2757689 C78.8553679,57.4863467 78.56504,59.9303467 76.9156075,61.8786133 C76.2892627,62.6181689 76.4552469,63.9765244 76.0301653,64.9529689 C75.5715397,66.0085689 74.7994526,66.9237689 74.2563891,67.9487467 C74.0424024,68.3526133 74.0782596,68.8887911 73.9423492,69.7179022 C76.0295869,68.9396356 77.5222887,67.7956356 79.0577878,66.6343022 C83.5601834,63.2277244 88.3696789,60.3850578 94.0698217,59.4767911 C96.342129,59.1145244 98.5820491,59.2526133 100.6716,60.3827467 C101.192687,60.6647022 101.72187,60.9790133 102.286332,61.1234578 C107.659133,62.4997244 110.310833,66.9283911 113.184617,71.0023022 C114.093771,72.2913244 114.317011,74.0899467 114.749611,75.6834578 C115.617703,78.8826133 116.415237,82.1008356 117.237062,85.3127022 C117.334223,85.6917244 117.496159,86.0840356 117.470134,86.4595911 C117.279859,89.1999911 116.93748,91.9346133 116.857669,94.6767467 C116.745471,98.5339911 115.991891,102.259502 115.312917,106.04048 C114.85834,108.571724 114.104759,111.000124 113.608542,113.499591 C113.493451,114.07968 113.293345,114.677102 113.340191,115.24968 C113.607385,118.518747 111.882189,121.210036 110.961468,124.151502 C110.151789,126.735902 108.664871,129.041813 107.9778,131.569013 C107.177374,134.513947 106.356128,137.324258 104.424464,139.724924 C104.367787,139.795413 104.337713,139.915591 104.346966,140.007458 C104.752963,143.913236 101.432121,146.323147 100.439107,149.67368 C100.257507,150.286702 99.6323189,150.754124 99.3130739,151.343458 C98.5745307,152.707591 97.9204254,154.117369 97.1870872,155.484391 C96.8736257,156.068524 96.4456523,156.591413 96.0755131,157.145502 C95.7591598,157.618702 95.1276099,158.153724 95.198746,158.563369 C95.4347097,159.925769 94.3653546,160.517991 93.7627218,161.33208 C92.3799051,163.201191 90.673795,164.843236 90.3476099,167.338658 C90.2874623,167.80088 89.5685827,168.148124 89.2366142,168.608036 C88.3904992,169.780924 86.5612022,170.323458 86.9897539,172.364169 C87.0741919,172.765147 86.1401689,173.352747 85.723184,173.890658 C84.5271719,175.436791 83.3901508,177.029724 82.1646432,178.551591 C80.7407642,180.320747 79.1792397,181.983013 77.8068332,183.789147 C76.7126093,185.228969 75.2522947,186.304791 74.3362004,187.976302 C73.6248392,189.274569 72.0633147,190.11408 70.8580491,191.132702 C70.5688779,191.377102 69.9783903,191.452791 69.8927956,191.722036 C69.0345355,194.423147 65.9346202,195.126302 64.7548017,197.533902 C64.6044327,197.84128 64.1492772,198.00768 63.8219354,198.219147 C61.3998374,199.785502 59.0535022,201.491102 56.5273026,202.865058 C54.3215047,204.065102 51.982688,205.148436 49.5727351,205.812302 C46.8712978,206.55648 44.270492,207.572213 41.3354042,207.761724 C37.8699765,207.985902 34.5849917,207.459547 31.3971683,206.578436 C22.3085174,204.06568 14.485858,199.465991 8.93203581,191.601858 C6.24447864,187.795458 4.15839758,183.675902 2.9913026,179.136302 C2.18104489,175.985102 1.22157483,172.857591 0.662317725,169.661324 C0.0770352087,166.317147 -0.108612704,162.903636 0.0585282517,159.420213 C1.62236612,162.696213 3.06301706,166.038658 4.77953733,169.232613 C7.0130957,173.388569 9.49765469,177.408747 11.8087109,181.52368 C12.7687593,183.232747 13.5911623,185.022124 14.4216619,186.800524 C17.6678979,193.751191 26.1192155,198.28328 33.7226831,197.181458 C41.1665283,196.102169 47.7411247,193.020302 53.3024653,188.059502 C57.7684254,184.075724 62.032544,179.833102 66.0797842,175.424658 C68.7852699,172.477413 70.9893328,169.063902 73.3530183,165.812169 C76.8837987,160.956524 79.791126,155.71088 82.9263201,150.603902 C86.7428017,144.38528 90.3389348,138.044169 93.1224968,131.360436 C97.3964472,121.100258 101.790114,110.823902 102.932341,99.5433689 C103.459211,94.3439467 104.584665,89.2075022 105.239349,84.0167467 C105.815378,79.4505689 104.999336,75.0126578 103.443595,70.5655022 C99.6918882,70.6550578 96.4959681,72.0613689 93.6187146,74.0154133 C89.3887182,76.8881244 85.319501,80.0023467 81.2554889,83.1096356 C80.3659983,83.78968 79.9276148,85.4444356 79.0387025,85.6628356 C76.65304,86.24928 76.7947339,88.79728 75.1036607,89.9927022 C73.5357745,91.10088 72.7046964,93.2554133 71.5613135,94.9575467 C69.705991,97.7187467 67.7627606,100.427369 66.0416136,103.270036 C64.6385549,105.587502 62.6074163,107.593547 62.2997382,110.519413 C62.2390122,111.093147 61.5270727,111.592924 61.1303298,112.138347 C60.799518,112.593058 60.2263806,113.063947 60.2263806,113.52848 C60.2258023,114.570791 59.7197527,115.146258 58.9788961,115.718836 C58.6064436,116.005991 58.2264726,116.455502 58.1264194,116.894613 C57.5949227,119.220169 56.1687303,121.164969 55.445224,123.41888 C54.9837067,124.858124 54.0572022,126.150613 53.3134538,127.495102 C53.1746517,127.745858 52.6975192,127.989102 52.7385815,128.133547 C53.5326456,130.92248 50.8098096,132.328791 50.2060201,134.595991 C49.6097491,136.837769 48.5311405,138.957636 47.5901774,141.09888 C47.3357067,141.678969 46.8892264,142.230169 46.4028404,142.644436 C43.1080237,145.45128 40.363789,148.734213 39.7837116,153.089502 C39.3609433,156.262658 37.3442633,158.989769 37.7034139,162.402702 C37.8260225,163.569813 36.5588743,165.048924 35.6213812,166.117813 C34.5676414,167.317858 33.6654272,168.689502 34.203864,170.06808 C34.7741096,171.526391 33.9869856,172.187947 33.2507557,172.779591 C32.4196777,173.446924 31.3821314,173.511636 30.1936377,173.066747 C26.0515494,171.515413 24.3338725,167.988658 22.8255555,164.318613 C22.5415894,163.627591 22.8764496,162.571991 23.1690909,161.773502 C24.4570594,158.263502 25.8352494,154.786436 27.1787388,151.296658 C27.3909904,150.744302 27.679005,150.203502 27.7865766,149.630347 C28.9877938,143.201413 31.6707243,137.24568 33.7348283,131.096391 C36.0221725,124.283236 38.4807061,117.524969 40.9901338,110.789813 C41.9507606,108.212347 43.2844181,105.774702 44.4052457,103.254436 C46.4057321,98.7575911 48.4015918,94.2584356 50.3488707,89.73848 C53.3921084,82.6751467 56.6857684,75.7002133 59.3224315,68.4866578 C61.5721834,62.3298578 65.3863516,56.9842578 67.6713825,50.8835022 C68.429011,48.8607022 69.4145065,46.9239911 70.2299693,44.9208356 C70.4578362,44.3621244 70.4497394,43.70808 70.6232421,42.6484356" id="Fill-3"></path>
                <path d="M174.751942,63.4608 C178.990035,65.7805778 180.404082,69.6736444 180.998618,73.9804 C181.263499,75.8986222 181.061079,77.8838667 181.352564,79.7963111 C181.575804,81.2632889 181.286054,82.2744 179.824583,82.9076444 C180.147877,83.5495556 180.401769,84.0539556 180.47117,84.1914667 C179.695034,86.4257333 179.076208,88.3959556 178.320315,90.3118667 C177.823518,91.5708444 177.130086,92.7529778 176.521091,93.9668889 C176.304791,94.3984889 176.028344,94.8064 175.861203,95.2553333 C174.639165,98.5469333 173.850884,102.085244 172.119906,105.081022 C170.161638,108.470267 169.138551,112.264533 167.011985,115.541689 C166.489742,116.345956 166.034587,117.303333 165.914292,118.2376 C165.555141,121.012667 163.895298,123.268311 163.041665,125.841733 C162.742662,126.744222 161.96537,127.472222 162.399126,128.550933 C162.462166,128.708089 162.418212,129.0536 162.313532,129.1108 C160.051056,130.346089 160.580818,133.043156 159.315405,134.8724 C158.253568,136.4064 157.786267,138.556889 157.672334,140.471067 C157.588474,141.876222 157.130427,142.647556 156.350822,143.056044 C156.101556,144.577333 156.066855,145.839778 155.669534,146.975689 C155.007332,148.869067 155.088878,150.986622 153.71705,152.702622 C153.3018,153.222044 153.892866,154.437689 153.693338,155.253511 C152.767412,159.033333 153.109212,162.968 151.59222,166.750133 C150.407775,169.702 150.119182,173.210267 150.277648,176.429644 C150.375388,178.403911 149.304876,179.921156 149.396832,181.791422 C149.506139,184.010667 149.109975,186.250711 149.086841,188.483244 C149.076431,189.453911 149.354035,190.346 148.697616,191.2924 C148.450086,191.649467 148.920857,192.516133 149.088576,193.144178 C149.510766,194.721511 149.001825,195.328756 147.465747,195.487067 C143.058778,195.941778 139.939199,193.583867 137.133082,190.7256 C136.470301,190.050178 136.29969,188.747289 136.186335,187.702089 C135.559412,181.938756 136.594645,176.296756 137.54197,170.6484 C139.076891,161.494667 140.52506,152.326489 142.120128,143.184311 C142.554463,140.694667 143.259463,138.270889 144.133338,135.843644 C144.973091,133.511156 145.783927,131.118 146.599969,128.740444 C148.961341,121.860844 151.432019,115.052311 154.708329,108.528044 C156.818122,104.3276 158.423601,99.8746667 160.294538,95.5523111 C160.784394,94.4210222 161.422884,93.3538667 161.807482,92.1318667 C160.111204,92.9396 158.767714,93.9443556 157.992736,95.7487556 C157.23742,97.5057778 156.715177,99.5667111 154.530778,100.298756 C154.365372,100.354222 154.176254,100.543733 154.125938,100.708978 C153.08203,104.149067 150.374231,106.507556 148.503872,109.408578 C148.198507,109.882356 148.081103,110.480933 147.901239,111.029244 C147.624791,111.871067 147.462277,112.764311 147.086933,113.558178 C145.929091,116.007956 144.743489,118.447911 143.467088,120.838178 C142.793897,122.100044 142.029907,123.352667 141.098776,124.430222 C138.499705,127.435244 137.211158,131.391289 133.97244,133.9572 C133.063864,134.676533 132.6677,136.036044 132.022848,137.093378 C131.460699,138.015511 131.013062,139.054356 130.277989,139.812978 C128.767359,141.372978 127.128915,142.790267 126.628649,145.053422 C126.554042,145.390844 126.206459,145.790667 125.8849,145.931067 C123.599291,146.927156 123.742142,149.059733 123.671005,150.938667 C123.628786,152.043956 123.687777,152.875956 122.442028,153.226089 C122.208956,153.291378 121.975306,153.560044 121.857324,153.792889 C120.842911,155.804711 120.032075,156.477822 118.21955,158.364844 C116.143301,160.526889 114.357379,162.972044 112.509575,165.3444 C112.25337,165.673156 112.39622,166.293689 112.294432,166.766311 C112.195535,167.225067 112.140593,167.954222 111.858362,168.073244 C109.199143,169.195289 108.548508,172.100933 106.590241,173.859111 C104.365936,175.856489 101.672595,175.8484 99.6437701,173.623956 C97.9266715,171.7404 97.5698342,169.834889 98.5871385,167.421511 C99.4945578,165.268133 99.8178512,162.873822 100.655291,160.682889 C101.387472,158.765822 102.49789,156.995511 103.400104,155.139689 C104.130551,153.636889 104.906108,152.143333 105.475775,150.578133 C107.351918,145.4284 109.013495,140.1972 111.00068,135.091956 C113.420465,128.874489 116.035151,122.730978 118.661404,116.596711 C120.830188,111.531333 123.224525,106.562444 125.342993,101.477422 C126.245208,99.3119111 126.655831,96.9459111 127.365457,94.6948889 C128.874352,89.908 130.631356,85.2308889 133.176641,80.8617333 C133.842313,79.7194667 133.942945,78.2501778 134.318289,76.9351556 C134.615557,75.8934222 134.844581,74.8187556 135.266192,73.8278667 C136.194432,71.6450222 137.43382,71.4612889 138.945028,73.3315556 C139.544191,74.0728444 140.081471,75.0284889 140.216803,75.9500444 C140.713021,79.3179111 140.870909,82.7400889 141.472385,86.0854222 C141.804932,87.9354667 141.468336,89.5486222 140.921224,91.2201333 C140.890572,91.3131556 140.8391,91.4327556 140.871487,91.5084444 C142.198204,94.6064889 139.958284,97.0926667 139.503129,99.8798667 C139.02137,102.831733 137.936399,105.462356 136.560523,108.050222 C136.149321,108.822711 135.721348,109.724044 135.732915,110.560667 C135.789014,114.621867 133.578011,117.673111 131.664854,120.970489 C130.945975,122.2104 130.809486,124.029244 130.393079,125.578267 C129.88356,127.475111 128.816518,128.880267 127.806154,130.414844 C127.3643,131.085644 127.100576,131.873156 126.755884,132.608089 C126.971027,132.744444 127.186749,132.8808 127.401892,133.017156 C129.391969,130.297556 131.406335,127.594711 133.362289,124.850844 C134.332748,123.489022 135.22513,122.068844 136.101897,120.644044 C137.753643,117.959689 139.296082,115.205422 141.015494,112.566133 C143.601263,108.596222 146.230986,104.651733 148.969437,100.7864 C152.274664,96.1214222 155.499502,91.3732444 159.148264,86.9838667 C163.72006,81.484 167.054783,75.2243556 170.865481,69.2559111 C171.386567,68.4395111 171.763647,67.4786667 171.980525,66.5328444 C172.32406,65.0387111 173.153982,64.0755556 174.751942,63.4608" id="Fill-6"></path>
                <path d="M333.180401,86.1961244 C333.501381,82.9744356 333.853013,79.7550578 334.125991,76.5293244 C334.225465,75.3575911 334.193657,74.1662133 334.117315,72.9904356 C334.023624,71.5535022 333.968681,70.0830578 333.591024,68.7108356 C333.43892,68.1573244 332.498535,67.5113689 331.876817,67.4674578 C330.939324,67.4010133 329.904669,67.6829689 329.023854,68.0723911 C327.523055,68.7362578 326.029775,69.4827467 324.686286,70.4141244 C323.678235,71.1138133 322.706041,71.4367911 321.503668,71.6713689 C320.601453,71.8475911 319.918431,73.1227467 319.127837,73.8987022 C318.636824,74.3805689 317.980984,74.7590133 317.650172,75.3287022 C316.088648,78.0188356 314.589006,80.7309244 311.959283,82.59368 C311.60071,82.8479022 311.422581,83.3927467 311.225366,83.8318578 C309.861635,86.8582578 308.919515,90.0967022 306.683643,92.6851467 C306.490477,92.9081689 306.592844,93.3848356 306.553516,93.7430578 C306.240633,96.5909244 306.17181,99.4896356 304.179999,101.877591 C303.639249,102.525858 303.197974,103.408124 303.083462,104.234924 C302.56758,107.971413 300.834288,111.290747 299.600684,114.777636 C299.285487,115.669724 298.342789,116.374036 298.140948,117.266702 C297.243939,121.233147 295.429678,124.888747 294.367842,128.799147 C293.96705,130.277102 292.929504,131.574791 292.462204,133.043502 C291.410777,136.348969 291.319977,139.768258 291.735227,143.195636 C292.134283,146.488969 293.889553,147.721369 297.029952,146.818302 C300.582709,145.796791 304.00187,144.40088 306.294419,141.328258 C309.865105,136.541947 314.179539,132.299324 317.00532,126.969902 C320.095404,121.14128 323.496057,115.434569 326.048282,109.374836 C329.18232,101.936524 332.115094,94.3433689 333.180401,86.1961244 M286.609957,149.509013 C285.910741,152.286969 285.391968,154.350791 284.873194,156.414036 C284.848904,156.509369 284.860471,156.635902 284.802058,156.696569 C282.483484,159.105902 282.785957,162.462791 281.704456,165.319324 C281.089678,166.944613 280.375426,168.707991 280.446562,170.377769 C280.577267,173.438836 278.446654,175.630924 277.916892,178.412924 C277.612106,180.015102 276.679818,181.495369 276.063305,183.044391 C275.846426,183.588658 275.524868,184.202836 275.601787,184.734391 C276.050003,187.837636 273.749357,189.961547 273.165231,192.762613 C268.274189,192.073902 265.418334,189.197724 263.99619,185.101858 C263.439825,183.499102 264.027421,181.38848 264.436887,179.586969 C265.111234,176.62008 266.027329,173.704613 266.908723,170.787991 C268.22156,166.444258 269.599171,162.120747 270.936877,157.785102 C272.356708,153.184836 273.683426,148.553947 275.198104,143.985458 C276.372718,140.44368 277.882191,137.012258 279.025574,133.461813 C279.521792,131.923191 279.293347,130.162124 279.70744,128.584213 C280.706237,124.78128 281.889526,121.02688 282.998208,117.252836 C286.285507,114.681147 286.474625,110.589902 287.970796,107.139413 C288.910024,104.975058 289.850988,102.81128 290.799469,100.650969 C290.957357,100.291591 291.247684,99.9709244 291.328652,99.5999911 C292.629344,93.6535022 296.249768,88.6482133 298.094102,82.9455467 C298.870237,80.5460356 300.159941,78.3603022 300.490753,75.7221689 C300.775297,73.4578578 302.00948,71.2611467 303.064955,69.1545689 C305.693521,63.9089244 306.994213,58.2594133 308.281603,52.6093244 C308.61068,51.1643022 309.009158,49.9833244 310.436507,49.4234578 C312.898511,51.0325689 313.690262,53.2714578 313.506349,56.0488356 C313.281952,59.4427022 313.731324,62.8827911 312.743515,66.2298578 C312.666596,66.4904356 313.088785,66.8983467 313.442731,67.52928 C314.216553,66.7619911 314.937168,66.1559022 315.527655,65.4429244 C317.93009,62.5436356 321.004558,60.80048 324.539387,59.5403467 C330.221023,57.5152356 335.258385,60.8813689 337.680483,65.3354578 C341.907588,73.1106133 343.942775,81.48608 343.308333,90.3359022 C343.049236,93.9551022 343.477209,97.75688 341.587186,101.146124 C341.496965,101.307902 341.477301,101.513591 341.445492,101.701947 C340.032602,110.027724 338.986958,111.992169 335.533676,119.632124 C334.283878,122.397947 332.878506,125.170702 332.180447,128.248524 C331.791222,129.963947 331.118032,131.841724 329.360449,133.172924 C328.150557,134.08928 327.442087,135.868258 326.886879,137.398213 C326.112478,139.531369 323.512251,140.61008 323.664355,143.209502 C321.047355,144.460391 320.904505,147.587324 318.995396,149.360524 C317.772781,150.495858 316.466883,151.543369 315.17718,152.604169 C313.748674,153.778791 312.409233,155.116924 310.830358,156.043102 C307.189693,158.179147 303.571004,160.12568 298.954097,158.54488 C294.123203,156.890124 290.080011,154.365236 286.609957,149.509013" id="Fill-8"></path>
                <path d="M205.786663,112.994036 C206.513639,110.527502 208.301874,109.037991 210.125966,107.746658 C212.90201,105.781636 215.35476,103.555458 217.219914,100.716258 C217.974651,99.5682133 218.631648,98.35488 219.305417,97.1554133 C219.738017,96.3852356 219.991909,95.47928 220.54654,94.8183022 C223.087776,91.79248 224.27974,88.0918133 225.618024,84.51248 C226.771817,81.4265689 227.417826,78.1511467 228.368621,74.6659911 C225.303984,74.5463911 223.075631,74.5567911 221.221465,77.1157689 C220.250428,78.4556356 219.361516,79.86368 218.555307,81.26768 C217.279483,83.4898133 214.63241,84.0127022 213.250172,86.0060356 C212.530714,87.0431467 211.812413,88.0808356 211.095846,89.1208356 C210.876076,89.4403467 210.730334,89.8505689 210.439428,90.0759022 C206.218106,93.3391911 204.247694,98.2393244 201.412659,102.501013 C200.4075,104.013058 198.825734,105.243724 198.797973,107.349724 C198.791612,107.810213 198.096444,108.236036 197.786453,108.721369 C196.047955,111.44848 194.271287,114.114347 193.68774,117.442347 C193.433848,118.893147 192.349456,120.201236 191.625371,121.564791 C191.2801,122.214791 190.558907,122.860747 190.590716,123.478969 C190.685564,125.344613 190.144236,126.977991 189.315471,128.573813 C188.503479,130.136124 189.017625,132.305102 187.024079,133.372836 C186.710039,133.540969 186.809514,134.468302 186.704834,135.042613 C186.567188,135.796036 186.614034,136.672524 186.23175,137.274569 C185.439999,138.520836 185.071595,139.73128 185.455614,141.193058 C185.564921,141.611369 185.3278,142.131947 185.209819,142.595324 C184.329581,146.062569 183.322109,149.502658 182.596868,153.00168 C182.163111,155.09208 182.131302,157.27088 181.986138,159.414436 C181.882036,160.943813 181.869891,162.480702 181.852541,164.014702 C181.830564,166.019013 181.990186,166.233369 183.837412,166.523413 C184.514073,166.629724 185.275171,166.772436 185.893998,166.574836 C189.125775,165.542924 192.564599,165.163902 195.10063,162.318347 C197.10343,160.070791 199.824531,158.479591 202.000834,156.364924 C203.825504,154.592302 205.615474,152.657902 206.911539,150.491236 C210.552783,144.403191 214.07431,138.232524 217.353511,131.943413 C219.075815,128.639102 220.192016,125.019324 221.578302,121.539947 C221.650595,121.357369 221.665054,121.15168 221.738503,120.96968 C222.976734,117.900524 224.220749,114.833102 225.725596,111.117413 C225.659665,112.383324 225.620338,113.074347 225.58795,113.765369 C225.475752,116.115769 225.317864,118.465013 225.26697,120.816569 C225.197569,124.049236 225.25656,127.284791 225.153037,130.515724 C225.128747,131.269724 224.880638,132.231724 224.371118,132.713591 C222.864536,134.140124 222.987145,136.268658 221.932826,137.821724 C220.090227,140.536124 219.322767,143.734124 217.760086,146.575058 C216.402716,149.042169 215.362857,151.681458 214.100335,154.204036 C213.629564,155.14408 212.931505,155.972036 212.326559,156.843324 C212.106789,157.159947 211.76788,157.419947 211.631391,157.764302 C210.604255,160.362569 209.661557,161.516969 207.760546,162.40848 C207.7484,163.568658 207.736834,164.728258 207.723532,165.980302 C206.901129,166.40728 206.123837,166.809991 205.347123,167.214436 C205.009371,167.39008 204.463994,167.492924 204.367989,167.757547 C203.287645,170.730213 200.449141,172.616658 199.386726,175.478969 C198.528466,177.792391 196.630924,178.288124 194.912091,178.598969 C193.18516,178.910969 191.25581,178.315858 189.451382,177.942036 C187.140904,177.463058 184.870332,176.79168 182.575469,176.231813 C179.697637,175.530391 177.730694,173.560747 176.078949,171.324169 C173.431875,167.740213 170.976234,163.938436 170.427965,159.429458 C169.971653,155.675058 169.779643,151.86808 170.595684,148.058213 C171.336541,144.59848 171.634387,141.04688 172.250322,137.55768 C172.504792,136.11728 173.044386,134.721947 173.520362,133.328347 C173.859849,132.334569 174.45612,131.411858 174.68283,130.400169 C175.285463,127.709458 176.166278,125.145858 177.228693,122.590347 C178.91861,118.526258 180.044642,114.22528 181.781983,110.184302 C184.464913,103.946036 187.234017,97.74648 191.225158,92.1483911 C193.562818,88.87008 195.074605,84.99088 197.499595,81.7923022 C200.261758,78.1505689 202.82555,74.2846578 206.651285,71.48648 C208.256185,70.3124356 209.371808,68.4207911 210.573603,66.7573689 C212.446276,64.1625689 214.675208,61.9138578 217.343101,60.21288 C219.650109,58.74128 222.338244,58.7210578 224.981269,59.2583911 C225.841264,59.43288 226.636485,59.9315022 227.49648,60.09328 C231.896509,60.92008 233.902779,64.32088 235.748848,67.8043022 C236.957005,70.0830578 237.116628,72.66168 237.204536,75.2062133 C237.21726,75.5811911 237.23114,76.14568 237.01137,76.3086133 C235.448688,77.4659022 235.616408,79.4257244 234.951314,80.9551022 C234.390322,82.2458578 234.853574,83.9734133 234.513509,85.5322578 C234.2654,86.6681689 234.601995,87.9103911 233.170019,88.4708356 C233.004613,88.5349689 232.762866,88.7672356 232.781373,88.88568 C233.228432,91.7035022 230.583672,93.2866133 230.029042,95.76008 C229.741027,97.0462133 228.490651,98.1330133 227.619089,99.2666133 C227.149475,99.8773244 226.427704,100.319902 226.049468,100.971636 C223.266484,105.763147 218.598104,108.337147 214.211955,111.291324 C212.640021,112.350391 211.124763,113.347058 209.270019,113.81968 C208.039307,114.132836 206.942191,114.157102 205.786663,112.994036" id="Fill-10"></path>
                <path d="M257.0134,76.5014178 C255.166752,76.6025289 253.656122,76.3153733 252.531824,76.8457733 C251.276821,77.4374178 250.428971,76.8792844 249.483381,76.5742178 C244.788976,75.06044 240.619706,69.5357289 240.484374,64.7719511 C240.427696,62.75724 241.679229,61.2735067 243.780925,61.4526178 C248.005138,61.8131511 251.635394,60.1583956 255.446092,58.7642178 C261.16185,56.6726622 267.035495,55.5038178 273.278123,55.6684844 C278.40802,55.8036844 283.487602,56.4981733 288.609402,56.5137733 C289.789799,56.51724 290.530656,57.0331956 291.284236,58.0015511 C293.123943,60.3640844 294.749085,62.7462622 294.704553,65.8922622 C294.698191,66.3666178 294.854922,67.1327511 294.633417,67.2679511 C292.928463,68.3062178 294.293351,69.4623511 294.529893,70.60404 C292.446704,72.4789289 290.252473,72.7626178 287.680584,71.8058178 C286.080311,71.2101289 284.256797,70.5641733 282.646113,70.7791067 C279.348983,71.2205289 276.041443,70.1897733 272.767447,71.1714178 C271.03589,71.6902622 269.185772,71.8144844 267.781557,72.0502178 C267.220565,75.8959067 266.720877,79.2660844 266.246058,82.6391511 C266.17897,83.1181289 266.234491,83.61444 266.229286,84.1026622 C266.205574,86.3346178 266.401054,88.6520844 263.731425,89.8457733 C264.129325,90.5911067 264.432376,91.1590622 264.552671,91.3843956 C263.260076,94.7909733 262.451553,98.1975511 260.719996,101.044262 C259.538443,102.987329 260.678355,105.729462 258.273029,107.031196 C258.141167,107.102262 258.104153,107.381329 258.058464,107.572573 C257.46335,110.076084 256.871706,112.580751 256.286423,115.086573 C256.199094,115.459818 256.285267,116.023729 256.06087,116.19244 C253.372156,118.20484 254.364591,121.639729 252.98004,124.051373 C251.551534,126.538707 251.866731,129.484796 250.131703,131.935151 C248.907352,133.66444 248.481692,136.154084 248.290261,138.355996 C248.14394,140.041951 247.501402,141.349462 246.900504,142.82684 C244.750806,148.117551 242.685545,153.451596 240.870128,158.864218 C239.959817,161.578618 239.587943,164.450173 238.247345,167.067507 C237.670738,168.194173 237.434196,169.675596 237.558539,170.945551 C237.933884,174.778529 235.936289,177.607329 233.936959,180.590973 C228.822677,179.895907 226.161724,176.300396 224.047304,172.194129 C223.68237,171.484618 224.139839,170.290351 224.359031,169.353196 C225.096996,166.197951 225.806622,163.031151 226.706522,159.920396 C227.382605,157.581551 228.325303,155.318973 229.167948,153.02924 C229.439769,152.289107 229.977627,151.587684 230.040088,150.838884 C230.432783,146.136351 232.760032,142.030084 234.042218,137.605462 C234.606101,135.659507 235.526823,133.819284 236.243967,131.915507 C240.091679,121.700973 243.975827,111.499151 247.747198,101.256307 C249.89227,95.4299956 251.796751,89.5158622 253.908858,83.67684 C254.737044,81.3876844 255.837051,79.1961733 257.0134,76.5014178" id="Fill-12"></path>
            </g>
        </g>
    </g>
</svg>