<?xml version="1.0" encoding="UTF-8"?>
<svg width="50px" height="86px" viewBox="0 0 50 86" version="1.1" xmlns="http://www.w3.org/2000/svg" xmlns:xlink="http://www.w3.org/1999/xlink">
    <!-- Generator: Sketch 45.2 (43514) - http://www.bohemiancoding.com/sketch -->
    <title>Fill 1</title>
    <desc>Created with Sketch.</desc>
    <defs></defs>
    <g id="Symbols" stroke="none" stroke-width="1" fill="none" fill-rule="evenodd">
        <g id="main-/-header-/-1" transform="translate(-293.000000, -33.000000)" fill="#E6E6E4">
            <path d="M318.021501,41.5197425 C319.070264,41.5212508 319.925262,40.6248963 319.903909,39.5461275 C319.88335,38.505064 319.075107,37.6913437 318.041505,37.6709432 C316.970436,37.6497488 316.101547,38.5028414 316.095911,39.5810545 C316.090195,40.6606965 316.941939,41.518155 318.021501,41.5197425 M293.003829,89.5314626 C293.003432,82.4099216 293.002003,75.2883807 293.003908,68.1668397 C293.005099,63.7539689 295.490792,61.2442241 299.883024,60.9501226 C301.907204,60.8145423 303.963294,60.5054381 305.906507,59.9379533 C311.058481,58.4333924 313.532029,54.8853623 313.059244,49.5362091 C312.807531,46.6881484 312.152015,43.8694581 311.57945,41.0576739 C310.869161,37.5691785 312.78729,34.2530957 316.192278,33.2630733 C319.555829,32.2850372 323.05385,34.1122763 324.2297,37.4457433 C324.728839,38.8606847 324.569048,40.2477638 324.296141,41.6927901 C323.777792,44.436546 323.132277,47.1982417 323.031624,49.9704155 C322.816188,55.9016594 325.603047,59.2182185 331.456102,60.3862893 C333.083225,60.7109519 334.754166,60.8784429 336.41312,60.9694119 C340.337171,61.1843719 342.990117,63.8620046 342.992816,67.7830394 C343.002817,82.3411789 343.001389,96.8993184 342.994562,111.457458 C342.992657,115.549159 340.286289,118.306886 336.160613,118.348322 C331.420778,118.39595 326.680069,118.363404 321.939758,118.36396 C314.696528,118.364753 307.453298,118.3511 300.210068,118.370072 C297.110453,118.378169 294.736845,117.202319 293.525671,114.252493 C293.163541,113.370348 293.031215,112.338492 293.025897,111.37403 C292.986048,104.093333 293.004147,96.8123184 293.003829,89.5314626" id="Fill-1"></path>
        </g>
    </g>
</svg>