<svg width="625" height="141" viewBox="0 0 625 141" version="1.1" xmlns="http://www.w3.org/2000/svg" xmlns:xlink="http://www.w3.org/1999/xlink">
<title>Group 3</title>
<desc>Created using Figma</desc>
<g id="Canvas" transform="translate(7364 -1164)">
<g id="Group 3">
<g id="Group 22">
<g id="Fill 1">
<use xlink:href="#path0_fill" transform="matrix(0.999391 0.0348995 -0.0348995 0.999391 -7358.32 1161.45)" fill="#FFFFFF"/>
</g>
<g id="Fill 4">
<use xlink:href="#path1_fill" transform="matrix(0.999391 0.0348995 -0.0348995 0.999391 -7036.32 1183.64)" fill="#FFFFFF"/>
</g>
<g id="Fill 6">
<use xlink:href="#path2_fill" transform="matrix(0.999391 0.0348995 -0.0348995 0.999391 -6940.42 1190.24)" fill="#FFFFFF"/>
</g>
<g id="Fill 8">
<use xlink:href="#path3_fill" transform="matrix(0.999391 0.0348995 -0.0348995 0.999391 -7146.35 1183.4)" fill="#FFFFFF"/>
</g>
<g id="Fill 10">
<use xlink:href="#path4_fill" transform="matrix(0.999391 0.0348995 -0.0348995 0.999391 -7248.27 1181.86)" fill="#FFFFFF"/>
</g>
<g id="Fill 12">
<use xlink:href="#path5_fill" transform="matrix(0.999391 0.0348995 -0.0348995 0.999391 -6865.17 1191.05)" fill="#FFFFFF"/>
</g>
<g id="Fill 14">
<use xlink:href="#path6_fill" transform="matrix(0.999391 0.0348995 -0.0348995 0.999391 -7089.72 1184.08)" fill="#FFFFFF"/>
</g>
<g id="Fill 16">
<use xlink:href="#path7_fill" transform="matrix(0.999391 0.0348995 -0.0348995 0.999391 -6970.44 1187.54)" fill="#FFFFFF"/>
</g>
<g id="Fill 18">
<use xlink:href="#path8_fill" transform="matrix(0.999391 0.0348995 -0.0348995 0.999391 -7201.87 1180.05)" fill="#FFFFFF"/>
</g>
<g id="Fill 20">
<use xlink:href="#path9_fill" transform="matrix(0.999391 0.0348995 -0.0348995 0.999391 -6811.88 1196.06)" fill="#FFFFFF"/>
</g>
<g id="Fill 22">
<use xlink:href="#path10_fill" transform="matrix(0.999391 0.0348995 -0.0348995 0.999391 -6769.88 1194.61)" fill="#FFFFFF"/>
</g>
<g id="Fill 24">
<use xlink:href="#path11_fill" transform="matrix(0.999391 0.0348995 -0.0348995 0.999391 -6793.33 1242.84)" fill="#FFFFFF"/>
</g>
</g>
</g>
</g>
<defs>
<path id="path0_fill" fill-rule="evenodd" d="M 94.6967 21.7931C 93.9524 22.368 92.7969 22.8088 92.5401 23.557C 92.0705 24.9249 91.2904 25.3321 90.0184 25.3847C 89.7967 25.3939 89.3764 25.8047 89.4087 25.9493C 89.8139 27.7565 88.5069 29.0345 87.8561 30.4265C 87.4383 31.3195 87.0797 32.2574 86.6938 33.1656C 86.077 34.6166 85.6268 36.1377 85.0465 37.6057C 84.982 37.7682 84.5278 37.7773 84.2529 37.8581C 84.1591 39.102 84.0674 40.3214 83.9752 41.5438C 83.4313 41.4594 83.1612 41.4175 83.0183 41.3953C 82.9413 41.854 82.8578 42.1931 82.8323 42.5367C 82.7881 43.1281 82.5757 43.8179 82.8 44.2948C 83.2504 45.2534 82.653 45.2973 82.1545 45.4049C 82.1279 45.7589 82.1052 46.0606 82.0892 46.273C 81.5785 46.3425 81.1344 46.4032 80.5696 46.4803C 81.4065 47.4777 80.6998 49.5357 79.482 50.2498C 80.0541 51.0268 79.6276 52.3199 78.7248 52.8086C 78.332 53.0214 78.0778 53.4748 77.7203 53.7703C 77.0195 54.3493 77.4506 55.5907 76.3713 55.9787C 76.1518 56.0576 75.9118 56.6039 75.9771 56.8591C 76.2841 58.0559 75.4917 58.0797 74.4662 58.1252C 75.2803 59.135 75.0597 59.8717 74.0471 60.3796C 74.0021 60.402 73.9746 60.5284 73.9914 60.5927C 74.3365 61.9142 73.4309 62.3019 72.893 62.4705C 71.6639 64.5794 70.6192 66.3719 69.5748 68.1644C 69.4516 68.6258 70.298 69.4016 68.9439 69.65C 68.8878 69.6603 68.8584 69.8212 68.8181 69.9125C 68.6367 70.3235 68.4558 70.7346 68.2746 71.1456C 68.251 71.152 68.2274 71.1584 68.2038 71.1649C 67.8383 71.8851 67.4727 72.6054 67.1072 73.3256C 66.9261 73.546 67.1935 74.036 67.0556 74.2157C 66.3116 75.1845 65.5927 76.2588 64.6138 76.9328C 63.9264 77.4059 63.9135 77.8479 63.7376 78.4988C 63.4471 79.5747 62.8585 80.5728 62.36 81.5864C 62.3137 81.6807 61.9667 81.5912 61.8395 81.6901C 61.5006 81.9531 61.0078 82.2314 60.9363 82.5777C 60.8081 83.1975 60.9367 83.8722 60.9718 84.5231C 61.0085 85.2106 59.6911 86.755 58.8604 86.7617C 59.7767 88.475 58.3071 89.3415 57.6492 90.4247C 57.2582 90.46 56.6875 90.3979 56.6325 90.5378C 56.4821 90.9202 56.5181 91.3896 56.5433 91.8208C 56.5552 92.0277 56.8427 92.2955 56.7788 92.4177C 56.0989 93.7191 56.3378 95.6855 54.1792 95.881C 55.0407 97.1951 54.4057 99.0494 53.0893 99.4406C 53.5949 99.5642 54.1461 99.7427 54.6148 99.6163C 56.3878 99.1389 58.1541 98.9279 59.9748 99.2838C 62.8257 99.8411 65.5617 98.791 68.365 98.6498C 70.7653 98.529 73.1599 98.3026 75.5596 98.1635C 76.3426 98.1182 77.1633 98.3447 77.9129 98.1891C 79.0083 97.9616 78.322 96.8392 78.648 96.2993C 79.3813 95.0854 79.6492 93.8305 79.8172 92.4578C 80.0463 90.5895 80.4964 88.7482 80.8525 86.8953C 81.1474 85.3603 81.4056 83.817 81.7493 82.2927C 82.1332 80.5899 82.6271 78.9116 83.0075 77.2082C 83.1557 76.5438 82.9562 75.7683 83.2102 75.1683C 83.7945 73.7888 84.0286 72.3893 84.1774 70.906C 84.3508 69.1755 84.9068 67.4862 85.2366 65.7674C 85.3673 65.0858 85.202 64.3322 85.4019 63.682C 86.0733 61.499 86.6693 59.3282 86.6007 57.0028C 86.5789 56.2647 86.9302 55.504 87.1701 54.773C 87.4491 53.9225 87.8953 53.116 88.0886 52.2501C 88.492 50.4425 88.8348 48.6168 89.095 46.7831C 89.3973 44.6535 89.7554 42.5708 90.8588 40.662C 91.3083 39.8848 91.5999 38.9816 91.7921 38.0987C 92.1576 36.4208 92.4172 34.7187 92.6875 33.0216C 92.8794 31.816 92.9533 30.5888 93.2016 29.3963C 93.369 28.5923 93.8671 27.8528 94.0085 27.0479C 94.3032 25.3728 94.4593 23.6734 94.6967 21.7931ZM 0.0171977 139.915C 1.05227 138.15 2.10133 136.394 3.11782 134.619C 3.81467 133.402 4.48149 132.168 5.13339 130.926C 5.57388 130.087 6.18979 129.256 6.32439 128.361C 6.51769 127.076 7.09439 126.033 7.70823 124.959C 7.90887 124.608 8.03178 124.201 8.12648 123.804C 8.63117 121.693 8.99301 119.538 9.64469 117.474C 10.1916 115.743 11.0742 114.118 11.7935 112.439C 11.9178 112.149 11.9331 111.812 12.0618 111.525C 12.5036 110.537 13.0631 109.591 13.4112 108.573C 13.909 107.116 14.2206 105.598 14.6873 104.129C 15.0239 103.07 15.3341 101.945 15.9549 101.057C 16.2367 100.654 17.238 100.723 17.9204 100.635C 19.2903 100.459 20.6682 100.175 22.0373 100.201C 24.5445 100.25 27.0464 100.527 29.5539 100.632C 30.3576 100.666 31.1796 100.5 31.9778 100.347C 32.5651 100.233 33.1271 99.9907 33.807 99.7715C 34.3738 99.7353 35.0778 99.6744 35.7831 99.6499C 36.7021 99.6179 37.6244 99.6504 38.5409 99.5909C 39.9381 99.5003 41.3297 99.3208 42.7273 99.2444C 43.5672 99.1984 44.4228 99.3572 45.2533 99.2636C 45.6504 99.2188 46.1696 98.8874 46.3528 98.5388C 47.4278 96.495 48.4236 94.4098 49.4369 92.3339C 49.6674 91.862 49.8203 91.3482 50.0838 90.8973C 50.4358 90.2947 50.8726 89.7424 51.2521 89.1551C 52.1746 87.7263 53.2841 86.3753 53.9471 84.8338C 54.6824 83.1235 55.3719 81.4418 56.6659 80.0685C 56.8457 79.8779 57.0679 79.6472 57.1009 79.4112C 57.3967 77.2976 58.844 75.7816 59.9023 74.0804C 60.5698 73.0072 61.5331 72.1215 62.3028 71.1055C 62.6745 70.6151 62.9077 70.0195 63.2003 69.4698C 64.0893 67.8 64.9813 66.1315 65.8605 64.4564C 66.0155 64.1616 66.1517 63.8472 66.2333 63.5256C 66.5796 62.1606 67.023 60.8565 68.1971 59.9449C 68.3142 59.8538 68.4679 59.7424 68.4968 59.616C 69.0329 57.2587 71.0601 55.6857 71.7042 53.3194C 72.0915 51.8967 73.3797 50.743 74.0775 49.3741C 75.1252 47.3182 75.9681 45.1592 76.9796 43.0839C 77.5861 41.8393 77.8924 40.407 79.2102 39.5567C 79.5741 39.3221 79.8119 38.6506 79.83 38.1691C 79.8899 36.5812 80.7401 35.2782 81.7335 34.3245C 82.9717 33.1353 82.9703 31.5619 83.6757 30.2369C 84.4817 28.723 84.9786 27.0092 85.9657 25.6371C 87.0641 24.1103 87.4984 22.4869 87.6836 20.7111C 87.8058 19.5398 88.3819 18.6277 89.0411 17.6457C 89.8966 16.3711 90.3202 14.8074 90.9278 13.3676C 90.9984 13.2005 91.025 12.9069 91.1287 12.8785C 92.277 12.5654 92.1491 11.5557 92.2637 10.7448C 92.4497 9.42923 92.6272 8.20615 93.6572 7.15541C 94.2144 6.58735 94.2859 5.56133 94.6361 4.76807C 94.8078 4.37922 95.1073 4.04415 95.3632 3.69512C 96.155 2.61463 96.8883 1.48195 97.7702 0.479961C 98.4758 -0.321541 99.2907 -0.0842029 100.273 0.931293C 100.857 1.53391 101.442 2.26034 102.177 2.55558C 102.963 2.87142 103.145 3.50333 103.586 4.0231C 104.334 4.90241 105.236 5.64876 106.024 6.49581C 106.609 7.12451 107.277 7.75001 107.63 8.50643C 108.555 10.4866 109.325 12.5387 110.161 14.5603C 110.359 15.0388 110.641 15.4938 110.764 15.9896C 110.971 16.8272 111.064 17.6923 111.244 18.5378C 111.307 18.8374 111.531 19.1029 111.598 19.4025C 111.673 19.7359 111.801 20.2973 111.652 20.4026C 110.577 21.1648 111.065 22.0832 111.298 22.9795C 111.568 24.0185 111.338 24.406 110.799 24.3955C 110.143 25.6399 109.563 26.7387 108.901 27.9933C 109.037 28.3437 109.391 28.9392 109.485 29.5732C 109.629 30.5434 108.959 30.7052 108.068 30.4651C 107.92 31.6134 109.057 33.0935 107.095 33.548C 107.419 34.5482 107.336 35.2602 106.053 35.3213C 105.538 35.3458 104.57 37.1472 104.672 37.6448C 104.852 38.5186 105.158 39.3334 104.03 39.9776C 103.713 40.1587 103.76 41.3518 103.969 41.9697C 104.204 42.6641 104.133 43.0042 103.528 43.361C 102.801 43.7892 102.816 44.4804 102.896 45.2393C 102.941 45.6689 102.847 46.2702 102.569 46.5462C 101.883 47.2264 101.477 47.8105 102.185 48.7255C 102.316 48.8944 102.184 49.4126 102.007 49.6417C 101.636 50.1223 101.154 50.518 100.763 50.9036C 100.911 51.7841 101.467 52.8971 101.136 53.583C 100.481 54.9375 101.068 56.5041 100.066 57.791C 99.6473 58.328 99.886 59.373 99.8215 60.1868C 99.7011 61.7116 99.6998 61.7113 98.199 61.913C 98.4414 61.9693 98.6835 62.0258 99.1008 62.1228C 98.9094 62.5158 98.7851 62.934 98.5324 63.2496C 98.1855 63.6824 97.9633 63.9973 98.4829 64.4894C 98.6477 64.6455 98.5572 65.1229 98.506 65.4408C 98.4356 65.8788 98.3625 66.3428 98.1593 66.7266C 97.9454 67.1301 97.5769 67.4523 97.1155 67.6636C 96.6535 69.294 96.1486 70.9144 95.7484 72.56C 95.5627 73.3237 95.781 74.234 95.4556 74.9036C 95.0431 75.7534 95.3758 76.8158 94.4357 77.5711C 94.0647 77.8693 94.2075 79.056 94.4086 79.7541C 94.7131 80.8096 94.5845 81.4555 93.5909 81.6139C 93.2151 83.5515 92.9223 85.4049 92.4811 87.2221C 92.1582 88.5514 91.6407 89.8337 91.2082 91.1365C 91.1498 91.3129 91.0406 91.4827 91.0259 91.6615C 90.8819 93.4217 90.7366 95.1824 90.6336 96.9454C 90.6125 97.3066 90.7666 97.6778 90.8212 97.9501C 91.6547 98.1504 92.4073 98.3941 93.1789 98.4955C 93.7354 98.5685 94.3231 98.3848 94.8865 98.434C 96.3043 98.558 97.6473 99.0256 99.1591 98.666C 100.295 98.3955 101.577 98.7917 102.793 98.7786C 103.924 98.7667 105.054 98.6061 106.184 98.5116C 106.628 98.4745 107.072 98.4147 107.517 98.4076C 109.837 98.3713 112.161 98.4008 114.478 98.2982C 115.599 98.2486 116.705 97.876 117.827 97.8032C 118.958 97.73 120.159 97.6503 121.216 97.9593C 121.79 98.1268 122.439 99.0659 122.506 99.7133C 122.638 100.992 123.719 102.035 123.194 103.539C 123.007 104.074 124.057 104.995 124.435 105.791C 124.625 106.192 124.718 106.745 124.604 107.16C 124.313 108.213 123.88 109.226 123.437 110.439C 124.108 110.304 124.45 110.235 125.072 110.109C 124.406 110.871 124.439 111.996 123.185 111.62C 123.089 111.591 122.849 111.801 122.784 111.949C 122.419 112.768 122.121 113.619 121.729 114.424C 121.563 114.765 121.223 115.023 120.867 115.426C 121.347 116.175 121.298 116.828 120.025 117.051C 119.52 117.139 119.193 117.976 118.499 117.445C 118.231 117.973 117.332 118.16 117.712 119.057C 117.876 119.443 117.806 119.927 117.852 120.479C 117.422 120.361 117.113 120.275 116.873 120.209C 116.827 120.825 116.851 121.47 116.714 122.078C 116.552 122.791 116.588 123.715 115.475 123.779C 115.349 123.786 115.151 123.917 115.121 124.028C 114.88 124.922 114.692 125.831 114.442 126.723C 114.349 127.055 114.161 127.372 113.967 127.663C 113.711 128.046 113.412 128.401 113.121 128.761C 112.71 129.269 112.251 129.744 111.893 130.286C 111.735 130.524 111.776 130.891 111.611 131.222C 111.449 131.749 111.253 132.268 111.133 132.804C 110.952 133.606 110.952 134.48 110.614 135.201C 110.463 135.523 109.678 135.549 109.128 135.726C 108.634 137.308 107.817 138.783 105.661 139.311C 105.555 138.662 105.204 137.938 105.395 137.408C 106.013 135.687 106.844 134.044 107.562 132.358C 107.8 131.799 107.945 131.201 108.132 130.62C 108.773 128.625 109.457 126.643 110.037 124.631C 110.379 123.443 110.509 122.195 110.815 120.994C 111.635 117.775 112.499 114.567 113.351 111.33C 112.409 110.693 110.836 111.91 110.18 110.372C 108.991 110.561 108.147 111.38 106.788 111.123C 105.923 110.96 104.893 111.192 103.876 110.98C 103.248 110.849 102.474 111.514 101.742 111.748C 101.34 111.877 100.819 112.016 100.473 111.868C 99.5888 111.49 98.8156 111.192 97.9543 111.951C 97.5368 112.319 95.8787 111.534 95.3334 110.803C 95.2256 110.658 95.1311 110.504 94.9796 110.278C 93.9016 111.51 92.7498 111.564 91.4474 110.708C 90.9936 110.409 90.383 110.349 89.7242 110.142C 89.3195 111.12 88.397 110.755 87.4596 110.859C 86.4092 110.975 85.5043 110.883 84.531 110.629C 84.2849 110.565 83.8962 110.795 83.6603 110.993C 83.1194 111.447 82.7938 111.482 82.1251 110.998C 81.5434 110.577 80.5645 110.614 79.761 110.614C 79.058 110.613 78.3593 110.909 77.6507 110.955C 76.2169 111.048 74.7874 111.646 73.3266 110.849C 72.9776 110.659 72.2626 110.968 71.7914 111.2C 69.8767 112.142 67.8985 112.334 65.8004 112.03C 64.724 111.874 63.6057 111.957 62.5094 112.003C 61.7028 112.037 60.899 112.174 60.0974 112.289C 59.7266 112.341 59.2836 112.346 59.0119 112.554C 58.116 113.237 57.4785 113.04 56.9899 112.051C 56.2059 112.414 55.1825 112.087 54.7416 113.11C 54.7008 113.205 54.3426 113.285 54.2468 113.215C 53.3715 112.577 52.4905 112.918 51.535 112.963C 50.0377 113.034 48.5131 112.611 47.0084 112.348C 46.7894 112.31 46.617 112.005 46.3746 111.778C 45.7353 112.33 45.1093 113.044 44.1575 112.313C 44.085 112.257 43.816 112.323 43.7495 112.413C 42.9366 113.52 41.8202 113.037 40.7892 113C 40.6785 112.996 40.5131 112.943 40.465 112.996C 39.5494 114.001 38.7285 113.109 37.8851 112.862C 37.1901 113.948 35.9879 113.571 35.0729 113.931C 33.8283 114.421 32.7941 113.556 31.5701 113.868C 30.613 114.112 29.4626 113.549 28.3892 113.415C 27.8561 113.348 27.2895 112.84 26.7314 113.505C 26.6236 113.633 25.9639 113.516 25.7665 113.312C 25.2061 112.732 24.7197 112.859 24.1598 113.248C 23.7505 113.533 23.2937 113.753 22.9055 114.062C 22.7539 114.182 22.6179 114.501 22.6695 114.67C 23.0596 115.954 22.2921 116.591 21.3673 117.198C 20.753 117.601 20.1878 118.08 19.6113 118.539C 19.1307 118.921 18.7221 119.289 19.1711 120.017C 19.2974 120.221 19.0814 120.762 18.8695 121.026C 18.1367 121.94 17.3249 122.791 16.5744 123.692C 16.4662 123.822 16.5304 124.095 16.5277 124.133C 15.1099 124.975 13.1931 124.77 12.4465 126.683C 12.2133 127.28 11.7089 127.771 11.2521 128.419C 11.3839 128.651 11.5809 128.998 11.7187 129.241C 11.0372 130.059 10.4761 130.895 9.75498 131.558C 8.87286 132.368 7.85223 133.028 6.90131 133.765C 6.64541 133.964 6.33104 134.165 6.20446 134.439C 5.56333 135.827 5.12491 137.333 4.32029 138.613C 3.69567 139.606 2.71311 140.433 1.74362 141.132C 1.12175 141.58 1.0768 141.823 1.69248 142.328C 0.764265 142.439 0.576696 141.924 0.429025 141.311C 0.332718 140.91 0.146066 140.531 9.09495e-13 140.143C 0.00573256 140.067 0.0114651 139.991 0.0171977 139.915Z"/>
<path id="path1_fill" fill-rule="evenodd" d="M 8.97828 80.4149C 9.5199 80.2764 10.0278 79.9613 10.3695 80.089C 12.8253 81.007 14.1305 78.5819 16.1192 78.1962C 17.0302 76.2563 19.3682 76.2476 20.6885 74.8522C 20.7885 74.7467 21.1054 74.8792 21.2941 74.8177C 22.0394 74.5741 22.8006 74.5929 23.4622 73.8756C 24.7327 72.4978 26.2299 71.323 27.6726 70.1112C 28.0961 69.7555 28.7208 69.6358 29.1369 69.2744C 30.7613 67.8637 32.3463 66.4071 33.9246 64.9447C 34.1066 64.776 34.1768 64.4714 34.2625 64.2176C 34.4244 63.7383 34.4549 63.1796 34.7257 62.7786C 35.4746 61.6698 36.6624 60.8584 36.5065 59.222C 36.4299 58.4168 36.7927 57.551 37.0426 56.7392C 37.3421 55.7663 37.8293 54.844 38.0607 53.8589C 38.3457 52.6454 38.3907 51.377 38.6525 50.1565C 38.8605 49.1874 39.3113 48.2706 39.5257 47.3022C 39.9132 45.553 40.0378 43.7273 40.5986 42.0417C 40.938 41.0214 41.3001 40.1201 41.2019 39.0025C 41.1377 38.2699 41.464 37.4876 41.6896 36.7502C 41.8871 36.1057 42.1886 35.4928 42.4537 34.8423C 41.8449 35.0332 41.3588 35.1856 40.8538 35.3438C 40.7486 36.3716 39.9132 37.2663 38.8332 37.6789C 38.0639 37.973 36.974 38.2738 36.7207 38.8666C 36.3756 39.6747 36.122 39.8372 35.4366 39.6703C 35.1068 40.1057 34.3249 40.4771 34.366 40.6893C 34.5998 41.895 33.5717 41.5679 33.0883 41.8176C 32.8104 41.9613 32.6184 42.2419 32.5155 42.3007C 31.6187 42.8136 31.0388 43.5453 30.5935 44.4343C 30.5616 44.4977 30.4013 44.4961 30.3016 44.5272C 30.0734 44.5988 29.7836 44.6068 29.6281 44.7551C 28.7208 45.6191 27.7939 46.4719 26.9728 47.4144C 26.1645 48.3422 25.4968 49.3907 24.7249 50.3524C 24.0336 51.2139 23.2845 52.0291 22.5608 52.8649C 22.3984 53.0219 22.5321 53.5897 22.4581 53.6184C 21.4514 54.0049 21.9992 55.8778 20.4498 55.7084C 20.4267 55.7057 20.3813 55.8849 20.3496 55.9805C 20.2036 56.4227 20.0589 56.8653 19.969 57.1397C 19.4391 57.2675 18.7227 57.2766 18.6562 57.489C 18.5003 57.985 18.6581 58.5784 18.6858 59.1325C 18.7046 59.5056 18.8316 59.9242 18.7055 60.2412C 18.5397 60.6579 18.1671 60.9912 17.8936 61.3674C 17.5193 61.8817 17.5416 62.6166 16.5127 62.7111C 16.0236 62.756 15.1424 63.5458 15.2527 64.6622C 15.3185 65.3283 15.052 66.2344 13.9129 66.1012C 13.7283 66.0794 13.399 66.3296 13.3217 66.5264C 13.0094 67.3233 12.333 68.0525 12.8115 69.0337C 12.9035 69.2225 12.7622 69.5244 12.7297 69.7743C 12.6368 70.4877 12.4086 71.2159 12.4848 71.9112C 12.5939 72.9105 12.3688 73.3076 11.4038 73.4781C 11.086 73.5344 10.5696 73.9113 10.5772 74.126C 10.6283 75.5466 10.0636 76.6106 8.9831 77.4824C 8.82305 77.6115 8.78636 77.9697 8.79668 78.2175C 8.82603 78.924 8.90904 79.6285 8.97828 80.4149ZM 44.0155 12.9541C 43.858 13.8421 43.4313 14.108 42.4897 13.9005C 40.8651 13.5425 40.8078 13.6469 40.3004 15.2155C 40.2561 15.3524 40.1745 15.5687 40.0818 15.5845C 38.7335 15.8154 37.6673 17.2655 36.1115 16.4716C 35.4181 18.1574 35.0814 18.414 33.4009 18.5309C 33.4114 19.3171 33.1535 19.8231 32.1993 19.6758C 31.976 19.6412 31.7084 19.9721 31.4445 20.1012C 30.9888 20.3239 30.3869 20.8061 30.0859 20.6663C 29.5066 20.3974 29.2079 20.6123 28.9538 20.9565C 28.3042 21.8365 26.9096 22.1006 26.8836 23.5402C 26.8793 23.7734 26.1221 24.2264 25.7784 24.1712C 25.0951 24.0611 24.9119 24.3342 24.7307 24.8686C 24.5294 25.462 24.2953 26.0564 23.9809 26.5952C 23.7693 26.9579 23.3932 27.2253 23.2329 27.5738C 22.8626 28.2417 22.3526 28.8717 22.1575 29.5872C 21.9176 30.4658 20.9378 31.1719 21.6466 32.3506C 21.9261 32.8149 21.5836 33.7146 21.3747 34.3685C 21.3164 34.5507 20.5808 34.7558 20.3997 34.6219C 19.1729 33.7151 17.82 32.8758 16.8725 31.7175C 15.3896 29.9042 14.5449 27.6986 13.882 25.4405C 13.5252 24.2255 13.2686 23.1157 13.8813 21.8358C 14.5034 20.5363 14.6458 19.0111 15.2477 17.6985C 15.9161 16.2404 16.9285 14.9674 18.3417 14.0861C 18.59 13.9311 18.8161 13.7245 19.0133 13.5063C 20.5632 11.7928 22.0046 9.96435 23.6943 8.40254C 24.3863 7.76262 25.661 7.79901 26.5768 7.34081C 28.048 6.605 29.4532 5.73346 30.8632 4.88161C 31.8015 4.31493 32.7964 3.7883 33.5976 3.05935C 35.7934 1.06154 38.634 1.0485 41.2728 0.486849C 43.0114 0.116538 44.83 0.00851124 46.614 4.30573e-05C 47.8258 -0.00567869 48.8802 0.558943 49.658 1.6431C 50.857 3.31431 52.2592 4.84247 53.4233 6.53542C 53.9808 7.34608 54.3128 8.36798 54.5316 9.34251C 54.9734 11.3126 55.2761 13.3143 55.6127 15.3071C 55.6489 15.5213 55.4935 15.7612 55.4898 15.9903C 55.4795 16.6313 55.6508 17.3147 55.4836 17.9066C 55.0113 19.5789 56.1009 21.4023 54.754 23.0454C 54.1647 23.7643 54.2055 24.9981 53.9617 25.9983C 53.7281 26.9577 53.521 27.9242 53.2571 28.8752C 52.9975 29.8101 52.5804 30.7119 52.4167 31.6601C 52.2339 32.7197 52.3564 33.8336 52.1587 34.8887C 52.0232 35.6113 51.5671 36.2739 51.1757 37.1371C 51.0794 37.7945 50.9395 38.6948 50.8201 39.598C 50.7877 39.8433 50.7981 40.0987 50.8221 40.3464C 50.968 41.8535 50.0223 44.2928 49.2831 44.826C 49.1099 45.8781 48.9934 46.6643 48.8492 47.4452C 48.6006 48.7905 48.3372 50.1331 48.0742 51.4756C 48.0324 51.6892 48.0313 51.9874 47.8935 52.0933C 46.3083 53.3125 46.7772 55.1657 46.3739 56.7566C 46.0444 58.0561 45.4526 59.2872 45.0655 60.575C 44.8917 61.1531 44.6816 61.9423 44.9348 62.376C 45.3512 63.0901 44.8293 63.4792 44.7617 64.0172C 44.6161 65.1739 44.578 66.3441 44.4984 67.5089C 44.4934 67.5821 44.5369 67.6686 44.511 67.729C 43.6571 69.7335 44.4523 71.9471 43.7156 73.966C 43.5737 74.355 43.5585 74.8599 43.2951 75.1202C 42.8234 75.5864 42.9431 75.8706 43.2682 76.3451C 43.7532 77.0527 43.1864 77.4157 42.6532 77.7579C 43.3602 78.369 43.262 79.1398 42.7743 79.7893C 42.1066 80.6783 42.9534 81.3731 43.0348 82.1403C 43.063 82.4046 44.2441 82.5973 44.9174 82.7241C 45.3269 82.8015 45.772 82.6784 46.2017 82.6655C 47.8683 82.6152 49.3236 81.9066 50.7898 81.223C 52.2002 80.5652 53.6178 79.9235 55.0303 79.27C 55.3045 79.143 55.6441 79.059 55.8264 78.8466C 57.4155 76.9948 59.9027 76.5385 61.7259 74.965C 63.3207 73.5886 65.4094 72.7834 67.2741 71.7157C 67.5635 71.55 67.8283 71.3383 68.0937 71.1337C 69.2055 70.2759 69.9783 70.2935 71.1654 71.2456C 70.9269 72.1572 70.7554 73.1166 70.4206 74.0154C 70.0019 75.1387 69.4066 76.1963 68.9808 77.3173C 68.8597 77.6357 69.0629 78.0767 69.3546 78.4456C 68.9678 79.0888 68.4491 79.6889 68.2234 80.3839C 67.8247 81.613 67.6587 82.9164 67.2789 84.153C 67.1473 84.5819 66.6834 84.9172 66.3477 85.2728C 66.1242 85.5099 65.7043 85.6688 65.6387 85.9297C 65.3599 87.0351 65.1794 87.1516 64.0373 86.6257C 63.7291 87.5368 63.2262 88.1921 62.1426 88.3479C 61.7631 88.4024 61.4822 89.0721 61.1366 89.4421C 59.8791 90.7893 58.2286 91.4555 56.5625 92.1277C 55.269 92.6498 53.7533 92.4731 52.5997 93.4284C 52.4683 93.5371 52.1732 93.4783 51.959 93.4538C 49.9551 93.2256 48.0822 92.6573 46.1714 91.9416C 44.7025 91.3912 43.478 90.5684 42.2696 89.761C 39.9725 88.2259 38.0365 86.1407 36.8074 83.7026C 35.4972 81.1035 34.748 78.2271 34.8083 75.2296C 34.8141 74.9389 34.6625 74.645 34.8324 74.8631C 34.2277 75.1513 33.5802 75.3763 33.0312 75.7463C 32.5493 76.0711 31.8322 76.3339 32.1131 77.2152C 32.1436 77.3107 31.6864 77.5684 31.4475 77.74C 30.9675 78.0852 30.2058 78.3312 30.0554 78.7825C 29.7325 79.7511 29.4555 80.3102 28.3184 79.3982C 27.8103 80.5151 27.4239 81.5505 26.8809 82.4964C 26.4796 83.1954 25.9208 83.8241 25.3476 84.4001C 24.6927 85.0577 23.5863 85.1545 23.1504 86.1366C 23.0754 86.3055 22.7246 86.359 22.4953 86.4515C 22.1951 86.5728 21.8862 86.6726 21.5872 86.796C 21.4485 86.8534 21.3309 86.9942 21.1919 87.0136C 19.7984 87.2095 19.3027 87.4228 18.0511 88.3269C 17.8927 88.4413 17.6327 88.407 17.4272 88.4676C 16.9778 88.6006 16.2819 88.6242 16.1337 88.9174C 15.6974 89.7804 14.9916 89.8589 14.2025 89.9816C 13.8969 90.029 13.6488 90.372 13.344 90.5174C 12.9661 90.6975 12.4218 91.0516 12.1826 90.9172C 10.1845 89.7951 8.23838 88.5809 6.28243 87.3851C 6.0928 87.2693 5.96554 87.0269 5.76811 86.9523C 3.63147 86.1448 2.66014 84.3997 1.95756 82.3904C 1.72459 81.724 1.17289 81.1605 0.982336 80.489C 0.565464 79.0192 0.0921841 77.521 0.00803012 76.0144C -0.0713085 74.5947 0.463195 73.15 0.47145 71.7148C 0.486355 69.1336 1.70235 66.9163 2.47739 64.5812C 3.21735 62.3515 4.22467 60.1905 5.31248 58.1023C 6.01828 56.7479 7.06344 55.5658 7.98638 54.3287C 8.70524 53.3652 9.39636 52.3645 10.231 51.5077C 11.6229 50.0786 13.0957 48.7246 14.5807 47.3905C 15.5756 46.4966 16.6297 45.6639 17.6957 44.8544C 18.7572 44.0486 19.8548 43.288 20.9582 42.5399C 22.4659 41.5177 23.9105 40.3516 25.5388 39.5746C 26.9371 38.9072 28.0409 37.8215 29.6513 37.3761C 31.3755 36.8989 33.3741 36.5348 34.591 34.875C 34.6545 34.7883 34.7673 34.7084 34.8709 34.6844C 37.6074 34.0463 39.0082 31.6386 41.0552 30.0866C 42.6642 28.8667 43.7105 27.2484 44.7254 25.603C 45.1052 24.9871 45.0907 24.125 45.2375 23.3715C 45.3877 22.6007 45.329 21.7173 45.7002 21.0794C 46.1524 20.3024 46.1327 19.5881 46.0134 18.8115C 45.7635 17.1868 46.7779 15.9605 47.3088 14.5811C 47.4021 14.3387 47.4961 14.0952 47.5681 13.8458C 47.7903 13.0754 47.9499 12.4609 46.689 12.7998C 45.8823 13.0166 44.9884 12.9101 44.0155 12.9541Z"/>
<path id="path2_fill" fill-rule="evenodd" d="M 56.1541 13.8298C 56.167 14.5897 55.8074 15.4017 55.2055 15.0474C 53.9292 14.2963 53.5479 15.472 52.8129 15.8523C 52.4023 16.0647 52.1081 16.5184 51.6898 16.6966C 50.6277 17.1494 49.4956 17.3244 48.403 17.8431C 47.2228 18.4033 46.6509 19.3909 45.8236 20.1169C 44.9022 20.9248 44.1595 21.8201 43.1203 21.97C 42.9479 22.5571 42.8766 23.0844 42.6395 23.5227C 42.4276 23.9145 42.0516 24.2278 41.714 24.5393C 41.2937 24.927 40.8624 25.547 40.3942 25.588C 39.363 25.6777 38.6969 26.049 38.5439 26.9972C 38.4139 27.8021 38.2724 28.608 38.069 29.3962C 38.0133 29.6118 37.7391 29.8876 37.5265 29.9265C 36.5536 30.1048 36.5306 30.8527 36.3215 31.5892C 36.1255 32.2802 35.829 33.2854 35.3247 33.4707C 34.4495 33.7928 34.4777 34.4604 34.3023 35.0154C 34.0507 35.8119 34.2968 36.807 33.2282 37.2121C 33.1626 37.237 33.1821 37.4876 33.1633 37.6334C 33.1078 38.0616 33.1283 38.5171 32.9842 38.913C 32.5188 40.194 31.9985 41.4553 31.4881 42.7196C 31.2436 43.3257 30.9737 43.9214 30.7153 44.5217C 30.8233 44.6192 30.9315 44.7165 31.0395 44.814C 31.5085 44.5309 32.128 44.3549 32.4206 43.9461C 33.7685 42.0634 35.9711 41.7048 37.8402 40.7497C 38.3786 40.4746 38.9174 40.1528 39.36 39.7475C 40.2786 38.9062 41.1314 37.9934 42.0165 37.115C 42.0639 37.0681 42.166 37.0816 42.2316 37.0464C 42.78 36.7521 43.4093 36.544 43.8562 36.1371C 44.9245 35.1646 45.8458 34.0274 46.9389 33.0867C 48.2744 31.9375 50.0102 31.22 50.732 29.4335C 50.768 29.3445 50.91 29.3023 50.9921 29.2268C 51.403 28.8487 51.8609 28.5072 52.2053 28.0761C 52.6096 27.5698 52.8833 26.9617 53.2688 26.4385C 54.0356 25.3978 55.0874 24.4876 55.5682 23.3352C 56.2062 21.8064 57.0608 20.511 58.1811 19.3396C 58.2676 19.2492 58.2956 19.0897 58.3212 18.9567C 58.6719 17.1265 59.0174 15.2953 59.3715 13.4261C 58.7782 13.5261 57.9768 13.4691 57.8718 13.7117C 57.3715 14.87 56.8173 14.1056 56.1541 13.8298ZM 51.1085 88.0704C 51.1927 89.0076 51.2271 89.7645 49.9675 89.4093C 49.7854 89.3578 49.4362 89.4237 49.3576 89.5528C 48.6532 90.7065 47.5371 90.3264 46.5255 90.3738C 45.4895 90.4221 44.4315 90.4083 43.4317 90.6349C 42.9756 90.7383 42.6363 91.3542 42.2068 91.7738C 41.5973 91.522 40.9477 91.2535 40.2102 90.9487C 39.7597 91.6916 38.9757 91.7632 38.4292 91.0427C 37.6427 90.0053 36.391 89.9375 35.3976 89.5061C 32.6641 88.3192 30.1762 86.9135 28.2994 84.5586C 28.1838 84.4135 28.0533 84.2714 27.904 84.1629C 24.2235 81.4897 22.4118 77.4335 20.4327 73.607C 19.0997 71.0292 18.5405 68.0523 17.6441 65.2512C 17.5788 65.0468 17.4933 64.768 17.5779 64.6092C 18.2366 63.3701 17.6923 62.155 17.598 60.9207C 17.5437 60.2073 17.7698 59.4727 17.8672 58.7652C 15.959 58.7666 14.0865 58.7689 12.2143 58.7689C 11.8781 58.7689 11.541 58.7417 11.206 58.7588C 10.4383 58.7982 9.65088 58.7629 8.90817 58.9248C 6.05611 59.5459 3.451 58.9037 1.08208 57.3508C 0.545281 56.9988 0.35175 56.1257 0 55.4924C 0.0758991 55.3855 0.151798 55.2786 0.227697 55.1718C 1.39714 55.2594 2.56681 55.421 3.73625 55.4212C 7.34868 55.4219 10.9824 55.684 14.533 54.7234C 14.7072 54.6763 14.9755 54.6195 15.0188 54.5009C 15.5485 53.0565 16.8574 53.2092 18.1575 52.9677C 18.2 52.4031 18.169 51.7611 18.3112 51.1601C 18.5556 50.1281 18.9078 49.1216 19.2162 48.1047C 19.2376 48.034 19.3125 47.9502 19.2926 47.901C 18.4733 45.8762 19.7647 44.3013 20.4219 42.5924C 21.024 41.0262 21.6283 39.461 22.2313 37.8951C 22.5998 36.9375 22.997 35.9895 23.3221 35.0172C 23.4643 34.5918 23.384 34.0908 23.5326 33.669C 24.1176 32.0078 24.7436 30.3607 25.3744 28.716C 25.6929 27.885 26.0641 27.0745 26.3945 26.2481C 26.965 24.8213 27.3849 23.3144 28.118 21.9778C 29.1673 20.0649 30.6252 18.3638 31.5738 16.4101C 32.7854 13.9143 35.1564 12.539 36.7728 10.4604C 37.3926 9.66373 37.9716 8.80478 38.7221 8.14815C 39.6255 7.35741 40.6808 6.73488 41.6911 6.07139C 42.5046 5.53698 43.3411 5.03552 44.1824 4.54506C 45.3349 3.87355 46.3388 2.84318 47.8591 3.0304C 48.0384 3.05237 48.3042 2.90429 48.4291 2.75232C 49.2817 1.71668 50.2672 1.05799 51.6967 0.990021C 54.2046 0.870779 56.5717 -0.475204 59.1917 0.17799C 60.6636 0.544869 61.7771 1.21935 62.4927 2.61843C 63.0451 3.69801 63.9318 4.61349 64.4365 5.70909C 64.8628 6.63441 65.0547 7.703 65.1622 8.72788C 65.2556 9.61658 65.8777 10.9958 66.6259 11.5629C 66.8208 11.7105 66.8579 12.0909 66.926 12.3742C 67.0661 12.9572 67.1785 13.5465 67.2879 14.0654C 67.6073 14.2617 68.1888 14.5384 68.1634 14.6165C 68.0008 15.1115 67.7038 15.5626 67.3613 16.1943C 67.375 16.2236 67.5183 16.4493 67.591 16.6955C 67.8242 17.4865 68.1576 18.2788 67.0155 18.7467C 66.6649 18.8902 66.4062 19.3559 66.1987 19.7262C 65.8637 20.3245 65.6839 21.0212 65.2923 21.573C 64.9311 22.0813 64.3776 22.4532 63.7775 23.0062C 64.1164 23.1121 64.3407 23.1183 64.4587 23.2332C 64.6585 23.428 64.9286 23.7017 64.9116 23.9228C 64.896 24.1281 64.5392 24.4764 64.3409 24.4709C 63.1765 24.4384 62.8795 25.5992 62.9286 26.0856C 63.0334 27.1212 62.6271 27.194 62.0953 27.3801C 61.7 27.8387 61.3038 28.2967 60.9098 28.7563C 60.7172 28.9808 60.3182 29.2916 60.37 29.4225C 61.1355 31.3606 58.5219 31.0853 58.6514 32.4058C 58.5049 33.0307 58.3476 33.571 58.2561 34.1221C 58.1052 35.0303 57.4327 34.6492 56.9207 34.7259C 56.7014 34.7586 56.3825 34.9353 56.3258 35.115C 55.7737 36.8631 54.5247 37.8461 52.917 38.6048C 52.3378 38.878 52.0058 39.686 51.5809 40.2643C 51.4348 40.463 51.317 40.9102 51.2408 40.8983C 49.6277 40.6442 49.375 42.6507 48.0203 42.8183C 47.8813 42.8354 47.7373 43.1458 47.669 43.3451C 47.3317 44.3288 47.1799 44.4304 46.6497 44.3405C 45.4551 44.9683 44.5993 45.3999 43.7619 45.8648C 43.2659 46.1401 42.7917 46.4573 42.3214 46.7759C 42.0277 46.9748 41.7899 47.3298 41.4744 47.4105C 39.6214 47.8854 38.0968 48.8895 36.7015 50.152C 36.4456 50.3836 36.0046 50.4016 35.7177 50.6115C 35.2231 50.9731 34.554 50.9267 34.1752 51.6991C 33.9244 52.2106 32.8343 52.3285 32.1076 52.5876C 30.622 53.1172 29.0684 53.5058 27.6731 54.2096C 27.2492 54.4236 26.6119 55.1262 26.8362 56.1017C 27.0166 56.886 26.6766 57.7861 26.5842 58.6368C 26.4365 59.9975 26.3175 61.3613 26.1568 62.7203C 26.0669 63.4784 25.8876 64.2261 25.8052 64.9848C 25.7474 65.516 25.5601 66.2669 25.8263 66.5521C 26.4168 67.1851 26.1593 67.6246 25.8119 68.1306C 25.3801 68.7593 25.2788 69.3431 25.7699 70.0158C 25.9164 70.2163 25.8555 70.6326 25.7779 70.9198C 25.5053 71.9301 25.7626 72.7734 26.4645 73.5191C 26.606 73.6695 26.7451 73.85 26.8073 74.0421C 27.4991 76.1843 29.2124 77.2854 31.1193 78.0851C 32.4603 78.6474 33.6948 79.4915 35.2961 79.4455C 37.6549 79.3777 40.063 79.7423 42.3164 78.8454C 43.7901 78.2588 45.1923 77.4589 46.5495 76.6292C 47.3585 76.1346 48.0324 75.4123 48.7364 74.7593C 48.9455 74.5653 49.0164 74.2297 49.2092 74.01C 50.4564 72.5874 51.765 71.2155 52.9588 69.7501C 53.5357 69.042 53.8627 68.1368 54.3804 67.3733C 55.599 65.5769 56.9165 63.8457 58.0924 62.0227C 58.867 60.8219 59.4707 59.5102 60.1398 58.2423C 60.6766 57.2247 61.2618 56.2255 61.7089 55.169C 62.3496 53.655 62.8277 52.0719 63.478 50.5625C 64.3276 48.5913 64.4438 46.3227 65.9017 44.5991C 65.9338 44.5613 65.8735 44.4165 65.8969 44.4055C 67.6953 43.5394 67.4156 41.7211 67.8093 40.1554C 67.9164 40.2893 68.0333 40.3678 68.0434 40.4582C 68.3619 43.2987 70.103 45.5965 70.9987 48.2134C 71.5689 49.8791 72.4369 51.4879 71.931 53.3868C 71.7861 53.931 72.3406 54.7538 72.0947 55.1592C 71.5215 56.1051 72.6274 57.4243 71.3263 58.1413C 71.2011 58.2102 71.277 58.6277 71.244 58.8813C 71.2021 59.2044 71.2252 59.5697 71.0787 59.8402C 70.3282 61.226 69.5215 62.5816 68.7627 63.9631C 68.6426 64.1819 68.6327 64.4792 68.6291 64.7408C 68.6073 66.2172 67.9315 67.3943 66.9863 68.4654C 66.8717 68.5954 66.8738 68.838 66.8458 69.0319C 66.8045 69.3191 66.8799 69.6709 66.7394 69.8876C 66.1932 70.7287 65.5241 71.4938 65.013 72.3535C 64.6585 72.9497 64.5576 73.6937 64.2177 74.3016C 63.7254 75.1821 63.1338 76.0092 62.5555 76.8389C 62.2861 77.2252 61.8607 77.5216 61.6608 77.9333C 61.365 78.5421 61.4416 79.4475 60.315 79.1843C 60.2288 79.1644 59.886 79.6377 59.9108 79.8533C 60.0105 80.728 59.4563 81.2325 58.9759 81.8101C 58.4533 82.4386 57.9968 83.1218 57.4687 83.745C 57.2846 83.962 56.9922 84.1316 56.7163 84.2195C 55.41 84.6351 54.6749 85.5467 54.2699 86.8137C 54.2043 87.0197 53.8813 87.1641 53.6513 87.2902C 53.5047 87.3703 53.195 87.3142 53.1564 87.4042C 52.8258 88.1732 52.3337 88.2636 51.6387 87.8827C 51.5337 87.8253 51.303 87.9967 51.1085 88.0704Z"/>
<path id="path3_fill" fill-rule="evenodd" d="M 28.3277 20.395C 28.0766 20.7761 27.812 21.1327 27.5976 21.5172C 27.4265 21.8241 27.1099 22.3455 27.2122 22.4624C 28.0026 23.3653 27.2381 23.9313 26.9239 24.676C 26.5917 25.4631 25.8675 26.2433 26.4325 27.2607C 26.5359 27.447 26.394 27.9068 26.2126 28.0887C 25.4117 28.8925 25.2773 29.8194 25.5421 30.8612C 25.5607 30.9343 25.5972 31.0215 25.5745 31.0835C 25.0808 32.4267 24.5809 33.7677 24.0794 35.1079C 24.0164 35.2768 23.915 35.4336 23.8692 35.6062C 23.6632 36.3768 23.5091 37.1632 23.2647 37.921C 22.8969 39.0612 22.5759 40.2371 22.0306 41.2927C 21.6532 42.0235 20.9318 42.5771 20.3111 43.2687C 20.492 43.4901 20.6566 43.6798 20.8084 43.8794C 21.3278 44.5612 21.0946 45.2082 20.2487 45.4176C 19.7412 45.543 19.5518 45.6048 19.9919 46.1827C 20.423 46.7487 20.4239 47.3964 19.6605 48.032C 19.0687 48.5247 18.6571 49.4313 18.5124 50.2175C 18.2524 51.6298 18.2526 53.09 18.1524 54.4218C 18.4374 54.073 18.8401 53.5523 19.2719 53.057C 20.2891 51.8903 21.2393 50.6958 21.5876 49.128C 21.6669 48.7715 21.9286 48.4522 22.1216 48.1247C 22.5702 47.3648 23.0207 46.6061 23.4835 45.855C 24.1294 44.8072 24.7595 43.748 25.4468 42.7272C 26.5077 41.1508 27.6354 39.6187 28.6902 38.0382C 29.7565 36.4404 30.7418 34.7891 31.8106 33.1932C 33.2029 31.1139 34.636 29.0619 36.0651 27.0073C 36.7066 26.0847 37.3051 25.1159 38.0579 24.2906C 39.2854 22.9446 40.7096 21.7724 41.8896 20.3898C 42.9898 19.1008 43.8382 17.601 44.8774 16.2557C 45.5265 15.4148 46.3869 14.7369 47.0388 13.8979C 47.8615 12.8394 48.5483 11.6765 49.3307 10.585C 50.1938 9.3809 51.1926 8.26402 51.9624 7.00569C 53.0555 5.2189 54.6292 3.75253 55.2024 1.60299C 55.714 -0.314713 57.2116 -0.501928 58.4881 0.988472C 58.8722 1.43683 59.4108 1.74969 59.8277 2.17425C 60.9756 3.34286 61.5818 4.79183 61.9652 6.36142C 62.125 7.01622 62.6325 7.67468 62.558 8.27935C 62.4227 9.37403 62.5896 10.3563 62.8948 11.3801C 62.9693 11.6309 62.6912 12.1397 62.4312 12.3075C 61.6722 12.7972 61.3631 13.4115 61.5607 14.2851C 61.5857 14.3954 61.6774 14.5632 61.6362 14.6055C 60.641 15.6272 61.0826 16.9247 61.1484 18.0416C 61.2315 19.45 60.2771 20.2916 59.8758 21.4151C 59.3133 22.9902 58.8738 24.6085 58.3661 26.2035C 58.1744 26.8059 58.0561 27.4783 57.7 27.9718C 56.9433 29.0202 56.6784 30.1769 56.5943 31.4156C 56.584 31.5666 56.5888 31.8271 56.5216 31.8504C 55.1107 32.3409 56.0362 33.3623 55.8706 34.1524C 55.6555 35.1789 56.3686 36.534 55.0531 37.2705C 55.229 38.4696 54.3838 39.3088 54.0616 40.2756C 53.5906 41.6889 53.4579 43.2264 52.6672 44.5912C 52.4778 44.9182 52.6356 45.5259 52.7851 45.9516C 53.0862 46.8094 52.9539 47.2046 52.0628 47.5802C 52.8826 48.1766 52.6679 48.9145 52.1052 49.4205C 51.3022 50.1428 51.1912 50.9933 51.0603 51.9724C 50.9807 52.5691 50.3637 53.0857 50.0245 53.6599C 49.8257 53.9963 49.4614 54.5211 49.5788 54.7109C 50.3183 55.9095 49.4176 56.6508 48.8455 57.3978C 48.3742 58.0135 48.2827 58.5106 48.5368 59.2223C 48.8053 59.9746 48.7102 60.6249 48.1626 61.4012C 47.6242 62.1647 47.5111 63.3031 47.4318 64.2946C 47.3231 65.649 47.4985 67.0838 46.7996 68.2785C 46.2844 69.1587 46.449 69.9529 46.6614 70.7455C 46.9631 71.8722 46.3676 72.6918 45.9507 73.5938C 45.879 73.7487 45.749 73.9094 45.7556 74.0627C 45.8145 75.4099 45.4357 76.6206 44.8242 77.8196C 44.1113 79.2164 44.2427 80.7512 44.3635 82.2695C 44.3894 82.595 44.264 83.0232 44.0489 83.2596C 43.4268 83.9435 43.3904 84.6827 43.71 85.4632C 43.9783 86.1184 44.2025 86.6776 43.2858 87.0225C 43.1225 87.084 43.0654 87.4935 43.0067 87.753C 42.7582 88.8532 42.1127 89.1961 41.0696 88.7571C 40.9313 88.6989 40.8013 88.5326 40.6775 88.5422C 37.916 88.758 36.3794 86.8108 34.595 85.2215C 33.5666 84.3058 33.398 83.2315 33.4038 81.9965C 33.4125 80.0918 33.4962 78.2172 34.3281 76.4402C 34.5519 75.9623 34.4973 75.3606 34.6106 74.8244C 34.8789 73.5551 35.1871 72.294 35.4471 71.0231C 35.5771 70.3875 35.725 69.7348 35.7064 69.0944C 35.6814 68.2281 35.8204 67.5173 36.2797 66.7155C 36.7142 65.9568 36.6351 64.8981 36.7509 63.9677C 36.8195 63.4189 36.6278 62.7192 36.9025 62.3382C 37.6057 61.362 37.836 60.2964 37.7314 59.1898C 37.6034 57.8379 38.2822 56.7714 38.6897 55.5948C 39.0134 54.6601 39.2553 53.6906 39.4525 52.7199C 39.896 50.5379 40.259 48.3394 41.5282 46.4251C 41.7038 46.1601 41.6864 45.7737 41.7882 45.4528C 42.3842 43.5761 43.0416 41.717 43.5738 39.8227C 43.9691 38.4151 44.1069 36.9332 44.5359 35.5384C 45.2229 33.3049 46.0603 31.1176 46.8235 28.9072C 46.9441 28.5574 47.2002 28.0775 47.0663 27.8491C 46.5705 27.0041 47.0888 26.2804 47.302 25.5966C 47.9094 23.6468 48.6854 21.7497 49.3864 19.8288C 49.4357 19.6938 49.4139 19.5329 49.4336 19.2704C 48.9519 19.5583 48.5442 19.802 48.1174 20.057C 48.6606 21.4808 47.0853 21.7586 46.6795 22.681C 46.5169 23.0499 46.3298 23.4134 46.1106 23.7512C 45.7797 24.2602 45.4073 24.7422 45.0592 25.24C 44.7767 25.6439 44.5295 26.0749 44.22 26.4562C 43.8109 26.9602 43.3755 27.818 42.9178 27.8404C 41.2466 27.9223 41.1707 29.3605 40.4778 30.2797C 40.2393 30.5958 39.9137 30.8471 39.6204 31.1201C 39.5163 31.2169 39.2852 31.2954 39.2895 31.3728C 39.3496 32.4787 38.4668 32.7577 37.7543 33.2385C 36.7789 33.8968 36.0619 34.7562 35.9981 36.0282C 35.9671 36.6503 35.7479 37.1286 34.9701 37.2428C 34.7124 37.2806 34.4065 37.8109 34.3414 38.1569C 34.224 38.7817 34.7899 39.8018 33.3586 39.4956C 33.3127 39.486 33.0857 40.3195 32.8645 40.6944C 32.4173 41.4485 31.9748 42.2052 31.5214 42.9557C 31.2029 43.4827 30.853 43.9913 30.5519 44.5278C 30.421 44.761 30.2979 45.0466 30.3091 45.3027C 30.343 46.0841 29.9564 46.1193 29.6164 45.9804C 28.7237 47.1586 27.8803 48.2721 26.9618 49.4844C 27.0113 49.6663 27.1076 50.0213 27.1924 50.3335C 25.2633 51.5861 24.5261 53.5061 23.8467 55.5483C 23.5406 55.5254 23.1746 55.4979 22.8086 55.4705C 22.7272 55.5568 22.6458 55.6433 22.5644 55.7298C 22.8412 55.8458 23.118 55.9619 23.1939 55.9937C 22.9811 56.6405 22.9006 57.1518 22.6536 57.5635C 22.3869 58.008 21.8795 58.3121 21.6298 58.7621C 21.2214 59.4984 20.9455 60.307 20.5931 61.0755C 20.5076 61.2618 20.3482 61.5481 20.2104 61.5554C 19.1127 61.6152 18.8823 62.3606 18.8747 63.2287C 17.2818 63.4292 17.2439 63.564 17.2297 66.063C 17.2274 66.4583 16.8062 67.1305 16.4836 67.1941C 15.3402 67.4191 15.7266 67.9141 16.213 68.6209C 14.4389 69.508 13.95 71.3355 13.1048 72.9209C 12.9988 73.12 12.8179 73.3672 12.8624 73.5443C 13.141 74.6539 12.4105 74.7928 11.5253 74.9132C 11.6377 75.1984 11.6948 75.4957 11.8546 75.7204C 12.319 76.3734 12.2541 76.9566 11.5875 77.3587C 10.6923 77.8986 11.2928 78.8717 10.8672 79.5377C 10.731 79.7513 10.7673 80.1232 10.5951 80.2575C 9.39765 81.1932 10.0642 82.6561 9.54922 83.7732C 9.35316 84.1987 9.1406 84.6168 8.92804 85.0345C 8.84365 85.2002 8.64256 85.3659 8.65838 85.5142C 8.75239 86.3929 8.31511 86.6954 7.50544 86.5778C 7.65541 87.9965 7.43275 88.1183 6.08469 87.6709C 4.86847 87.2669 3.50458 87.2102 2.62933 86.0843C 1.76119 84.9679 0.750424 83.922 0.111588 82.6859C -0.185818 82.11 0.185423 81.1428 0.365655 80.3795C 0.60711 79.3576 1.00862 78.3728 1.24182 77.3498C 1.37848 76.7503 1.27346 76.0999 1.36289 75.4849C 1.5273 74.3534 1.59128 73.1649 2.01228 72.1272C 2.30418 71.4076 2.5321 70.6363 2.9343 69.9417C 3.37685 69.1773 3.82353 68.368 4.02142 67.5207C 4.33327 66.1843 4.4438 64.8008 4.62907 63.4358C 4.68296 63.0371 4.61325 62.5993 4.7529 62.2384C 5.15716 61.1934 5.65681 60.1854 6.08537 59.1491C 6.54329 58.0427 7.03606 56.9428 7.38185 55.8003C 7.90581 54.0693 8.29631 52.299 8.7783 50.5548C 9.535 47.8166 10.12 45.0386 11.5526 42.5032C 12.1371 41.4689 12.1635 40.1145 12.4148 38.8998C 12.69 37.569 12.6457 36.0804 13.2541 34.9312C 14.1983 33.1472 14.3111 31.1549 15.1128 29.3562C 15.8307 27.7459 16.4462 26.0776 16.9486 24.3881C 17.251 23.371 17.1089 22.221 17.4184 21.2073C 17.9554 19.4493 18.6954 17.7536 19.329 16.0241C 19.4131 15.7947 19.3686 15.5201 19.3929 15.2674C 19.5005 14.1522 19.3324 12.9037 19.7887 11.9548C 20.4163 10.6493 20.4198 9.35893 20.5874 8.01249C 20.7394 6.78986 21.284 5.59677 21.7804 4.44418C 22.0297 3.8656 23.3846 3.90221 23.8671 4.4483C 24.535 5.20425 24.9625 6.15796 25.9485 6.64522C 27.3841 7.35472 27.7288 8.81079 28.1633 10.1687C 28.5263 11.3034 29.047 12.369 28.6269 13.7047C 28.518 14.051 29.1885 14.9729 29.023 15.7767C 28.8872 16.4351 28.936 17.1362 28.7627 17.7807C 28.6719 18.1182 28.2348 18.3476 28.0344 18.6748C 27.7996 19.058 27.6219 19.486 27.5008 19.9172C 27.4839 19.9783 27.9262 20.1678 28.3277 20.395Z"/>
<path id="path4_fill" fill-rule="evenodd" d="M 39.3106 16.9698C 39.2558 16.9041 39.2012 16.8384 39.1464 16.7729C 39.0084 17.1403 38.93 17.7861 38.7225 17.8305C 37.1996 18.1567 37.8293 20.4442 36.1543 20.5733C 36.1114 20.5767 36.0589 20.7704 36.0525 20.8777C 35.9699 22.2393 34.8936 22.5757 33.806 23.0392C 33.908 23.9594 33.5865 24.633 32.8257 24.5595C 32.1392 25.4354 31.6345 26.1294 31.0777 26.7791C 30.1174 27.8999 29.1667 29.0651 28.9574 30.5472C 28.812 31.5774 28.433 32.3235 27.6414 32.9565C 27.3371 33.2001 27.0957 33.5974 26.9696 33.9727C 26.666 34.8772 26.4016 35.7625 25.3727 36.1417C 25.178 36.2134 25.0214 36.4841 24.921 36.6976C 24.4628 37.6726 23.9946 38.646 23.6068 39.6494C 23.4454 40.0666 23.5667 40.5962 23.3945 41.0054C 23.1817 41.5103 22.8515 41.9939 22.4745 42.3956C 21.8187 43.0952 22.276 43.3326 22.8572 43.6377C 24.5224 44.512 25.8368 43.3477 27.2319 42.8588C 28.8125 42.3052 30.1862 41.8433 31.3733 42.9625C 31.463 42.8996 31.5565 42.8373 31.6466 42.7705C 32.8209 41.9019 33.9825 41.0613 35.5154 42.096C 35.7482 42.253 36.1747 42.1496 36.5088 42.1267C 37.5069 42.0587 38.5131 41.3954 39.4097 42.25C 39.5814 41.4648 39.6862 40.7493 39.8967 40.0666C 40.699 37.4637 41.6853 34.9065 42.3058 32.2628C 42.7107 30.5372 43.4954 29.1161 44.4243 27.6706C 44.8847 26.9542 45.2438 25.9437 45.1271 25.142C 44.9597 23.9951 45.3362 23.0966 45.7242 22.1349C 45.9647 21.5391 46.2261 20.9512 46.446 20.3479C 46.9079 19.0799 47.3706 17.8115 47.7904 16.5294C 48.1332 15.4828 48.4141 14.416 48.7024 13.4271C 47.5719 13.3422 46.5832 13.268 45.5593 13.1913C 45.1429 13.5278 44.6524 14.2551 44.1005 14.3053C 42.7043 14.432 41.7921 15.3938 40.6513 15.9385C 40.1535 16.176 39.7545 16.6196 39.3106 16.9698ZM 16.8334 71.884C 17.5784 72.2905 18.256 72.8377 19.0244 73.0392C 20.2496 73.3603 21.5302 73.5191 22.7976 73.6166C 23.6756 73.6841 24.5733 73.5603 25.4568 73.4685C 25.9287 73.4195 26.3969 73.2836 26.8528 73.1424C 29.0013 72.4775 30.7246 71.1226 32.3471 69.6441C 32.8545 69.1818 33.2022 68.5359 33.5892 67.9521C 34.5323 66.5292 35.45 65.0896 36.3892 63.6642C 36.8666 62.9398 37.4229 62.2621 37.8453 61.5085C 38.4016 60.5161 38.9283 59.4962 39.3454 58.4402C 39.8806 57.0849 41.0565 56.5013 42.2475 56.0751C 42.6269 55.9394 43.3573 56.5633 43.8276 56.9576C 44.3447 57.3911 44.6937 58.0242 45.21 58.4585C 46.5049 59.5471 47.0651 60.9786 47.4925 62.559C 47.7381 63.4674 48.2472 64.2602 47.5102 65.1674C 47.4045 65.2976 47.5748 65.7517 47.7321 65.976C 48.2689 66.7423 47.9908 67.2593 47.5693 68.0484C 46.8596 69.3777 45.8301 70.5614 45.7134 72.2631C 45.659 73.0572 44.565 73.794 43.9088 74.5266C 43.6769 74.7854 43.2451 74.8946 43.0762 75.1752C 42.3394 76.3974 41.8913 77.8905 40.907 78.8392C 39.8758 79.8327 39.1058 80.9839 38.1815 82.0305C 38.0648 82.1626 37.8302 82.3436 37.7194 82.3047C 36.6488 81.9296 36.5355 82.6389 36.0909 83.3651C 35.741 83.9366 34.6993 84.1831 33.9158 84.3716C 32.57 84.6953 31.1861 84.8605 29.8186 85.0942C 29.745 85.1068 29.6693 85.1661 29.603 85.1548C 27.7365 84.8381 25.7968 84.7317 24.0273 84.129C 22.4275 83.5841 21.0138 82.4951 19.5169 81.6481C 19.0588 81.3888 18.5488 81.1961 18.1446 80.8713C 15.7387 78.9394 13.3865 76.9762 12.1146 74.018C 11.4684 72.5148 10.4671 71.1615 9.84473 69.651C 9.3343 68.4123 9.04768 67.0565 8.84085 65.7249C 8.54573 63.823 8.3772 61.8982 8.23985 59.9773C 8.20797 59.5317 8.69799 59.0399 8.64365 58.6071C 8.43636 56.9524 8.82801 55.4292 9.29922 53.8686C 9.52027 53.1366 9.30495 52.2731 9.28225 51.2457C 8.21393 51.1656 6.94452 51.0915 5.68129 50.9585C 5.41828 50.9308 5.10391 50.7417 4.94225 50.5294C 4.57834 50.0508 4.23852 49.6592 3.56689 49.9691C 3.47586 50.0112 3.27224 50.0023 3.23784 49.9457C 2.5121 48.7565 1.48368 49.3459 0.541475 49.5777C 0.485296 49.374 0.462137 49.2676 0.426824 49.1655C 0.281676 48.7449 -0.108826 48.0891 0.0289843 47.9486C 0.502952 47.4662 1.11634 46.9951 1.7577 46.8249C 3.85146 46.2694 5.98007 45.8448 8.09837 45.3834C 8.26782 45.3464 8.45998 45.4102 8.64112 45.4304C 9.78603 45.5562 10.9186 44.8969 11.3428 43.8502C 12.0318 42.1504 12.8225 40.5211 13.2114 38.6718C 13.5954 36.8443 14.6383 35.1619 15.3127 33.3859C 15.9378 31.74 16.3572 30.0112 17.0529 28.3986C 17.7247 26.8406 18.6355 25.3853 19.4381 23.8832C 20.5882 21.7311 21.7093 19.5633 22.8939 17.4304C 23.574 16.2055 24.1649 14.8469 25.1296 13.8804C 27.3912 11.6139 29.4432 9.20965 31.1949 6.53439C 31.4838 6.09335 31.9676 5.7647 32.4001 5.43512C 33.5862 4.53109 34.7873 3.64628 35.9941 2.76971C 36.6644 2.28244 37.3473 1.81097 38.0427 1.3601C 39.6057 0.346433 41.2018 -0.525104 43.1427 0.377559C 43.3013 0.451484 43.513 0.503666 43.6751 0.464072C 45.3169 0.0630919 46.8278 0.39564 48.2366 1.26466C 48.6393 1.51298 49.0557 1.7858 49.3593 2.13871C 50.7424 3.74629 52.1882 5.3152 53.4092 7.04065C 54.1604 8.10215 54.6078 9.39755 55.0799 10.6305C 55.5287 11.8021 55.8992 13.0141 56.1723 14.2377C 56.3149 14.8769 56.181 15.5796 56.156 16.2529C 56.1482 16.4664 56.0462 16.6811 56.0602 16.8903C 56.1237 17.8332 56.5394 18.6448 55.9836 19.7443C 55.5403 20.6209 56.2017 21.9943 56.1053 23.1247C 56.0331 23.9734 55.5608 24.7964 55.2168 25.6098C 55.0762 25.9425 54.805 26.2204 54.5881 26.5301C 55.4947 26.8262 55.298 27.3389 54.8226 27.6918C 54.0804 28.2427 53.6236 28.8398 53.8699 29.8038C 53.8956 29.9038 53.8722 30.0741 53.8038 30.1316C 52.8139 30.9626 52.9701 32.1946 52.633 33.262C 52.3945 34.0164 52.0247 34.6494 52.3966 35.4869C 52.5298 35.7867 52.3225 36.3017 52.1503 36.6608C 51.4251 38.1715 50.9373 39.8995 49.116 40.327C 49.0522 41.1736 49.0376 41.9476 48.913 42.7038C 48.8697 42.967 48.6021 43.3076 48.3552 43.4044C 46.9576 43.9516 46.6952 44.3945 46.6065 45.8078C 46.5826 46.1884 45.9528 46.5315 45.5898 46.9031C 45.534 46.8651 45.7526 47.0139 45.9473 47.1469C 45.9447 47.2803 45.9729 47.3751 45.9378 47.419C 45.3545 48.1468 44.7939 48.5517 43.6934 48.1704C 43.0069 47.9326 42.059 48.3249 41.2626 48.5533C 40.1094 48.8838 39.0565 49.0996 37.7662 48.9122C 36.5131 48.73 35.1269 49.4564 33.8004 49.789C 33.7305 49.8064 33.672 49.9061 33.6083 49.9059C 32.6539 49.9025 31.6335 50.0901 30.7683 49.8073C 30.1823 49.6155 29.8729 49.6981 29.6927 50.073C 29.343 50.8006 28.9564 50.8253 28.3802 50.376C 28.2839 50.3009 28.1022 50.3055 27.9642 50.3179C 26.8759 50.4154 25.79 50.5493 24.7001 50.606C 24.4958 50.6166 24.2761 50.3318 24.0241 50.1558C 23.2786 50.6037 22.6432 51.7364 21.6937 50.785C 21.0709 50.9537 20.5545 51.0935 20.0381 51.2334C 19.94 51.1423 19.8419 51.0509 19.7437 50.9599C 19.1778 52.8906 18.6119 54.8216 18.0304 56.8061C 19.031 56.7926 18.8494 57.4886 18.7034 57.9468C 18.4344 58.7922 17.9029 59.561 17.6809 60.4138C 17.37 61.6099 17.157 62.8471 17.0668 64.0789C 17.0107 64.8452 17.5291 65.7238 17.3055 66.3903C 16.988 67.3369 16.6621 68.1798 16.9316 69.1967C 17.0535 69.6567 16.9435 70.1806 16.9217 70.6747C 16.9029 71.1031 16.86 71.5304 16.8334 71.884Z"/>
<path id="path5_fill" fill-rule="evenodd" d="M 48.2573 71.2189C 47.8723 71.9195 47.568 72.4218 47.3162 72.9492C 47.1495 73.2982 47.1222 73.7234 46.9198 74.0434C 46.5077 74.6947 46.1243 75.4294 45.5408 75.8943C 44.1757 76.9816 43.7121 78.5963 42.8708 79.9896C 42.6731 80.3172 42.4647 80.6403 42.2351 80.9459C 41.7703 81.5636 41.3372 82.2159 40.8018 82.7674C 39.8538 83.7436 38.8275 84.6435 37.8575 85.5993C 37.3673 86.0822 36.9447 86.6328 36.4622 87.1247C 35.894 87.7039 35.3065 88.1045 34.3625 88.0095C 33.9165 87.9646 33.3352 88.5164 32.9346 88.9167C 32.0752 89.7759 31.0773 90.0993 29.8842 90.0691C 28.873 90.0437 27.8402 90.2707 26.851 90.1368C 25.6123 89.9691 24.3619 89.6649 23.2 89.2081C 21.2391 88.437 19.2439 87.6657 17.448 86.5875C 15.5285 85.4352 13.7299 84.032 12.0514 82.5438C 10.5604 81.2219 9.2392 79.6889 7.96497 78.1486C 6.51784 76.3991 5.15074 74.576 3.86481 72.7056C 3.37754 71.9971 3.26152 71.0452 2.89051 70.2437C 2.4225 69.2323 1.70914 68.3097 1.38605 67.2615C 0.915524 65.7349 0.774274 64.11 0.351899 62.5651C -0.0610749 61.0539 -0.0480047 59.5472 0.0765065 58.0246C 0.158367 57.0249 0.32186 56.032 0.435365 55.0344C 0.514245 54.3418 0.714655 53.6241 0.610552 52.9565C 0.26591 50.7495 1.19275 48.8329 1.83021 46.8404C 2.01182 46.2728 2.12991 45.68 2.22255 45.0902C 2.40805 43.9111 2.40232 42.6786 2.75224 41.5539C 3.39772 39.4799 4.19294 37.4471 5.03173 35.4415C 5.31675 34.7599 5.92005 34.2106 6.38072 33.603C 6.5183 33.4215 6.72742 33.2693 6.79942 33.0665C 7.64624 30.6845 8.64645 28.3891 10.1644 26.3329C 10.4623 25.9297 10.3057 25.2005 10.5907 24.7775C 11.3733 23.6167 12.2944 22.55 13.1295 21.4228C 13.4976 20.9261 13.7718 20.3613 14.1236 19.8514C 14.3281 19.555 14.6085 19.3114 14.8436 19.0345C 15.1469 18.6773 15.4666 18.3294 15.7296 17.9437C 16.1676 17.302 16.3496 16.4739 17.2242 16.1656C 17.4501 16.086 17.6009 15.7308 17.7371 15.476C 18.0426 14.905 18.1971 14.2461 18.9531 14.0113C 19.1735 13.9428 19.3796 13.5968 19.4558 13.3379C 19.7367 12.384 20.3785 11.91 21.2661 11.4841C 22.1469 11.0616 23.0313 10.4148 23.6066 9.63895C 24.7279 8.12749 26.0948 7.07286 27.8008 6.29677C 29.006 5.74839 30.0323 4.82078 31.2064 4.18819C 32.282 3.60869 33.4398 3.1759 34.5778 2.71953C 35.4847 2.35586 36.4111 2.0375 37.3393 1.73081C 37.9268 1.53673 38.3994 1.17489 39.1879 1.60081C 39.6509 1.85097 40.5917 1.24149 41.3092 0.994767C 42.2959 0.655582 43.2548 0.12941 44.2649 0.0062778C 44.8292 -0.0623831 45.5263 0.446623 46.0718 0.826547C 47.8209 2.04413 49.5435 3.302 51.2375 4.59489C 51.6067 4.87663 51.8486 5.34924 52.0912 5.76762C 52.7702 6.93783 53.7484 8.06044 53.9983 9.3222C 54.3343 11.0184 55.4661 12.642 54.7842 14.496C 55.6429 15.241 54.3281 15.7667 54.5567 16.4758C 54.5782 16.5426 54.0612 16.9367 53.8381 16.9014C 52.8378 16.7435 52.7663 17.3553 52.9589 17.9909C 53.1967 18.7752 53.2919 19.4552 52.6682 20.1015C 52.5792 20.1937 52.5964 20.4906 52.6766 20.6275C 53.4849 22.0064 53.2293 22.5147 51.6127 22.6175C 51.6317 23.2116 51.698 23.8122 51.6505 24.4038C 51.6246 24.7267 51.4579 25.2678 51.266 25.3101C 50.2777 25.528 50.5416 26.0633 50.8046 26.6589C 51.0796 27.2812 51.1545 27.7618 50.1869 27.746C 49.368 27.7325 48.9177 28.0655 49.1642 29.0354C 49.3091 29.6049 49.2059 30.1246 48.4953 30.527C 48.0342 30.7879 47.9308 31.634 47.5921 32.1707C 47.3821 32.5033 46.9785 33.0274 46.7531 32.9848C 45.4004 32.7294 45.22 33.7763 44.8033 34.5755C 44.6822 34.8078 44.5967 35.0588 44.4944 35.303C 42.8276 35.3575 42.835 35.3587 42.5777 37.115C 42.5486 37.3137 42.4062 37.5151 42.2691 37.6748C 41.6027 38.4509 40.9201 39.2131 40.1106 40.1306C 39.5562 40.0418 38.9577 40.2562 38.4984 41.1184C 38.3097 41.4731 37.4601 41.4839 36.9071 41.637C 36.4044 41.7759 35.8456 41.8013 35.4008 42.0414C 34.1366 42.7237 31.5519 41.829 30.7005 40.3517C 29.7865 38.7658 30.0569 38.0236 31.3884 36.7786C 32.2848 35.9402 32.8085 34.7183 33.5893 33.7396C 34.2646 32.893 35.0717 32.1515 35.8119 31.3555C 36.3391 30.7881 37.1318 30.281 37.307 29.6159C 37.5872 28.5521 38.3459 28.103 39.0696 27.5189C 39.5204 27.1553 39.9813 26.7822 40.3464 26.3387C 41.5413 24.8869 42.6816 23.3908 43.8666 21.9313C 45.1016 20.4103 46.4885 18.9938 47.5662 17.3711C 48.1699 16.462 48.2899 15.2298 48.612 14.1385C 48.7744 13.5886 48.9016 13.0283 49.1016 12.251C 48.5208 11.8283 47.8294 11.3955 46.6891 11.9785C 45.9689 12.3465 44.9556 11.9764 44.1308 12.4751C 43.5201 12.8443 42.8338 13.1034 42.1562 13.3407C 41.8258 13.4565 41.439 13.4158 41.0772 13.4354C 40.8914 13.4457 40.6607 13.3611 40.525 13.4428C 39.5452 14.0328 38.5885 14.661 37.6142 15.26C 37.4384 15.3683 37.2173 15.4104 37.0116 15.4614C 36.7617 15.5234 36.4377 15.4806 36.2636 15.6246C 34.9589 16.7049 33.7028 17.8442 32.3866 18.9098C 31.9844 19.2352 31.4623 19.4719 30.9573 19.5941C 30.5093 19.7026 30.0087 19.5959 29.524 19.584C 29.465 20.4794 29.8879 21.4333 28.3885 21.3573C 27.9507 21.3351 27.4777 22.3863 26.9858 22.9129C 26.679 23.2416 26.3062 23.5092 25.8423 23.9076C 25.9725 24.4429 25.6708 24.9856 24.8902 25.2126C 23.7598 25.542 24.1489 26.7516 23.5619 27.4391C 22.8226 28.3049 22.5539 29.46 21.7827 30.4146C 20.9563 31.4374 19.8552 32.4314 19.5408 33.8522C 19.506 34.0097 19.3306 34.2111 19.1801 34.255C 18.4487 34.4693 18.2217 34.8343 18.4686 35.6134C 18.5436 35.8491 18.1361 36.3565 17.83 36.5637C 17.4379 36.8291 16.9252 36.9168 16.6218 37.0251C 16.299 38.4189 16.0497 39.7122 15.6897 40.974C 15.4322 41.8766 15.1545 42.7919 14.1717 43.2901C 13.9408 43.4071 13.9819 43.9992 13.8312 44.3436C 13.3637 45.4125 12.8092 46.4467 12.3946 47.5345C 12.0679 48.3926 12.0071 49.3586 11.6366 50.1917C 10.7501 52.1847 10.5659 54.3402 10.0324 56.4131C 10.0044 56.5227 9.99017 56.6438 9.93261 56.7369C 8.65494 58.8096 9.43273 61.0118 9.49396 63.1737C 9.50611 63.603 9.258 64.0354 9.16399 64.4736C 9.07135 64.906 8.81476 65.4747 8.99178 65.7617C 9.56435 66.6905 9.9255 67.5444 9.30134 68.5935C 9.19036 68.7803 9.28644 69.1804 9.41783 69.4058C 10.3442 70.993 11.2979 72.5644 12.2568 74.1324C 12.8411 75.0877 13.3779 76.084 14.0628 76.9635C 15.523 78.8382 17.1793 80.4515 19.5798 81.1715C 21.3569 81.7046 23.084 81.326 24.6339 80.7623C 25.9214 80.294 26.9423 79.0648 28.0448 78.1296C 29.0087 77.3116 29.9555 76.4673 30.8464 75.5718C 31.5804 74.8337 32.4985 74.1079 32.845 73.192C 33.551 71.3256 35.033 70.0789 36.0864 68.5036C 37.2622 66.7456 38.7504 65.114 39.511 63.1938C 39.9327 62.1291 41.0157 61.6306 41.1563 60.5799C 41.3418 59.1939 42.4686 58.0998 42.1409 56.5094C 41.9689 55.6752 41.841 54.4883 43.0274 53.8763C 43.6871 53.536 44.112 53.4 44.8235 53.9363C 45.5905 54.5141 46.6953 54.6256 47.5341 55.1351C 48.169 55.5207 48.6937 56.1586 49.1303 56.7802C 49.6758 57.557 50.0913 58.4265 50.5439 59.2662C 51.1142 60.3245 51.7083 61.3738 52.1972 62.4694C 52.337 62.783 52.291 63.4712 52.0867 63.5982C 50.8447 64.3716 51.2313 65.7416 50.7799 66.7891C 50.6196 67.1615 50.3389 67.4812 50.1662 67.8495C 49.8672 68.4871 49.4226 69.1321 49.38 69.796C 49.3206 70.7165 49.0853 71.2455 48.2573 71.2189Z"/>
<path id="path6_fill" fill-rule="evenodd" d="M 48.5412 32.5106C 48.8711 33.5431 48.526 34.1404 47.3114 33.9031C 47.2729 34.4148 47.3406 34.9593 47.1683 35.4134C 46.9812 35.9064 46.5591 36.3071 46.2617 36.7626C 45.9042 37.31 45.048 37.3956 45.0558 38.3622C 45.0592 38.7707 44.2528 39.1859 43.8146 39.598C 43.7233 39.517 43.6323 39.4362 43.541 39.3552C 43.4933 39.5713 43.4007 39.7885 43.4055 40.0034C 43.4289 41.0324 43.1111 41.4954 41.987 41.0662C 41.6314 40.9305 41.1533 41.1139 40.8717 41.1388C 41.0788 41.6041 41.22 41.922 41.3613 42.2399C 41.2608 42.2843 41.1604 42.3289 41.06 42.3733C 40.5571 42.1408 40.0542 41.9083 39.2994 41.559C 39.2407 42.3358 39.1955 42.9375 39.1501 43.539C 39.2455 43.5493 39.3406 43.5593 39.436 43.5696C 38.9848 44.3986 38.5713 45.2521 38.0609 46.043C 37.891 46.3065 37.4902 46.4651 37.1625 46.5726C 36.6881 46.7283 36.1841 46.7939 35.7106 47.1496C 35.373 46.9878 35.0357 46.826 34.7158 46.6726C 34.4166 46.8752 34.0816 47.0404 33.8406 47.2945C 33.7409 47.3998 33.758 47.7941 33.8674 47.8873C 34.3542 48.3027 34.3554 48.8062 33.7457 48.9664C 33.0454 49.1504 32.2992 49.1602 31.2793 49.2804C 31.1018 49.7244 30.8427 50.4355 30.5258 51.12C 30.4478 51.2887 30.1339 51.5116 30.0094 51.4698C 29.0326 51.1422 28.8118 51.8394 28.6451 52.4862C 28.424 53.3437 28.0431 53.4023 27.3474 52.9638C 27.0471 52.7743 26.627 52.7741 25.9728 52.6198C 26.5197 53.6859 26.8448 54.5055 27.3277 55.2182C 28.0874 56.3394 29.1284 57.2998 29.7349 58.4885C 30.7395 60.4572 32.3031 61.9891 33.5083 63.7944C 36.0552 67.6099 38.6582 71.3894 41.3023 75.1386C 43.6738 78.5009 46.1337 81.8007 48.5481 85.1329C 49.0555 85.8332 49.6255 86.5113 49.989 87.2831C 50.1862 87.7017 50.0085 88.2961 49.9998 88.811C 49.6388 88.7568 49.2064 88.8094 48.9314 88.6265C 48.3165 88.2173 47.5813 87.799 47.2491 87.1915C 46.2892 85.4361 44.7171 84.3503 43.2608 83.1099C 41.5546 81.6561 39.921 80.1176 38.2333 78.6419C 36.7399 77.3362 35.1781 76.1062 33.7172 74.766C 32.7179 73.8489 31.8067 72.8286 30.9158 71.8026C 29.6737 70.3719 28.5215 68.8623 27.261 67.4483C 26.7359 66.8594 25.8405 66.5466 25.4458 65.9046C 24.4624 64.3046 22.9056 63.4399 21.4826 62.3788C 21.1856 62.1573 21.013 61.7414 20.841 61.3871C 20.3842 60.4467 19.9628 59.4891 19.52 58.5418C 19.151 57.7518 18.296 57.8097 17.7374 57.8781C 17.1545 57.9493 16.6457 58.3807 16.5363 59.3085C 16.4189 60.3034 16.7362 61.6245 15.3361 62.2983C 14.9819 62.469 14.9415 63.5408 14.9729 64.1881C 15.0048 64.8406 15.2171 65.4162 14.4494 65.8233C 14.2465 65.9309 14.061 66.4903 14.1646 66.6823C 14.6611 67.6033 14.0442 68.126 13.6313 68.8066C 13.3334 69.2973 13.3286 69.9656 13.1963 70.5554C 12.9894 71.4785 12.7877 72.4026 12.5783 73.3252C 12.5233 73.5683 12.4774 73.82 12.3756 74.0446C 12.2302 74.3664 12.0372 74.6666 11.701 75.269C 11.7565 76.358 12.5836 77.8395 11.1248 79.3054C 10.4944 79.9391 10.5751 81.2249 10.9312 82.2761C 11.0599 82.6558 10.8918 83.1497 10.8088 83.582C 10.7464 83.907 10.5538 84.2094 10.5061 84.5344C 10.3261 85.7618 9.50176 86.2861 8.31099 85.9412C 6.59076 85.4432 4.80312 85.061 3.46078 83.7784C 2.30992 82.6787 1.07512 81.5879 0.245276 80.2634C -0.197965 79.5562 0.0845351 78.3606 0.136587 77.3904C 0.17488 76.672 0.540159 75.9421 0.459674 75.2521C 0.282882 73.7365 1.59472 72.7773 1.71717 71.3837C 1.81141 70.3089 2.05218 69.2415 2.29684 68.1866C 2.54013 67.1384 2.91413 66.1202 3.15123 65.0708C 3.55686 63.2744 3.84762 61.451 4.29223 59.6651C 4.50915 58.7945 4.98977 57.9923 5.30552 57.1423C 5.8109 55.7805 6.34334 54.4233 6.74623 53.03C 7.29197 51.1422 7.1592 49.1181 7.99111 47.2636C 8.76432 45.5402 9.20641 43.7312 9.40109 41.8012C 9.56413 40.183 10.4222 38.6368 10.9553 37.0528C 11.1699 36.4158 11.2846 35.7414 11.5384 35.122C 12.5503 32.6516 13.0011 30.0711 13.227 27.4268C 13.3327 26.1895 13.5352 24.9463 13.8502 23.7468C 14.0399 23.0249 14.6182 22.4124 14.87 21.6975C 15.6409 19.5085 16.3756 17.3224 16.8142 15.0142C 17.202 12.9736 18.1357 11.0388 18.7949 9.04622C 19.1758 7.89431 19.4202 6.69389 19.8554 5.56488C 20.2563 4.52535 20.83 3.55219 21.2434 2.71934C 21.9731 2.77404 22.4949 2.71384 22.9384 2.87199C 23.4823 3.06585 24.0161 3.37825 24.4557 3.75406C 25.3284 4.49994 26.2211 5.25361 26.94 6.13797C 27.5678 6.9104 28.0207 7.84167 28.4529 8.74914C 28.7856 9.44765 28.9858 10.2125 29.2087 10.9587C 29.3795 11.5308 29.9381 12.1135 29.2085 12.7155C 29.1367 12.7747 29.2523 13.1244 29.3444 13.3073C 30.2339 15.0701 29.4547 16.52 28.6501 18.0793C 28.0452 19.252 27.832 20.6263 27.4488 21.9124C 27.3119 22.3708 27.3135 22.9338 27.0372 23.2769C 25.5903 25.0737 24.7134 27.1274 23.9026 29.2648C 23.4585 30.4355 23.2828 31.5453 23.1347 32.7667C 22.954 34.2555 22.1359 35.6651 21.6183 37.118C 21.5509 37.3071 21.6541 37.5499 21.6399 37.7655C 21.5122 39.7239 21.747 41.7359 20.722 43.5598C 20.3248 44.2663 20.5268 45.3157 19.5028 45.6622C 20.1061 47.2718 18.4324 48.4205 18.4711 49.916C 18.5732 49.9855 18.6755 50.0549 18.7777 50.1245C 19.6688 49.3035 20.5837 48.5068 21.4457 47.6563C 22.9065 46.2147 24.3344 44.7394 25.7751 43.2771C 25.9863 43.0629 26.297 42.8775 26.3812 42.62C 26.721 41.5798 27.3399 40.9086 28.3892 40.49C 28.7687 40.3384 28.8778 39.5942 29.1922 39.1829C 30.3949 37.6099 31.3412 35.8547 32.8895 34.5229C 33.7044 33.8216 34.2327 32.7786 34.8534 31.865C 35.5948 30.7733 36.3359 29.6779 37.0008 28.5397C 37.4122 27.8357 37.6849 27.0505 38.0123 26.2989C 38.0877 26.1259 38.0854 25.899 38.1999 25.7665C 39.2191 24.5876 40.3028 23.4609 41.2702 22.2419C 41.8105 21.5613 42.1044 20.6902 42.6178 19.9834C 43.9063 18.209 45.291 16.5039 46.5634 14.7185C 47.034 14.0585 47.3096 13.2567 47.6517 12.5095C 47.8258 12.1295 47.8746 11.6727 48.111 11.3448C 48.9668 10.1576 49.9434 9.05308 50.7429 7.8316C 51.202 7.13035 51.3451 6.23066 51.7425 5.47951C 52.4088 4.22004 53.171 3.01137 53.8773 1.77273C 54.0192 1.52372 54.0382 1.19552 54.2056 0.972373C 54.9894 -0.0728754 56.4007 -0.704556 57.3714 1.37267C 57.7818 2.25107 58.4353 2.83377 59.0609 3.34667C 60.2689 4.33699 60.3464 5.72005 60.7862 6.98845C 60.9049 7.33152 60.9444 7.70641 60.9859 8.07054C 61.0556 8.68071 61.117 9.29294 61.1471 9.90608C 61.2012 11.0069 61.1932 12.1117 61.2808 13.2096C 61.3466 14.0326 60.8559 14.2189 60.2205 14.4089C 59.8437 14.5217 59.3448 14.7396 59.2086 15.0465C 58.8075 15.9485 58.5429 16.9136 58.2583 17.8639C 58.0203 18.6587 57.7497 19.2497 56.888 19.745C 56.1143 20.1894 55.7839 21.3711 55.2017 22.1879C 54.6991 22.8931 54.6363 23.7275 54.3611 24.4736C 53.9101 25.6967 52.9163 26.7198 52.1541 27.8291C 51.3529 28.995 50.576 30.1782 49.7448 31.3221C 49.4501 31.7274 49.0264 32.0392 48.5412 32.5106Z"/>
<path id="path7_fill" fill-rule="evenodd" d="M 19.2077 72.8691C 19.4081 73.1128 19.6085 73.3568 19.9896 73.8203C 19.3017 73.9134 18.9064 73.9668 18.4446 74.029C 18.0463 75.4405 17.307 76.6681 15.5952 77.2513C 15.9995 77.6268 16.2543 77.8635 16.6138 78.1974C 16.3237 78.4961 16.0348 78.7939 15.7071 79.1314C 16.2822 79.8675 15.7081 80.3703 15.3857 81.0544C 14.9972 81.8788 15.0573 82.906 14.8532 83.8297C 14.7968 84.0846 14.49 84.2844 14.2901 84.519C 14.2646 84.8582 14.3935 85.4249 14.1667 85.7002C 13.6395 86.3404 13.706 87.4408 12.6113 87.6825C 12.4334 87.7216 12.3868 88.3531 12.2809 88.7062C 11.2598 88.5245 10.2706 88.3485 9.28141 88.1725C 9.28232 88.1212 9.28324 88.07 9.28416 88.0187C 9.49787 87.9779 9.71135 87.9372 10.0179 87.8788C 8.50086 85.6847 9.11103 83.5946 9.96977 81.4467C 10.2956 80.6321 10.2711 79.6732 10.3745 78.7765C 10.5442 77.3051 10.6607 75.827 10.8496 74.3584C 11.1183 72.2695 11.3914 70.1796 11.7391 68.1029C 12.0906 66.0021 12.5281 63.9155 12.9415 61.8254C 13.285 60.0883 13.6148 58.3475 14.0103 56.6219C 14.571 54.1775 15.3123 51.7671 15.737 49.301C 16.0516 47.4726 16.8777 45.7524 16.6365 43.7722C 16.5079 42.715 17.18 41.5766 17.3939 40.4566C 17.5432 39.6747 17.3886 38.8181 17.6216 38.0733C 17.913 37.1423 18.4714 36.2959 18.8956 35.404C 19.0002 35.1843 19.1157 34.9174 19.0827 34.6932C 18.8355 33.0151 19.1893 31.4887 19.8788 29.9352C 20.2304 29.1426 19.9203 28.0832 20.1006 27.1823C 20.3118 26.1277 20.7889 25.1287 21.0474 24.08C 21.5314 22.1165 21.9306 20.1325 22.395 18.1639C 22.4486 17.936 22.7564 17.7744 22.8346 17.5444C 22.9999 17.0578 23.3133 16.4456 23.1448 16.076C 23.0015 15.7615 22.2604 15.5555 21.7979 15.5791C 20.3984 15.651 19.007 15.8709 17.6097 15.9991C 17.3774 16.0203 17.1327 15.8315 16.8878 15.8109C 16.6276 15.7887 16.1836 15.7663 16.1236 15.8904C 15.695 16.7765 15.044 16.4975 14.4134 16.2735C 13.0392 17.9117 11.8679 16.7395 10.7352 16.0206C 10.5958 16.0911 10.4818 16.1117 10.4664 16.162C 10.0691 17.4787 9.09246 17.4522 8.07573 17.1194C 7.35687 16.8841 6.88818 17.0688 6.33143 17.5382C 6.03609 17.7875 5.44541 17.7122 4.98542 17.7376C 3.89761 17.7973 3.25534 16.4049 2.02788 16.8081C 1.95015 16.8338 1.66237 16.4367 1.57937 16.1991C 0.698617 13.6797 -0.286696 11.1624 0.077895 8.42095C 0.269592 6.9793 0.655278 5.56329 0.95062 4.15001C 1.22372 3.9818 1.49888 3.71287 1.81991 3.63735C 2.36954 3.50803 2.83457 2.82028 3.54976 3.45745C 3.7958 3.67671 4.4124 3.48652 4.85954 3.47347C 5.00262 3.46936 5.17827 3.36888 5.28191 3.42244C 6.63915 4.12598 7.89137 3.51536 9.2133 3.23339C 10.7522 2.90519 12.3722 2.58386 13.9147 2.72438C 16.7766 2.98484 19.5278 2.30761 22.3331 2.14786C 24.0998 2.04739 25.8758 2.07233 27.6371 1.92014C 29.9017 1.72445 32.152 1.36902 34.4155 1.15983C 35.5232 1.05752 36.6489 1.16555 37.7637 1.1168C 40.45 0.999392 43.1331 0.792265 45.8201 0.722231C 48.1658 0.661122 50.49 0.498167 52.7996 0.0651452C 53.4136 -0.0499763 54.0807 0.00518134 54.7076 0.0942117C 56.0637 0.28692 57.4319 0.471618 58.7445 0.83987C 59.1056 0.941259 59.5615 1.72125 59.5005 2.11719C 59.317 3.30732 59.5796 4.37019 59.9208 5.47586C 60.0524 5.90247 59.9338 6.45313 59.7963 6.90721C 59.3668 8.32437 58.9515 9.75618 58.3613 11.1086C 58.1698 11.5471 57.4556 11.7579 56.8867 12.1351C 56.8873 12.312 56.8889 12.6409 56.8896 12.97C 56.8917 13.8443 56.5076 14.1665 55.5966 14.075C 54.4386 13.9587 53.0724 14.3182 52.1506 14.0605C 50.7365 13.6653 50.1108 14.6922 49.2055 14.8888C 48.602 14.3942 48.0835 13.9697 47.5391 13.5234C 47.1885 14.1656 47.028 15.2051 45.981 14.2386C 45.9003 14.164 45.6318 14.2246 45.4876 14.2963C 43.9503 15.0607 42.3805 14.8055 40.8022 14.4803C 40.5904 14.4366 40.2829 14.3798 40.1531 14.4881C 39.0974 15.3699 38.5298 14.841 38.074 13.5383C 37.445 13.9987 36.9635 14.4304 36.4086 14.7238C 36.1304 14.871 35.7184 14.7696 35.3666 14.7739C 34.9995 14.7787 34.6324 14.7758 34.5638 14.7758C 34.4164 15.883 34.4749 16.8196 34.146 17.5918C 33.648 18.7611 33.5281 19.818 33.9764 21.0232C 34.1073 21.3752 33.7326 21.9309 33.5489 22.3765C 33.4499 22.6168 33.0857 22.9215 33.1451 23.0277C 34.0575 24.6581 31.8734 25.9563 32.6689 27.5723C 32.7471 27.7314 32.5233 28.0507 32.4178 28.2855C 31.9904 29.2353 31.5148 30.1661 31.1461 31.1377C 31.0369 31.4258 31.1557 31.8499 31.2807 32.1683C 31.8312 33.568 31.5912 34.0127 30.155 34.064C 30.1548 34.2819 30.1548 34.5016 30.1546 34.7215C 30.2926 34.6568 30.4527 34.5144 30.5637 34.5458C 30.7184 34.5895 30.9168 34.7405 30.9571 34.8845C 31.2197 35.8247 31.4217 36.7685 30.6295 37.5932C 30.515 37.7122 30.4093 37.8989 30.4063 38.0562C 30.3853 39.1861 29.4522 40.2378 30.1475 41.4581C 30.2374 41.6158 29.8193 42.3031 29.5339 42.3841C 28.8535 42.577 28.7354 42.8663 28.8441 43.5264C 28.92 43.9853 28.7118 44.4911 28.6173 45.0532C 29.1539 46.2536 28.7499 47.5923 28.3846 48.8172C 28.1523 49.596 27.6215 50.2364 28.0225 51.1162C 28.1021 51.2906 27.9368 51.5945 27.8466 51.8241C 27.3968 52.9718 26.8389 54.0878 26.505 55.2674C 26.2067 56.3214 26.2885 57.4877 25.954 58.5245C 25.5151 59.8858 25.7829 61.4627 24.7116 62.6382C 24.6172 62.7418 24.7084 63.0433 24.757 63.2421C 25.0074 64.2689 24.3904 65.3118 23.2335 65.6638C 23.2136 66.5088 23.3422 67.4231 23.1301 68.2503C 22.9199 69.0703 22.4071 69.829 21.9309 70.5518C 21.83 70.7047 21.3069 70.6266 20.9889 70.5815C 20.2487 70.4763 19.4808 70.1357 19.5351 71.473C 19.5537 71.9289 19.0362 72.4066 18.7635 72.8741C 18.9114 72.8725 19.0595 72.8707 19.2077 72.8691Z"/>
<path id="path8_fill" fill-rule="evenodd" d="M 52.9165 39.4796C 53.2126 39.7364 53.7044 39.9762 53.6948 40.1939C 53.6749 40.6436 53.3875 41.0814 53.1296 41.7248C 53.1124 41.953 53.0525 42.4567 53.0418 42.9614C 53.0259 43.6919 52.8257 44.5197 53.0966 45.1336C 53.6393 46.3635 53.6246 46.6494 52.3848 46.9318C 52.3165 48.8774 52.2791 50.8258 52.1619 52.7694C 52.1248 53.3837 51.8315 53.9783 51.7331 54.5941C 51.6386 55.1858 51.6724 55.7969 51.5981 56.3931C 51.5391 56.8666 51.3878 57.3278 51.3039 57.799C 51.2225 58.2554 51.1294 58.7175 51.1252 59.1777C 51.1213 59.6059 51.3479 60.0616 51.2612 60.4592C 51.05 61.4257 50.6861 62.3583 50.4467 63.3203C 50.3587 63.6741 50.3924 64.0829 50.4669 64.447C 50.6387 65.2856 50.3098 65.7685 49.5385 65.9076C 49.6694 66.9968 49.7857 68.0169 49.9164 69.0351C 50.0124 69.7824 49.6421 70.236 49.1743 70.8048C 48.776 71.2893 48.6265 72.254 48.8072 72.8792C 49.1847 74.1847 48.2558 75.1169 48.1478 76.2507C 48.0723 77.0396 48.0021 77.8372 48.0372 78.6262C 48.0725 79.4192 48.023 80.0877 47.2388 80.2406C 47.0531 81.6678 46.8868 83.0051 46.6974 84.339C 46.6669 84.5537 46.5305 84.7525 46.4475 84.9606C 46.217 85.538 45.9889 86.1166 45.6591 86.9492C 46.3071 88.1018 46.2973 89.481 45.3264 90.5102C 45.0728 90.7792 44.4452 91.0018 44.1476 90.8753C 42.1902 90.0422 40.0513 89.4691 38.7058 87.6217C 37.9078 86.5263 36.9057 85.4923 36.4531 84.2628C 36.1353 83.3988 36.5343 82.2425 36.7085 81.2332C 37.1431 78.714 37.6193 76.202 38.1096 73.6931C 38.2146 73.1562 38.4996 72.6552 38.6138 72.1192C 38.8282 71.1124 38.9383 70.0831 39.1651 69.0798C 39.4583 67.7816 39.8644 66.5082 40.1435 65.2075C 40.3244 64.363 40.3166 63.4796 40.4783 62.6295C 40.8397 60.7306 41.3214 58.8525 41.6305 56.9458C 42.0522 54.3456 42.3572 51.7264 42.7156 49.1159C 43.0533 46.656 43.3964 44.197 43.7355 41.7374C 43.9057 40.5038 43.9607 39.2411 44.2693 38.0434C 44.6275 36.6539 44.6798 35.2951 44.6213 33.873C 44.5821 32.922 44.9843 31.9534 45.1863 30.9922C 45.209 30.8835 45.2498 30.7596 45.2205 30.6615C 44.841 29.3965 45.3966 28.2851 45.7738 27.1405C 45.8394 26.9409 45.874 26.6931 45.8176 26.4979C 45.4596 25.259 45.9079 24.1446 46.289 23.0085C 46.3872 22.716 46.3482 22.3773 46.3574 22.2537C 45.8524 22.9753 45.2767 23.7807 44.7217 24.6003C 44.5372 24.8729 44.2987 25.1706 44.268 25.4755C 44.1033 27.1048 43.193 28.4139 42.5216 29.8343C 42.1201 30.6839 41.5964 31.6843 41.7273 32.5238C 41.8922 33.5816 41.2558 33.6349 40.7197 33.9553C 40.4998 34.0867 40.2607 34.1856 40.2604 34.4428C 40.1206 34.874 39.9761 35.3038 39.8436 35.7371C 39.7998 35.8806 39.7099 36.0953 39.7718 36.1722C 40.1919 36.6935 39.806 36.7393 39.4443 36.9984C 39.1158 37.2337 38.9736 37.756 38.8057 38.1746C 38.7298 38.3638 38.872 38.752 38.7771 38.8051C 37.85 39.3262 38.1642 40.2069 38.0323 40.9828C 37.9585 41.4163 37.4845 41.7664 37.3169 42.2027C 36.8108 43.518 36.3898 44.866 35.8874 46.1827C 35.6583 46.7828 35.3818 47.3866 35.0108 47.9059C 34.2711 48.942 33.3499 49.8602 32.6962 50.943C 32.1722 51.8109 31.9897 52.8765 31.5527 53.8061C 30.9203 55.1508 30.9012 56.7487 29.6891 57.8787C 29.2995 58.2419 29.3539 59.0688 29.181 59.6764C 28.2388 62.9877 26.3358 65.8818 25.0726 69.0551C 24.8997 69.4894 24.5303 69.8419 24.2932 70.2557C 23.5778 71.5056 22.8472 72.7488 22.1912 74.0295C 21.6883 75.0116 21.3622 76.0869 20.8252 77.0472C 20.257 78.0638 19.5884 79.0379 18.8624 79.9502C 17.9427 81.106 16.803 82.102 15.9849 83.3187C 15.446 84.1199 14.535 84.7635 14.5366 85.9335C 14.5368 86.1688 13.8797 86.5979 13.5245 86.5991C 12.8485 86.6011 12.6916 86.738 12.7224 87.4354C 12.7499 88.062 12.4733 88.7019 12.3252 89.3606C 11.4552 89.5169 10.463 88.8333 9.75106 89.774C 9.71254 89.825 9.51488 89.8065 9.4227 89.7593C 7.96227 89.0091 6.4913 88.2765 5.05953 87.4745C 4.60964 87.2227 4.20492 86.8266 3.88849 86.4132C 2.64429 84.7885 1.32534 83.2006 0.284999 81.4506C -0.131643 80.7498 0.0100655 79.6574 0.0850474 78.7589C 0.112105 78.4334 0.645233 78.0181 1.02588 77.9045C 1.24922 77.8377 1.64407 78.2632 1.93001 78.5046C 2.26503 78.7875 2.56518 79.1114 2.90455 79.4405C 3.61103 78.5232 4.24734 77.6086 4.97446 76.773C 6.03338 75.5561 7.2003 74.4317 8.23812 73.1985C 8.91319 72.3966 9.4415 71.4715 10.0338 70.6004C 10.1406 70.4434 10.2014 70.2159 10.3477 70.131C 12.0097 69.1642 12.5174 67.2342 13.8668 65.9722C 14.9005 65.0054 15.6056 63.6762 16.3942 62.4675C 16.6875 62.018 16.8028 61.4527 17 60.9407C 17.0264 60.8723 17.041 60.7606 17.0876 60.7446C 18.9995 60.0792 18.9112 58.0016 19.9454 56.7185C 20.501 56.0289 20.9704 55.354 21.1057 54.3818C 21.1777 53.865 22.0738 53.4841 22.5471 52.993C 22.8442 52.6849 23.185 52.3141 23.2643 51.9228C 23.4356 51.0785 24.0224 50.9405 24.6984 50.7942C 24.9543 50.7391 25.2691 50.5731 25.395 50.3614C 26.4126 48.6502 28.0093 47.3461 28.7433 45.4192C 29.09 44.5085 29.6914 43.7411 29.7222 42.6666C 29.7549 41.5252 30.9991 41.1583 31.5949 40.3738C 32.8209 38.7596 33.8842 37.0222 35.0266 35.3439C 35.2784 34.9738 35.6093 34.6568 35.8532 34.2824C 36.216 33.7258 36.5279 33.1364 36.872 32.5672C 37.5292 31.4801 38.2224 30.4136 38.8459 29.3075C 39.2731 28.5494 39.559 27.7109 39.9977 26.9604C 40.4292 26.2221 41.0047 25.5689 41.4595 24.8422C 41.8889 24.1561 42.2439 23.4232 42.6305 22.7103C 42.7523 22.4858 42.8146 22.1377 42.9992 22.0532C 44.2998 21.4581 44.2175 20.0753 44.7467 19.055C 45.5099 17.5838 45.6369 15.7755 47.1833 14.7161C 47.4225 14.5522 47.3743 14.0135 47.5364 13.6864C 48.0521 12.6473 48.6862 11.6588 49.1131 10.5868C 49.3839 9.90662 49.3447 9.10809 49.4873 8.3709C 49.635 7.60808 49.8366 6.85578 50.0106 6.098C 50.1635 5.43221 50.2777 4.75567 50.469 4.10134C 50.7861 3.01626 51.0081 1.86917 51.5327 0.888232C 52.1754 -0.313106 53.0647 -0.237121 53.9952 0.763269C 54.7799 1.60665 55.7707 2.26374 56.5221 3.13138C 57.1873 3.89947 57.7202 4.80809 58.1793 5.72082C 58.6278 6.61272 58.9181 7.58496 59.2542 8.53042C 59.3097 8.68651 59.3081 8.92797 59.2226 9.05751C 58.7839 9.72215 58.8679 10.2964 59.3739 10.8944C 59.8573 11.4659 59.6039 11.9955 59.1829 12.5057C 58.9259 12.8169 58.6789 13.1602 58.5269 13.5299C 58.0788 14.6197 57.5787 15.7048 57.2951 16.8405C 57.0708 17.7372 57.1174 18.7053 57.0786 19.6432C 57.0323 20.7679 57.1502 21.9012 56.3765 22.8952C 56.1676 23.1637 56.2912 23.6754 56.2203 24.0682C 56.0137 25.2148 55.8693 26.382 55.5407 27.4941C 55.271 28.4069 55.2536 29.515 54.1126 30.0025C 53.9762 30.0607 54.1089 30.7093 54.0887 31.0826C 54.0099 32.5521 53.9241 34.0213 53.8264 35.4897C 53.8175 35.625 53.6155 35.7975 53.6551 35.8783C 54.3673 37.3298 53.4052 38.4153 52.9165 39.4796Z"/>
<path id="path9_fill" fill-rule="evenodd" d="M 11.3743 63.2471C 11.5864 63.5762 11.8767 63.8591 11.9576 64.1926C 12.0741 64.673 12.2504 65.3303 12.0282 65.6656C 11.3174 66.7365 10.6565 67.7357 11.2321 69.0936C 11.3348 69.3358 11.2729 69.6784 11.2062 69.9553C 11.0386 70.6508 10.7538 71.3244 10.6453 72.0268C 10.4736 73.1389 10.3711 74.2654 10.3103 75.3898C 10.2736 76.0632 10.372 76.7436 10.4098 77.421C 10.954 77.3563 11.5102 77.3405 12.0381 77.21C 12.4025 77.1198 12.7237 76.8637 13.0706 76.6951C 13.8932 76.2952 14.7191 75.9032 15.5439 75.5081C 15.5556 75.068 15.7289 74.6991 16.016 74.5522C 16.761 74.1711 17.1896 73.5957 17.5909 72.8711C 18.1169 71.9202 18.7486 70.9619 19.5512 70.2496C 20.1882 69.6841 20.5526 69.1087 20.7821 68.3299C 21.016 67.5366 21.0889 66.6365 22.2184 66.3769C 22.5803 66.2936 22.888 65.6015 23.0597 65.1296C 23.9898 62.5742 24.5158 59.8777 25.8893 57.4734C 26.2739 56.8001 26.6708 55.8572 26.4862 55.1989C 26.1851 54.1248 26.5793 53.3007 26.8542 52.3953C 27.115 51.5354 27.488 50.7021 27.6662 49.8278C 27.7423 49.4541 27.2227 48.8904 27.3649 48.6118C 27.8212 47.7176 27.228 47.5217 26.694 47.1812C 26.5488 47.4357 26.4328 47.6389 26.317 47.8421C 26.2216 47.8293 26.1262 47.8167 26.0308 47.8039C 26.0189 47.2917 25.7937 46.6232 26.0343 46.2961C 26.7864 45.2735 26.0267 45.3104 25.4119 45.2731C 23.774 45.174 22.1054 45 20.8078 46.3629C 20.7603 46.4126 20.6697 46.4279 20.5959 46.4453C 17.4331 47.1898 15.8152 49.4243 14.897 52.3149C 15.1039 52.5083 15.3022 52.6937 15.3967 52.7821C 14.6893 54.3823 14.0252 55.8416 13.3997 57.3173C 13.0833 58.0635 12.804 58.829 12.5703 59.6047C 12.4362 60.0498 12.2484 60.5989 12.3931 60.9866C 12.9108 62.3738 12.8214 62.7118 11.3743 63.2471ZM 27.227 8.13937C 27.5663 8.44034 27.8988 8.68981 28.1712 8.99352C 28.3324 9.17295 28.55 9.56729 28.4838 9.64442C 27.6411 10.6272 27.7328 12.2764 26.2511 12.8021C 26.7707 14.1207 26.0204 16.2878 24.9048 16.5531C 24.8131 17.31 24.7191 18.0829 24.6262 18.8557C 24.6129 18.9672 24.645 19.1494 24.5895 19.1803C 23.4171 19.8371 23.9677 21.3763 23.0498 22.1647C 22.9207 22.2755 22.856 22.4891 22.8127 22.6673C 22.4616 24.1095 22.1589 25.5644 21.7581 26.9923C 21.6393 27.4157 21.236 27.7533 20.9952 28.1499C 20.2401 29.3938 20.5346 30.7499 20.6426 32.0689C 20.7116 32.9113 20.4967 33.3684 19.701 33.2823C 19.4201 33.8431 19.1049 34.342 18.9164 34.8849C 18.7077 35.4857 18.0638 35.9949 18.799 36.7996C 19.2995 37.3477 18.7506 37.9877 18.0643 38.0506C 17.5802 39.4762 17.1276 40.8089 16.6665 42.1675C 17.5096 42.8392 17.8343 42.7424 18.6382 41.2523C 19.4227 39.7987 20.5738 39.0064 22.2158 38.8105C 23.028 38.7136 23.8241 38.4564 24.6177 38.2364C 26.0605 37.8366 27.2442 38.2728 28.3233 39.2435C 29.8316 40.6004 31.4358 41.8567 32.8811 43.2757C 33.4869 43.8703 33.902 44.7302 34.2049 45.5433C 34.6653 46.7802 35.0239 48.0666 35.2954 49.3593C 35.6284 50.9447 35.768 52.5706 36.1014 54.1559C 36.392 55.5367 35.9356 56.5897 34.9868 57.4821C 35.2111 58.1724 35.4766 58.8265 35.6199 59.5065C 35.682 59.8015 35.6016 60.3091 35.3991 60.4467C 34.2746 61.2113 34.6685 62.2543 34.7009 63.2803C 34.7123 63.6419 34.2377 63.9937 34.1127 64.3901C 33.8341 65.2749 33.586 66.176 33.4225 67.0875C 33.3136 67.6938 33.4424 68.3436 33.3266 68.9476C 33.2682 69.2531 32.9183 69.5154 32.6697 69.7676C 32.5232 69.9159 32.2141 69.9683 32.1558 70.1285C 31.8116 71.0724 31.5337 72.0403 31.2072 72.991C 30.4826 75.1019 29.8456 77.2578 28.0185 78.7757C 27.7585 78.9915 27.5395 79.3952 27.5138 79.7285C 27.4283 80.8401 26.7679 81.5089 25.9798 82.1861C 25.6473 82.4719 25.5409 83.0617 25.4155 83.5353C 25.2529 84.1487 25.1564 84.7536 24.2729 84.4563C 24.1458 84.4135 23.8691 84.4382 23.8597 84.478C 23.6288 85.4624 22.2456 85.1422 21.9555 86.2094C 21.8638 86.5468 20.8443 86.6433 20.242 86.8257C 20.0448 86.8855 19.7274 86.785 19.6286 86.8992C 18.1342 88.6231 16.0735 88.2889 14.4773 87.6847C 12.3925 86.8955 10.1981 86.0522 8.55603 84.3258C 7.78855 83.5188 6.75165 82.9663 5.98761 82.1568C 4.55493 80.6389 3.0374 79.1417 1.92414 77.4009C 1.01565 75.9807 0.46509 74.258 0.0977479 72.5942C -0.154026 71.4535 0.146819 70.1803 0.260782 68.9721C 0.460046 66.8589 0.858344 64.7512 0.875771 62.6388C 0.886778 61.3095 1.32176 60.2189 1.77762 59.0556C 1.99454 58.502 1.898 57.8341 2.02366 57.2349C 2.32359 55.802 2.69506 54.3839 2.98994 52.95C 3.15595 52.1435 3.18164 51.3077 3.35109 50.502C 3.66523 49.0109 4.1736 47.5476 4.34374 46.0434C 4.47834 44.854 4.64848 43.7392 5.14171 42.6291C 5.74455 41.2722 6.08002 39.7983 6.66474 38.4319C 8.04606 35.2055 8.26688 31.6644 9.47989 28.3994C 9.8149 27.4974 10.3414 26.6543 10.5837 25.7328C 10.9953 24.1676 11.1272 22.5238 11.6002 20.9815C 12.3897 18.406 13.3691 15.8891 14.2434 13.3388C 15.0815 10.895 15.8875 8.44011 16.708 5.99006C 17.092 4.84296 17.4463 3.68488 17.8691 2.5522C 18.3674 1.21812 19.5726 0.572021 20.7437 0.0337196C 21.0897 -0.125116 22.0402 0.30699 22.2449 0.707055C 22.709 1.61361 23.6329 1.7491 24.3233 2.08691C 25.6008 2.7115 26.0328 3.84715 26.6533 4.90521C 26.7805 5.12195 26.7608 5.45542 26.9259 5.61425C 27.7179 6.37731 27.8459 7.20238 27.227 8.13937Z"/>
<path id="path10_fill" fill-rule="evenodd" d="M 23.7554 29.7185C 23.619 30.5365 23.6568 31.2867 23.3635 31.8715C 22.6662 33.261 22.0785 34.6461 22.0799 36.2347C 22.0799 36.4223 21.7843 36.6102 21.6259 36.7981C 21.4895 36.96 21.2122 37.2364 21.2372 37.2673C 22.1553 38.3934 20.8621 39.3114 20.9492 40.3701C 21.0045 41.0446 21.0143 42.0338 20.6124 42.3755C 19.487 43.3326 19.2219 44.5289 18.9761 45.8479C 18.7408 47.1101 18.3067 48.3346 18.0018 49.5858C 17.9596 49.7588 18.2506 50.0023 18.2253 50.1918C 18.1655 50.6429 18.0284 51.0879 17.8823 51.5218C 17.8179 51.7127 17.6218 51.8569 17.5438 52.0461C 17.0774 53.1772 16.7649 54.3998 16.1284 55.4231C 15.6523 56.1882 15.1174 56.7609 15.337 57.7812C 15.399 58.0688 14.7195 58.5618 14.3233 58.8923C 13.4767 59.5982 13.1002 60.4436 13.2552 61.5561C 13.2997 61.877 13.185 62.2823 13.0048 62.5595C 12.546 63.2658 11.9915 63.9101 11.5219 64.6104C 11.4504 64.7171 11.623 65.1592 11.6907 65.1611C 12.8656 65.1929 12.4109 65.8841 12.1497 66.3759C 11.8225 66.9918 11.4086 67.5695 10.9748 68.119C 10.5497 68.6575 10.3786 69.3137 9.57215 69.6648C 8.38115 70.1832 7.63775 71.195 7.98583 72.7012C 8.0599 73.0225 7.72191 73.4498 7.54718 73.8156C 7.12572 74.6965 6.68867 75.5698 6.25758 76.4462C 5.98402 77.0028 5.94183 77.6615 5.76573 78.1787C 5.44608 79.1171 4.54538 79.8559 3.89783 80.6862C 3.63 81.0298 3.24684 81.3657 3.16796 81.7557C 3.02098 82.4826 2.91458 83.2736 3.0501 83.989C 3.3044 85.3337 1.99164 84.9453 1.5046 85.4465C 1.40348 85.5506 0.535798 85.0963 0.206061 84.7326C -0.0216362 84.4816 -0.0278274 83.9288 0.0322498 83.5361C 0.43972 80.8739 0.572028 78.1902 1.4138 75.5655C 1.92491 73.9707 1.72725 72.0917 1.58531 70.3621C 1.43627 68.5433 2.13839 66.9842 2.59104 65.3245C 3.10376 63.4445 3.49357 61.528 3.85999 59.6128C 4.13309 58.1856 4.22069 56.7219 4.51718 55.3007C 4.65751 54.628 5.14202 54.0346 5.38348 53.3734C 5.76275 52.335 6.04593 51.2618 6.41007 50.2175C 7.02689 48.4485 7.7524 46.7135 8.28553 44.9207C 8.70859 43.4985 8.88676 42.0054 9.22154 40.555C 9.5029 39.337 9.84639 38.1331 10.175 36.9265C 10.4988 35.7373 10.8381 34.5522 11.1727 33.366C 11.1929 33.2946 11.2254 33.2234 11.2658 33.1609C 12.4565 31.3151 12.0562 29.0866 12.7228 27.1213C 13.3423 25.2938 14.0603 23.4997 14.7243 21.687C 15.4632 19.6698 16.1153 17.6598 16.3274 15.472C 16.4691 14.0093 17.2746 12.6068 17.8112 11.1881C 18.0667 10.5127 18.3285 9.82675 18.6947 9.20903C 19.1682 8.40981 19.893 7.73511 20.2514 6.89698C 20.863 5.46746 21.2306 3.93609 21.7855 2.48002C 22.0792 1.70965 22.4933 0.966737 22.9641 0.288138C 23.3106 -0.211942 24.6456 -0.00664625 25.1049 0.48817C 26.0739 1.53159 27.1509 2.48689 28.0246 3.6024C 28.615 4.35607 28.9727 5.30451 29.3619 6.1971C 29.6581 6.87707 29.8503 7.60351 30.0697 8.31529C 30.2474 8.89227 30.6576 9.47658 29.9984 10.0506C 29.9225 10.1167 30.0926 10.5017 30.1885 10.7216C 30.9062 12.3658 30.8014 12.8053 29.49 13.9389C 29.277 14.1229 29.1488 14.4298 29.0392 14.703C 28.7753 15.3608 28.5469 16.0328 28.3009 16.6979C 28.2747 16.7684 28.2098 16.827 28.1926 16.8984C 27.8063 18.4977 27.7822 18.4716 26.3039 19.8526C 26.0927 20.0499 26.1202 20.7072 26.2734 21.0448C 26.5852 21.7326 26.4674 22.1324 25.993 22.7538C 25.4837 23.4212 25.2539 24.3714 25.1154 25.2324C 24.9301 26.3839 24.9366 27.5674 24.8863 28.7383C 24.8478 29.6331 24.2766 29.7604 23.7554 29.7185Z"/>
<path id="path11_fill" fill-rule="evenodd" d="M 0 1.8218C 1.19421 1.23178 2.38818 0.64198 3.68787 0C 3.70094 1.33408 3.28843 1.93166 2.07908 1.87627C 1.43956 1.84721 0.789488 2.04793 0.144231 2.14497C 0.096307 2.0374 0.0481535 1.9296 0 1.8218Z"/>
</defs>
</svg>
