<?xml version="1.0" encoding="UTF-8"?>
<svg width="30px" height="30px" viewBox="0 0 30 30" version="1.1" xmlns="http://www.w3.org/2000/svg" xmlns:xlink="http://www.w3.org/1999/xlink">
    <!-- Generator: Sketch 45.2 (43514) - http://www.bohemiancoding.com/sketch -->
    <title>Group 5 Copy</title>
    <desc>Created with Sketch.</desc>
    <defs></defs>
    <g id="Symbols" stroke="none" stroke-width="1" fill="none" fill-rule="evenodd">
        <g id="main-/-header-/-1" transform="translate(-1280.000000, -70.000000)">
            <g id="Group-5-Copy" transform="translate(1280.000000, 70.000000)">
                <circle id="Oval-Copy" fill="#000000" cx="15" cy="15" r="15"></circle>
                <path d="M12,12.69 L13.3878947,12.69 L13.3878947,11.3407895 C13.3878947,10.7463158 13.4028947,9.82894737 13.8347368,9.26052632 C14.2894737,8.65894737 14.9147368,8.25 15.99,8.25 C17.7410526,8.25 18.4784211,8.49947368 18.4784211,8.49947368 L18.1318421,10.5560526 C18.1318421,10.5560526 17.5523684,10.3886842 17.0131579,10.3886842 C16.4731579,10.3886842 15.99,10.5821053 15.99,11.1221053 L15.99,12.69 L18.2036842,12.69 L18.0489474,14.6992105 L15.99,14.6992105 L15.99,21.6773684 L13.3878947,21.6773684 L13.3878947,14.6992105 L12,14.6992105 L12,12.69 Z" id="Fill-4" fill="#FFFFFF"></path>
            </g>
        </g>
    </g>
</svg>