<?xml version="1.0" encoding="UTF-8"?>
<svg width="233px" height="77px" viewBox="0 0 233 77" version="1.1" xmlns="http://www.w3.org/2000/svg" xmlns:xlink="http://www.w3.org/1999/xlink">
    <!-- Generator: Sketch 45.2 (43514) - http://www.bohemiancoding.com/sketch -->
    <title>Page 1</title>
    <desc>Created with Sketch.</desc>
    <defs>
        <polygon id="path-1" points="2.68888346e-15 71.7079201 2.68888346e-15 0.370090781 38.2453042 0.370090781 38.2453042 71.7079201"></polygon>
    </defs>
    <g id="Page-1" stroke="none" stroke-width="1" fill="none" fill-rule="evenodd">
        <g id="main-copy-2" transform="translate(-1200.000000, -215.000000)">
            <g id="Page-1" transform="translate(1200.000000, 215.000000)">
                <path d="M220.276328,55.7094948 C221.409734,56.0492382 222.289725,55.8932904 223.134907,55.5096867 C223.277627,55.4449405 223.347246,55.2179808 223.450283,55.065514 C223.265095,54.9903249 223.052059,54.8148836 222.900289,54.8573515 C222.077386,55.0919694 221.270495,55.3801943 220.276328,55.7094948 L220.276328,55.7094948 Z M209.639157,57.3650477 L209.570233,57.0190386 C208.801634,57.0190386 208.032338,56.9974565 207.264434,57.0287853 C206.912159,57.0434054 206.55153,57.2348592 206.699819,57.6483993 C206.774312,57.8565618 207.176017,58.1266856 207.362597,58.0828253 C208.135374,57.9032069 208.883088,57.6142857 209.639157,57.3650477 L209.639157,57.3650477 Z M218.280335,13.2554928 C218.253184,13.252708 218.226728,13.2499233 218.199577,13.2471385 C218.199577,12.8684081 218.226032,12.4875892 218.193311,12.1116436 C218.150147,11.6069019 217.946858,11.2107666 217.363446,11.1543748 C216.792566,11.0986791 216.294786,11.2588041 216.141623,11.8380388 C216.009346,12.3379071 215.890296,12.9192304 216.022573,13.3919471 C216.227951,14.1257372 216.628263,14.8107936 216.999336,15.4874956 C217.103069,15.6768608 217.425407,15.8975548 217.591798,15.8599602 C217.777682,15.8174923 217.994895,15.5153434 218.035275,15.2967381 C218.159197,14.6242132 218.20445,13.9370682 218.280335,13.2554928 L218.280335,13.2554928 Z M217.511736,22.8072952 C217.43585,22.2092632 217.407306,21.5624976 216.768895,21.3968031 C216.075484,21.2178808 215.323593,21.2039569 214.600246,21.2234504 C214.071137,21.2380705 213.802406,21.6258514 213.777343,22.1751497 C213.696584,23.9065879 213.596332,25.6366337 213.514181,27.3680719 C213.465447,28.3977451 213.585193,28.5557815 214.596069,28.8990059 C214.785434,28.963752 214.973407,29.0340678 215.167645,29.0807129 C215.944599,29.2679895 216.298963,29.1280542 216.46048,28.3643277 C216.851742,26.520802 217.166423,24.6605676 217.511736,22.8072952 L217.511736,22.8072952 Z M218.24831,50.0856275 C218.281032,50.0821465 218.313753,50.0779694 218.345778,50.0744884 C218.345778,49.8517058 218.339512,49.6282271 218.34717,49.4061407 C218.411916,47.4581857 217.937807,47.3572373 216.388772,47.5215395 C214.677524,47.7025503 214.612081,47.6280574 214.48607,49.332344 C214.376767,50.8089746 214.371198,52.2981368 214.417147,53.7782485 C214.440817,54.5503293 214.797269,54.8308961 215.547768,54.7577956 C216.406177,54.6749483 217.264586,54.5127347 218.095844,54.2871674 C218.333942,54.2224212 218.587358,53.8409061 218.641661,53.5659089 C218.711977,53.2136339 218.592927,52.8223721 218.546978,52.4485151 C218.450207,51.6611179 218.347866,50.8737208 218.24831,50.0856275 L218.24831,50.0856275 Z M215.764981,42.135771 C216.28295,42.0981765 216.761237,42.1155814 217.208891,42.0076711 C217.439331,41.9526716 217.767239,41.6915983 217.791606,41.4917902 C217.946858,40.2184486 218.045021,38.9367527 218.130653,37.6550567 C218.16964,37.0639868 218.129957,36.4673472 218.142489,35.8734924 C218.151539,35.4509018 218.196096,35.0290073 218.21002,34.6071128 C218.228121,34.0355363 217.936415,33.6345277 217.398256,33.5356679 C216.635225,33.3964288 215.856183,33.2933919 215.082709,33.2857337 C214.349616,33.2787718 213.998037,33.6289581 214.004303,34.3683178 C214.025188,36.6358265 214.100378,38.9033353 214.158162,41.1701479 C214.172782,41.7243195 214.44221,42.0383037 215.020052,42.0598857 C215.285302,42.0703286 215.54916,42.1134928 215.764981,42.135771 L215.764981,42.135771 Z M221.761313,50.8249871 C221.726503,50.8263795 221.691693,50.8270757 221.656884,50.8277719 C221.690997,51.3380832 221.720237,51.8483945 221.761313,52.3587058 C221.830236,53.2087606 222.166499,53.4440746 222.990098,53.2484437 C223.575598,53.1092046 223.842241,52.7061074 223.892367,52.1484548 C224.061543,50.2889166 224.318439,48.4300746 224.354641,46.5670554 C224.427742,42.8410171 224.369261,39.1121939 224.381793,35.3847632 C224.384578,34.4504688 224.447235,33.5161745 224.485526,32.5818801 C224.555842,30.8692391 224.680461,29.1565982 224.685334,27.4439573 C224.690207,25.7758728 224.553753,24.1077884 224.516159,22.4390078 C224.484134,20.9944021 223.983569,20.474344 222.531305,20.4736478 C221.711883,20.4736478 221.394418,20.6964304 221.309482,21.4719922 C221.181382,22.6422968 221.033092,23.8181711 221.0317,24.9919567 C221.028915,27.8011055 221.09575,30.6095582 221.154927,33.4180109 C221.181382,34.6635047 221.242647,35.9089984 221.315748,37.1530998 C221.453595,39.5062406 221.665934,41.8572928 221.7453,44.211826 C221.819097,46.4138924 221.761313,48.6208322 221.761313,50.8249871 L221.761313,50.8249871 Z M219.694308,21.6718003 C218.788558,21.6718003 218.821975,22.2614779 218.748179,22.7119164 C218.372233,25.0184121 218.025528,27.329085 217.66281,29.6376693 C217.499204,30.6777854 217.125347,30.9493016 216.100547,30.6951903 C215.021444,30.427155 213.957657,30.0985507 212.885516,29.8019714 C212.389129,29.6641247 212.123879,29.3752036 212.178182,28.8328673 C212.209511,28.5230603 212.202549,28.2090761 212.222738,27.8985729 C212.316028,26.4323852 212.429508,24.9675898 212.499128,23.5007059 C212.520014,23.0614065 212.449002,22.610968 212.36337,22.1772382 C212.332041,22.0192019 212.135018,21.8938867 212.013183,21.7539514 C211.882995,21.8723046 211.697807,21.9676834 211.633757,22.1152768 C211.511226,22.3986284 211.429075,22.7063468 211.378949,23.0119767 C210.655602,27.4613621 210.608957,31.9378992 211.149901,36.3942467 C211.756287,41.3978038 211.879514,46.4243353 212.170524,51.4432088 C212.224827,52.3768069 212.229004,53.3145823 212.32856,54.2426109 C212.358496,54.5238739 212.577798,54.9074776 212.810327,55.0056412 C212.993427,55.0822227 213.404182,54.8524781 213.576839,54.6457081 C213.708419,54.4869755 213.646458,54.1493207 213.636711,53.8931207 C213.594243,52.8112329 213.502346,51.7293451 213.499561,50.6474573 C213.497472,49.7855673 213.665255,48.9208924 213.639496,48.0603948 C213.596332,46.6276244 213.9681,46.1402876 215.417579,46.1521229 C216.528011,46.1611734 217.637747,46.291362 218.748179,46.3630701 C219.442286,46.4076267 219.711713,46.8316097 219.746523,47.4651476 C219.773675,47.9545731 219.757662,48.4488719 219.823105,48.9327278 C219.856522,49.179181 220.027786,49.4075331 220.137089,49.6442396 C220.25405,49.4026597 220.373099,49.1624723 220.485883,48.9195 C220.503288,48.8819055 220.49006,48.8310832 220.49006,48.7865267 C220.464997,46.2509827 220.482402,43.7147424 220.398162,41.181287 C220.348036,39.6719351 220.148228,38.1667604 219.985318,36.6636743 C219.967217,36.5007646 219.747219,36.3601331 219.620512,36.2090587 C219.532095,36.3684874 219.422792,36.5209543 219.361527,36.690826 C219.327413,36.7862048 219.38659,36.9108237 219.379628,37.0208226 C219.259186,38.8838418 219.141529,40.746861 219.008556,42.6084878 C218.975835,43.0658882 218.710584,43.3513284 218.23926,43.3833534 C217.151802,43.4571501 216.062953,43.5497441 214.974103,43.567149 C214.518791,43.5741109 214.053036,43.4369604 213.606079,43.3158224 C213.035895,43.1619632 212.815201,42.7804481 212.833998,42.1657074 C212.867415,41.0524908 212.845833,39.9357932 212.7971,38.8225766 C212.723999,37.1558846 212.571532,35.4926735 212.521406,33.8252853 C212.4859,32.6250442 213.134058,31.9880253 214.331514,32.0033416 C215.466313,32.0172655 216.599719,32.1077709 217.733822,32.1739095 C218.387549,32.2128965 219.039885,32.2706807 219.694308,32.3201106 L219.694308,21.6718003 Z M202.120245,7.17144029 C202.119549,7.14637726 202.118157,7.12201041 202.117461,7.09694737 C201.53753,7.09694737 200.956206,7.07188434 200.378364,7.10460553 C199.852737,7.13384574 199.551284,7.45270328 199.583309,7.98390045 C199.61603,8.51370523 199.695396,9.04351001 199.788687,9.56704903 C199.898685,10.1873592 200.315707,10.5465961 200.91165,10.6538102 C201.433797,10.7484928 201.971259,10.8264667 202.498976,10.809758 C205.280973,10.720645 208.06297,10.6127347 210.843575,10.4839385 C212.265206,10.4184961 213.689622,10.3405222 215.104988,10.1908402 C218.576915,9.82394517 222.048145,9.44103765 225.512414,9.00382687 C227.051703,8.80958832 228.583333,8.51300904 230.094077,8.16003791 C230.427555,8.08206402 230.824386,7.60029673 230.890525,7.2473256 C230.95179,6.92429089 230.676096,6.4578399 230.414327,6.18214648 C230.244455,6.00322423 229.831611,5.99904706 229.530855,6.0087938 C225.90298,6.12923562 222.273713,6.23505734 218.647927,6.40841002 C215.402959,6.56366162 212.163562,6.82821591 208.919291,6.98694848 C206.655263,7.09833977 204.387058,7.11365607 202.120245,7.17144029 L202.120245,7.17144029 Z M228.559662,38.204355 C228.524156,37.6634111 228.492131,37.1524036 228.456625,36.6420923 C228.143337,32.1154291 227.846758,27.5880697 227.506318,23.0634951 C227.391446,21.5332574 227.192334,20.007893 226.977906,18.4880983 C226.815692,17.3372871 226.562277,17.1799469 225.428175,17.2934268 C225.029951,17.3331099 224.629638,17.3526034 224.231415,17.3936789 C222.770796,17.5440571 221.309482,17.6909544 219.850952,17.8587375 C219.32811,17.9193065 219.102542,18.2980369 219.227857,18.8222721 C219.346907,19.3207481 219.680385,19.2657486 220.063292,19.1675851 C220.471959,19.0631557 220.890372,18.9810047 221.309482,18.9371444 C222.32732,18.8313226 223.355601,18.8020824 224.366477,18.6524004 C226.011586,18.4080358 226.320697,18.6496156 226.317216,20.3518136 C226.31652,20.5307359 226.312343,20.7089619 226.308862,20.8878842 C226.266394,23.2236201 226.221141,25.5600522 226.182851,27.8964843 C226.166838,28.8753352 226.314432,29.8827301 226.131332,30.8274674 C225.520769,33.9735749 225.765829,37.1280367 225.811778,40.2894605 C225.856335,43.3394931 225.775576,46.3916142 225.723362,49.4423429 C225.702476,50.6516345 225.274315,51.8797233 225.877917,53.0521166 C226.186332,53.6515409 226.116016,54.1876114 225.829183,54.7710233 C225.636337,55.1629813 225.507541,55.6050655 225.446276,56.0387953 C225.223493,57.6170705 225.812475,59.0707267 226.25804,60.5320411 C226.326267,60.7555198 226.86373,60.9741252 227.172841,60.9595051 C227.869036,60.9253916 228.162831,60.4749531 228.267956,59.677113 C228.566624,57.3956803 228.556181,55.1239944 228.439916,52.8188911 C228.253336,49.1227891 228.326437,45.4127633 228.334095,41.7090032 C228.336879,40.5317366 228.481688,39.35447 228.559662,38.204355 L228.559662,38.204355 Z M211.185407,17.7932951 C211.185407,17.8037381 211.185407,17.8134848 211.185407,17.8239277 C210.76212,17.8239277 210.32839,17.7633587 209.916939,17.8336745 C207.87639,18.1831646 205.839322,18.5528444 203.806431,18.9461949 C203.086565,19.085434 202.71967,19.5894795 202.741252,20.3559908 C202.773277,21.4907895 202.808783,22.6269805 202.907642,23.7569058 C203.099792,25.9568836 203.347638,28.15895 202.899288,30.3498773 C202.145308,34.0362325 202.078474,37.7337268 202.622898,41.4465375 C202.998844,44.0120179 203.179855,46.5774984 202.938971,49.1715228 C202.817833,50.4748008 202.716189,51.7996609 202.810175,53.1008503 C203.004414,55.7846839 203.338587,58.4587709 203.607319,61.1377312 C203.665799,61.7134849 203.667192,62.2955043 203.739596,62.8691694 C203.809912,63.4184677 204.30073,63.7665654 204.904331,63.736629 C205.44249,63.7094774 205.456414,63.2604313 205.477996,62.9039792 C205.50654,62.4222119 205.542046,61.90285 205.400022,61.4551963 C204.669017,59.1493968 204.913382,56.8422049 205.266353,54.5217853 C205.43344,53.423885 205.692424,52.3099722 205.645779,51.2148566 C205.513502,48.1488116 205.239897,45.0883362 205.028254,42.0257721 C204.837496,39.2723189 204.547879,36.5202581 204.497753,33.7633239 C204.442057,30.6896207 204.620283,27.6117404 204.671106,24.5352524 C204.691295,23.2960244 204.499145,22.0916062 203.814785,21.0131994 C203.562762,20.6156717 203.663015,20.2522577 204.0682,20.0663735 C204.285413,19.9668175 204.585474,20.0239055 204.845155,20.04688 C205.970903,20.1450436 207.105005,20.4040283 208.218918,20.3344087 C210.946612,20.1638408 213.643673,19.5665051 216.402696,19.7885915 C217.197055,19.8519453 217.56952,19.4857464 217.592494,18.7811966 C217.615469,18.0912668 217.26946,17.7974723 216.401304,17.7953837 C214.662904,17.7905104 212.924503,17.7932951 211.185407,17.7932951 L211.185407,17.7932951 Z M207.728796,21.5840797 C206.109446,21.6042693 205.881093,21.8402796 205.871347,23.4596304 C205.859511,25.5113185 205.830967,27.5623105 205.814955,29.6133024 C205.805208,30.8852516 205.786411,32.157897 205.8066,33.42915 C205.839322,35.5414072 205.668058,37.6905627 205.994573,39.7589596 C206.740199,44.4889118 207.109878,49.2119022 206.697035,53.9891957 C206.657351,54.4465962 206.702604,55.0202613 207.269307,55.1441841 C208.087337,55.3238025 208.935303,55.4901932 209.763776,55.4630416 C210.738449,55.4310166 211.008573,54.997983 210.97446,54.0003348 C210.859587,50.6189133 210.752373,47.2374917 210.629147,43.8567663 C210.580413,42.5228557 210.668134,41.1534392 210.394529,39.8640851 C209.647511,36.3462092 209.669789,32.780992 209.597385,29.2276101 C209.558398,27.3235154 209.8508,25.4110664 210.024849,23.5055793 C210.148076,22.1612257 209.914154,21.8263557 208.592775,21.6571802 C208.305942,21.6202818 208.016325,21.6077503 207.728796,21.5840797 L207.728796,21.5840797 Z M229.876864,48.8039316 C229.876864,49.3852548 229.870598,49.9658819 229.878256,50.5465089 C229.911674,52.9755351 229.981989,55.4045612 229.97085,57.8335873 C229.965281,59.0505371 229.817687,60.2674868 229.728574,61.4837403 C229.69098,62.0003174 229.409021,62.2732261 228.891051,62.3491114 C228.083464,62.4660722 227.278662,62.6032227 226.475253,62.7508162 C225.646084,62.9025868 225.160139,62.6589184 224.919256,61.8394963 C224.657486,60.951847 224.42983,60.05097 224.253693,59.1431311 C224.014202,57.907384 223.459334,56.9424571 221.891501,57.1248603 C219.843294,57.3629591 217.788125,57.5363118 215.737133,57.7479553 C214.43664,57.882321 213.136147,58.0229525 211.838438,58.1830775 C210.223961,58.3828856 208.756381,59.0157273 207.368863,59.8233141 C206.844628,60.1289439 206.613491,60.6392552 206.750642,61.3096915 C206.874564,61.9139892 206.902412,62.5419575 206.93026,63.1615715 C206.999183,64.6806701 206.515328,65.2835754 204.879964,65.3900933 C203.075426,65.5077504 202.24556,65.0287679 202.118853,63.091952 C201.950374,60.5007123 201.775629,57.9094726 201.573036,55.3210177 C201.511074,54.5273548 201.261836,53.7427425 201.254874,52.9525606 C201.24652,51.960482 201.346076,50.9586567 201.492277,49.9742362 C201.912083,47.1497711 201.850121,44.3413184 201.272975,41.5502706 C200.685386,38.7077044 200.743867,35.8672267 201.142091,33.0114327 C201.408733,31.1017684 201.760312,29.1872308 201.804173,27.2692122 C201.843856,25.5071414 201.51177,23.7374124 201.365569,21.9690758 C201.282722,20.9721238 201.24095,19.9709947 201.185255,18.9712579 C201.159495,18.5068955 201.353038,18.2186706 201.835501,18.1218994 C204.006935,17.686081 206.164445,17.1604534 208.350499,16.8221024 C209.837572,16.5916617 211.363633,16.6139399 212.872985,16.5297003 C213.834431,16.4760932 214.202718,16.208058 214.396957,15.278637 C214.541069,14.5859224 214.653157,13.8806764 214.699802,13.1754303 C214.768029,12.148542 214.287654,11.5874084 213.186969,11.5915856 C211.163825,11.5999399 209.139288,11.6911415 207.118929,11.8053176 C205.482173,11.8979116 203.850987,12.14158 202.214232,12.1875289 C201.318924,12.2132882 200.417351,11.9508224 199.515082,11.8512665 C198.987366,11.7934823 198.724204,11.4774095 198.585661,11.0241862 C198.371232,10.3259021 198.124779,9.62970663 198.001553,8.91332145 C197.902693,8.33617538 197.975793,7.73048529 197.952819,7.13802291 C197.920098,6.27265189 197.865098,5.40728088 197.829592,4.54190987 C197.817061,4.23558384 197.770416,3.81995513 198.204842,3.84084099 C198.41927,3.85198012 198.714457,4.14647082 198.807747,4.37900012 C199.357742,5.74423951 199.430146,5.79854275 200.910954,5.81525145 C203.183336,5.84031449 205.474515,6.08746389 207.723227,5.87512426 C210.784398,5.58620313 213.843481,5.48595097 216.908134,5.37107871 C218.950772,5.29449721 220.989232,5.11487877 223.029085,4.98120923 C225.575768,4.8148185 228.121755,4.64773158 230.667742,4.48203705 C231.360457,4.43678434 231.938299,4.94431087 232.114436,5.78253026 C232.265511,6.49821924 232.409623,7.21599681 232.515445,7.93934394 C232.603862,8.54085686 232.378294,9.01705458 231.742668,9.14515456 C230.117051,9.47306264 228.493523,9.83160332 226.853287,10.0592593 C224.986787,10.3189402 223.100097,10.435901 221.225939,10.6419749 C220.116899,10.7645053 219.772979,11.1202612 219.706144,12.2773381 C219.651841,13.234607 219.673423,14.1974453 219.700574,15.1574989 C219.718675,15.7993912 220.107152,16.2393868 220.811006,16.240083 C222.02169,16.2421715 223.235159,16.1454004 224.443058,16.0451482 C225.170582,15.9845792 225.887664,15.8154037 226.614492,15.7360374 C227.505622,15.6378738 227.985997,15.980402 228.115489,16.8513426 C228.277703,17.945762 228.388398,19.0485356 228.499789,20.1499169 C228.742761,22.5559686 229.037252,24.9592355 229.190415,27.3715529 C229.390919,30.5239262 229.482817,33.6832614 229.60674,36.840508 C229.669398,38.4431501 229.723005,40.0464883 229.737625,41.6498266 C229.759207,44.0342962 229.743194,46.419462 229.743194,48.8039316 C229.787751,48.8039316 229.832307,48.8039316 229.876864,48.8039316 L229.876864,48.8039316 Z" id="Fill-1" fill="#000000"></path>
                <path d="M172.020441,65.1242163 C171.677217,64.6598539 171.432156,64.2873893 171.135577,63.9629622 C171.079881,63.9023932 170.685138,64.0068225 170.672607,64.0757458 C170.597418,64.4899822 171.350005,65.1750385 172.020441,65.1242163 M163.997484,11.0785591 C163.968244,10.6956516 164.008624,10.2145805 163.335402,10.2104033 C162.652435,10.2069223 162.149085,10.7416005 162.130288,11.5255166 C162.115668,12.1708898 162.429652,12.5816452 162.95528,12.6032273 C163.660526,12.6331637 163.965459,12.203611 163.997484,11.0785591 M163.54078,20.2460615 C163.187113,20.0831518 163.02838,19.9494822 162.868255,19.9466975 C161.544091,19.9285964 160.218535,19.9334697 158.893675,19.9369507 C158.808043,19.9369507 158.715449,19.9703681 158.638868,20.0121398 C158.297732,20.1973278 158.277542,20.6066908 158.613108,20.7974484 C158.802474,20.9053587 159.020383,20.9854212 159.234811,21.0264967 C160.463596,21.259026 161.676369,21.1176983 162.866863,20.7946636 C163.080595,20.7368794 163.244201,20.4952995 163.54078,20.2460615 M160.268661,26.5354917 C160.263788,26.4944162 160.258218,26.4540369 160.252649,26.4136575 C159.376139,26.5062515 158.489882,26.5487194 157.63008,26.7241607 C157.392678,26.7721982 157.105845,27.202447 157.07382,27.4844062 C157.027175,27.8951616 157.345336,28.1694626 157.796471,28.1764245 C158.017165,28.1792093 158.243429,28.1722474 158.457857,28.1276909 C159.517466,27.9056045 160.572899,27.6640246 161.632508,27.4426345 C162.007758,27.3639644 162.269527,27.2080166 162.185287,26.7777678 C162.096174,26.3203673 161.764089,26.2591021 161.372131,26.3301141 C161.003844,26.3969488 160.636252,26.4665684 160.268661,26.5354917 M172.003037,21.3648477 C172.003037,21.3335189 172.003037,21.3014939 172.003037,21.2694689 C172.846129,21.2694689 173.689918,21.2847852 174.532315,21.2645956 C175.158195,21.2499754 175.217371,20.7723853 175.18465,20.3122001 C175.152625,19.8582806 175.126866,19.211515 174.498897,19.300628 C173.053596,19.5053095 171.620825,19.8206861 170.201979,20.165999 C170.017487,20.2112518 169.866413,20.6965 169.852489,20.984725 C169.846919,21.1016858 170.241662,21.3223798 170.47071,21.348139 C170.976148,21.4038347 171.492029,21.3648477 172.003037,21.3648477 M172.959609,9.90616586 C172.958217,9.91939358 172.956128,9.93262129 172.954736,9.9465452 C172.887901,9.9465452 172.821066,9.94515281 172.754231,9.9465452 C172.209807,9.95559574 171.628483,9.977874 171.391777,10.5605896 C171.0764,11.3368476 170.916972,12.1597507 171.500383,12.8963256 C171.626395,13.0557543 171.933417,13.1831581 172.132529,13.1546141 C173.186569,13.0063245 174.242001,12.8413261 175.278636,12.6032273 C175.868314,12.4681653 176.100843,11.9056394 176.060464,11.1481786 C176.028439,10.5459695 175.670594,10.2772381 175.133828,10.1957832 C174.411177,10.0857843 173.684349,10.0015446 172.959609,9.90616586 M159.128989,44.4722728 C159.13247,44.5558162 159.135255,44.6400559 159.13804,44.7235993 C161.844848,45.0800514 164.549567,45.4483389 167.258464,45.7846013 C167.881559,45.8625752 168.529021,45.8291578 168.998953,45.3153655 C169.369329,44.9101797 169.750148,44.9296732 170.19989,45.14619 C170.597418,45.3376438 171.004692,45.5471986 171.430764,45.6258687 C171.639622,45.6648557 172.090061,45.4351112 172.097719,45.3077074 C172.113732,45.0257482 171.970315,44.6922705 171.791393,44.4569565 C171.682787,44.3149326 171.388992,44.287781 171.172475,44.2585407 C168.14124,43.8561397 165.100954,43.6793061 162.052314,43.9967712 C161.072071,44.0984158 160.102967,44.3107554 159.128989,44.4722728 M166.961189,29.2429961 C169.179268,29.2429961 171.265765,29.2826792 173.346694,29.2019205 C173.678083,29.189389 174.149407,28.6923054 174.276811,28.3226256 C174.606112,27.3688378 173.916878,26.5347955 172.827332,26.5159983 C171.536586,26.49372 170.245143,26.5410613 168.954396,26.5675167 C168.285353,26.5814406 167.816813,26.8835895 167.59403,27.5421904 C167.424159,28.0448436 167.225047,28.53775 166.961189,29.2429961 M172.305882,47.0913603 C171.285259,47.0036396 170.749885,47.3204086 170.646151,48.0388823 C170.592544,48.4106507 170.595329,48.7921659 170.591848,49.1702 C170.565393,52.4193445 170.54938,55.6677927 168.946042,58.6447247 C168.696108,59.1083909 169.000345,59.8533201 169.545466,60.1958483 C169.966665,60.4597064 170.427546,60.547427 170.720644,60.0663559 C171.471839,58.8333937 172.239743,57.599039 172.248794,56.0750671 C172.259933,54.2259718 172.290565,52.3775727 172.304489,50.5284775 C172.312844,49.3964636 172.305882,48.2630573 172.305882,47.0913603 M169.680528,62.6109505 C169.430594,62.2189924 169.316418,61.9405142 169.118699,61.7455795 C167.373336,60.0224956 165.595253,58.3314367 163.861726,56.5965175 C161.928391,54.661094 159.804299,52.9916172 157.369007,51.7328957 C156.557939,51.313786 155.752441,50.8800562 154.915614,50.5187307 C154.720679,50.4344911 154.40948,50.6175905 154.151191,50.6774633 C154.23752,50.8988535 154.261886,51.1940404 154.421315,51.3284061 C155.066688,51.8735272 155.725986,52.4109901 156.430535,52.8760487 C160.700999,55.6942481 164.677667,58.8730768 168.314593,62.4744962 C168.498388,62.6568994 168.738576,62.8483532 168.976675,62.8880363 C169.169521,62.9207575 169.399265,62.7313923 169.680528,62.6109505 M155.019347,71.2576987 C155.241434,71.2047878 155.423141,71.1873829 155.583962,71.1184596 C157.218629,70.4222641 158.943105,69.8743582 160.459419,68.9769622 C162.655916,67.676469 164.711781,66.1364845 166.798975,64.6584615 C167.099732,64.4454257 167.493082,63.8759377 167.401184,63.6921421 C167.175617,63.2403112 166.748153,62.7940499 166.292145,62.5872798 C166.012274,62.4605723 165.47133,62.6951902 165.148296,62.9151879 C163.82622,63.8181535 162.559841,64.8025739 161.239854,65.7076281 C160.289547,66.3599633 159.316962,66.9907164 158.300517,67.5295717 C157.004201,68.2160205 155.640354,68.7736731 154.332202,69.439236 C153.511388,69.8576495 153.519046,70.5301744 154.31062,71.0014987 C154.532706,71.1337759 154.804223,71.1825096 155.019347,71.2576987 M169.232178,50.6287296 C169.185533,50.0446216 169.115218,49.0671631 169.026801,48.0917932 C168.975282,47.5223053 168.664083,47.2535738 168.070924,47.1895238 C166.566446,47.0287027 165.056398,46.8727549 163.57002,46.5984538 C161.809342,46.2740267 160.056322,46.0428898 158.262922,46.20023 C157.482487,46.2684572 156.855911,46.5831375 156.385979,47.2069287 C155.398774,48.518561 155.437761,48.735774 156.803,49.6505749 C158.448806,50.7526524 160.170498,51.7593511 161.716748,52.9867438 C163.387617,54.3129963 164.887918,55.8536769 166.473852,57.2878397 C167.441564,58.1629574 167.898268,58.0362498 168.322947,56.8116419 C168.337567,56.7698702 168.343833,56.7246175 168.357757,56.6821496 C168.969713,54.8455858 169.192495,52.9491493 169.232178,50.6287296 M169.904007,11.9021584 C169.884514,11.6313383 169.942298,11.1969123 169.80097,10.8418526 C169.683313,10.5424886 169.333127,10.1240751 169.086674,10.1247713 C168.114785,10.1289484 167.133149,10.223631 166.173792,10.3921103 C165.638417,10.4860967 165.430255,10.9441934 165.653734,11.4795677 C165.789492,11.8060834 166.063096,12.0873464 166.14664,12.420824 C166.226702,12.7445549 166.285183,13.2541701 166.106261,13.4303075 C165.424685,14.0986552 165.327218,14.8874447 165.344623,15.7611701 C165.359939,16.5151498 165.346015,17.2733067 165.281965,18.0245017 C165.187979,19.1335411 164.99374,20.2307452 165.350888,21.3383923 C165.421204,21.5549091 165.277788,21.9113612 165.121144,22.117435 C164.596213,22.80458 164.419379,23.584319 164.323304,24.417665 C164.170837,25.7439174 163.971725,27.0646003 163.78236,28.3866756 C163.764955,28.5105984 163.709956,28.6581918 163.621539,28.7382543 C162.942052,29.3536911 162.663574,30.1710247 162.438703,31.0175984 C161.289284,35.3451497 159.24595,39.2334016 156.484839,42.7255182 C155.162763,44.3977798 153.558033,45.8444741 152.190009,47.4833183 C150.212813,49.8517754 148.064354,52.0239054 145.687543,53.9941387 C144.148254,55.2702651 144.453884,55.4102004 145.484253,56.6034795 C145.498874,56.6201882 145.511405,56.6382892 145.526025,56.6549979 C146.051653,57.2829663 146.293929,57.3142951 146.886391,56.7914523 C149.854969,54.1744533 152.01596,50.8737904 154.385809,47.7638851 C156.395029,45.1280889 158.158493,42.3057123 160.054929,39.5821955 C160.523469,38.9096707 161.202259,38.365942 161.588648,37.6558226 C164.538428,32.2317634 166.782963,26.5146059 168.433642,20.5704886 C169.207812,17.7815294 169.856666,14.9556719 169.904007,11.9021584 M169.049775,64.9362435 C167.518841,65.9394612 166.13202,66.8654012 164.727097,67.7627972 C163.530337,68.5272199 162.348893,69.3278447 161.094349,69.9871419 C159.48753,70.8323232 157.85704,71.668454 156.158323,72.2971186 C154.018218,73.0886929 152.835382,71.8800975 151.802228,70.1215076 C151.557863,69.7058789 151.780646,69.3598697 152.215072,69.1551883 C153.217593,68.6824715 154.198533,68.1589325 155.219155,67.7293799 C158.584564,66.3133182 161.472383,64.1780866 164.21052,61.8172876 C164.927602,61.199066 164.970766,60.924765 164.232102,60.3162901 C162.383703,58.7923181 160.500494,57.3052445 158.562982,55.896841 C157.089136,54.8253961 155.517127,53.888317 153.976446,52.9108585 C152.852787,52.1979543 151.973492,52.3720032 151.558559,53.6049654 C151.019008,55.2117847 149.912753,56.2539893 148.648462,57.228663 C148.067139,57.6763167 147.524106,58.1727041 146.964365,58.6482057 C146.366333,59.1557322 145.929819,59.1675675 145.398621,58.5911176 C144.478251,57.5941657 143.594779,56.5631001 142.696687,55.5452623 C142.372956,55.1790635 142.471816,54.8441934 142.804597,54.5629304 C143.756296,53.7595208 144.6523,52.8656058 145.69172,52.1951695 C147.448221,51.0631556 148.797448,49.5357027 150.161295,48.0061612 C151.864885,46.0951045 153.639488,44.2418321 155.261623,42.2639406 C157.966343,38.9660625 159.977652,35.271353 161.150741,31.1498756 C161.283018,30.6855131 161.345676,30.1960877 161.395802,29.7136242 C161.454282,29.1517944 161.131944,28.9311005 160.611886,29.0153401 C159.848159,29.1392629 159.093483,29.374577 158.326276,29.4163487 C157.662105,29.4532471 156.96034,29.3697036 156.326802,29.1733765 C156.032312,29.0821749 155.757314,28.6289516 155.653581,28.2857272 C155.483013,27.7211127 155.441938,27.1140302 155.377888,26.5208716 C155.326369,26.0488511 155.588139,25.7299935 156.029527,25.6457539 C156.723634,25.5134767 157.431665,25.4536039 158.132037,25.3519594 C159.468036,25.158417 160.811694,25.0038616 162.134465,24.7434845 C162.937875,24.5847519 163.475338,23.3859033 163.068063,22.7001507 C162.930217,22.4690138 162.484652,22.3179394 162.175541,22.3109774 C161.399979,22.2935725 160.612582,22.4773681 159.848855,22.398698 C159.047534,22.3158508 158.232986,22.1069921 157.488753,21.7992737 C156.605281,21.4330749 156.117247,20.1806191 156.493889,19.2999318 C156.615723,19.0144917 157.078693,18.745064 157.41426,18.7039885 C158.714057,18.5452559 160.024993,18.4839907 161.331056,18.3809538 C161.817696,18.3433592 162.305729,18.314119 162.787497,18.2431071 C163.586033,18.1268424 163.918814,17.7606436 163.940396,16.9621073 C163.957801,16.3153417 163.949447,15.6664875 163.915333,15.0211143 C163.886093,14.4746008 163.657045,14.1090981 163.020722,14.0735922 C162.538259,14.0464405 162.047441,13.9503656 161.587256,13.8020759 C160.897326,13.5799896 160.552709,12.9958815 160.597266,12.3163947 C160.651569,11.4962764 160.70448,10.6754619 160.72815,9.8539512 C160.75391,8.95377041 160.939098,8.72402589 161.815608,8.74003839 C162.860597,8.75953186 163.905587,8.88066988 164.947791,8.85491065 C166.703596,8.81105033 168.466363,8.76649382 170.208941,8.57225527 C171.761457,8.39890259 173.264543,8.5994069 174.78016,8.81174653 C175.438065,8.90364433 176.089704,9.04288344 176.749001,9.12433831 C177.333109,9.19604645 177.608107,9.58034637 177.568423,10.07743 C177.486272,11.0910906 177.364438,12.1124094 177.121466,13.0961337 C177.046277,13.3989787 176.554067,13.7303678 176.199703,13.8090379 C174.926361,14.0930856 173.630045,14.2754889 172.342084,14.4927019 C171.409878,14.650042 170.897478,15.1882012 170.755454,16.1224955 C170.696278,16.515846 170.552861,16.8959687 170.495773,17.2893192 C170.386471,18.0502609 170.551469,18.2709549 171.329815,18.2361451 C172.303097,18.1915886 173.272897,18.0593114 174.243394,17.9576669 C174.463391,17.9346924 174.679212,17.8769082 174.897817,17.8414022 C175.639266,17.7223528 176.129387,18.007793 176.221285,18.7513298 C176.338246,19.6981557 176.375841,20.6575131 176.389068,21.6126933 C176.397423,22.2114214 175.965781,22.6096453 175.316927,22.658379 C174.828894,22.6952773 174.323456,22.7321757 173.847955,22.6472398 C172.610119,22.4251535 171.418929,22.6402779 170.235396,22.9417305 C169.950652,23.0141349 169.603251,23.174956 169.464012,23.4033081 C169.239837,23.7722918 169.021231,24.2561476 169.086674,24.6425362 C169.120787,24.8430405 169.763376,25.04076 170.142106,25.0651268 C171.540763,25.1535437 172.943597,25.1730371 174.345734,25.2092393 C174.915222,25.2238594 175.201359,25.5698686 175.301611,26.062775 C175.5049,27.0604231 175.69705,28.0629447 175.832808,29.071732 C175.930972,29.8006487 175.565469,30.2601377 174.842818,30.4112121 C174.432063,30.4968442 174.009472,30.5525398 173.590362,30.5678561 C171.721077,30.6339947 169.851096,30.6820322 167.981115,30.7328544 C166.941695,30.7613985 166.205817,31.1366478 165.749808,32.1760677 C164.298241,35.4829964 162.569587,38.6353696 160.201827,41.3971772 C160.101574,41.5148343 159.983221,41.6408456 159.94493,41.7828695 C159.892019,41.9819814 159.816134,42.2771683 159.914298,42.389952 C160.045183,42.5410264 160.330623,42.6176079 160.552709,42.6231775 C162.813256,42.6788731 165.075195,42.7164677 167.336438,42.7547585 C168.451743,42.7735557 169.569137,42.7589356 170.683746,42.8083655 C171.321461,42.8369095 171.960569,42.9357693 172.588537,43.0555149 C173.286125,43.1884883 173.697576,43.661205 173.714285,44.3594891 C173.749095,45.8660562 173.712893,47.3747118 173.730994,48.8826713 C173.749791,50.441453 173.814537,51.9995386 173.831246,53.5590165 C173.858398,55.9692454 173.444161,58.2757411 172.239047,60.4109727 C171.718989,61.3320393 171.773292,62.278169 172.424235,63.1532868 C172.796699,63.6531552 173.185177,64.1418844 173.529097,64.6605501 C174.016434,65.3957325 173.951688,65.7758553 173.238784,66.2917361 C172.626828,66.7345165 171.996771,67.1571072 171.34722,67.5414071 C170.696278,67.9270994 170.277864,67.7634934 169.972234,67.0679941 C169.67287,66.3864187 169.380468,65.7020585 169.049775,64.9362435" id="Fill-3" fill="#000000"></path>
                <g id="Group-7" transform="translate(0.000000, 5.247226)">
                    <mask id="mask-2" fill="white">
                        <use xlink:href="#path-1"></use>
                    </mask>
                    <g id="Clip-6"></g>
                    <path d="M21.3615756,9.81510349 C21.362968,9.71833232 21.3636642,9.62086494 21.3650566,9.52409377 C20.893036,9.38972804 20.4286736,9.19897047 19.9476025,9.13631287 C19.3996966,9.06460473 18.8329935,9.06460473 18.2802143,9.10776886 C16.7548499,9.2254259 15.2294856,9.36118402 13.7110832,9.54567583 C13.4701995,9.57491604 13.2641257,9.89307739 13.0420393,10.0782654 C13.2321007,10.2725039 13.390137,10.571868 13.6184892,10.6414876 C14.2492423,10.8343337 14.9287291,11.1016728 15.5553051,11.0334456 C17.2289591,10.8510424 18.8866006,10.5210457 20.5449383,10.2175045 C20.832467,10.1645936 21.0900593,9.9529502 21.3615756,9.81510349 M30.5033188,10.7382587 C30.5088883,10.7751571 30.5137617,10.8120555 30.5186351,10.84965 C31.6374213,10.6950946 32.7589922,10.5579441 33.8742974,10.3783257 C34.3588495,10.3003518 34.802326,10.0831388 34.7424532,9.47675247 C34.6867576,8.9149227 34.3470142,8.56195158 33.7691719,8.58422984 C32.4025401,8.63714069 31.0373007,8.71859557 29.6734537,8.81536674 C29.4165576,8.83346783 29.1624462,8.9608716 28.9180816,9.06390854 C28.4509344,9.26093187 28.328404,9.65358613 28.4063779,10.1102904 C28.4829594,10.5565517 28.8206142,10.7194615 29.2334582,10.7347778 C29.6560489,10.7500941 30.0800319,10.7382587 30.5033188,10.7382587 M37.0496451,19.8215215 C36.8971783,19.5402585 36.8115463,19.132288 36.5769284,19.0090614 C36.2594632,18.8426706 35.763772,18.7458994 35.4553574,18.8774804 C33.2699997,19.812471 31.1034393,20.7934104 28.9605495,21.8216912 C28.7370708,21.9289053 28.5713763,22.4628873 28.6201099,22.7594665 C28.6911219,23.1945887 29.0865609,23.2600311 29.5223793,23.1354121 C31.6367251,22.5311144 33.758729,21.9511836 35.8758595,21.3538478 C36.5964219,21.1505587 36.9605321,20.6339817 37.0496451,19.8215215 M23.3652263,25.392478 C23.3533909,24.1957179 23.0289638,23.9276826 22.3446036,24.2736918 C20.0401965,25.4370345 17.7239541,26.5794913 15.4522681,27.8047954 C14.7456297,28.1856143 14.1016488,28.7418745 13.5453886,29.3287673 C13.0510898,29.8516102 13.3003278,30.4559079 14.0257635,30.5095149 C14.5506949,30.5478057 15.1417649,30.4294524 15.6207474,30.2045813 C16.9699743,29.573132 18.28648,28.8692783 19.5960238,28.1570703 C20.5915834,27.6154302 21.5892315,27.0654358 22.5193487,26.4235435 C22.9349774,26.1374071 23.1890888,25.6159567 23.3652263,25.392478 M25.3653959,39.9944825 C25.3848894,43.2060324 25.4893187,46.2797355 24.5731255,49.311667 C22.9774454,54.5943985 21.2585387,59.7970675 17.8638894,64.268035 C16.9713667,65.4439092 15.8804284,66.325989 14.5374672,66.9142742 C12.5658416,67.7782528 10.4431415,68.017744 8.35107396,68.3254625 C7.15431388,68.5015999 5.99654076,68.1611603 4.9828801,67.3939529 C3.88567598,66.5626954 3.077393,65.4989087 2.2872111,64.3989198 C2.15006058,64.207466 1.77898838,64.1058215 1.51930745,64.1106949 C1.36962542,64.1134796 1.15171623,64.3912616 1.09184341,64.5841078 C0.843997813,65.3875174 1.05007168,66.197889 1.55202864,66.7736427 C2.26771762,67.5944572 3.16372124,68.2586277 3.98523194,68.9868482 C5.52382401,70.3493028 7.32488178,71.2000537 9.35289929,70.6960082 C12.0067966,70.0360148 14.6495547,69.2346938 17.1837064,68.213375 C19.8661476,67.1314872 21.5822696,64.9134083 22.9711796,62.4224208 C24.3837603,59.8889653 25.1189427,57.1355121 25.85691,54.3639578 C26.7229772,51.1120286 27.3516417,47.8343401 27.3815781,44.4605767 C27.3941097,43.07654 27.3683504,41.6925033 27.3676542,40.3084667 C27.3662618,33.2532214 27.3857553,26.1979762 27.3502493,19.1427309 C27.3439836,17.818567 27.1086695,16.4964918 27.0056326,15.1716317 C26.8970261,13.7771521 26.6491805,12.3652676 26.7675337,10.9881929 C26.9903163,8.40669998 27.0223413,5.83773856 26.8315837,3.26181519 C26.7626603,2.3296094 26.4152588,1.98777741 25.5018503,1.91467688 C24.7917308,1.85828505 24.0739533,1.86037363 23.3610491,1.88474048 C22.8270671,1.90353775 22.4852351,2.15068716 22.5318802,2.77169355 C22.56669,3.23814454 22.5771329,3.71294988 22.5290955,4.17731228 C22.4128308,5.30306041 22.5743482,6.37172052 23.0470649,7.40069747 C23.1758611,7.68126426 23.310923,7.97993214 23.3422518,8.28068859 C23.5371865,10.1562393 23.7606653,12.0310938 23.863006,13.912214 C23.9757897,15.9799147 23.9535115,18.0552735 24.026612,20.1257589 C24.0384473,20.4801225 24.1498386,20.888093 24.3566087,21.165875 C24.7973004,21.756945 24.9435015,22.3431416 24.6455298,23.024717 C24.3092674,23.7926207 24.4464179,24.5062211 24.763883,25.2650742 C24.984577,25.791398 25.041665,26.407531 25.0667281,26.9888542 C25.0931835,27.6049873 24.9400205,28.2287784 24.959514,28.8463039 C25.0799558,32.5598107 25.226853,36.2719251 25.3646998,39.9847358 C25.3667883,40.0292923 25.3716617,40.0738488 25.3653959,39.9944825 M24.3566087,40.5180215 C24.2876853,37.8884911 24.247306,35.2575683 24.1380033,32.6294302 C24.0830038,31.3010892 23.9249674,29.975533 23.7697158,28.6541539 C23.6645903,27.7609351 23.3185812,27.58619 22.5054248,28.0059959 C20.6890507,28.943075 18.887993,29.9093944 17.0820618,30.8666632 C16.0050474,31.4368473 14.8765144,31.8030462 13.642856,31.7856413 C12.7579915,31.7731098 12.3521095,31.4674799 12.0353406,30.5659068 C11.7457233,29.7436999 11.8564183,29.0621245 12.524766,28.6089012 C13.920638,27.6627715 15.3506236,26.7639831 16.7931407,25.8902577 C18.4988197,24.8577998 20.2400046,23.8845185 21.9512532,22.8604149 C22.6251704,22.4573177 22.9008639,21.849539 22.9670024,21.0294207 C23.1647219,18.5565343 22.6196009,16.1630141 22.3334645,13.7402538 C22.2763765,13.2557017 22.3097939,12.7600105 22.3007433,12.2698888 C22.2868194,11.5235673 21.8788488,11.166419 21.1401854,11.2973037 C19.5911504,11.5716048 18.051166,11.8960319 16.4979538,12.1445737 C15.1285372,12.3638752 13.7890571,12.1536242 12.5407785,11.558377 C11.6747113,11.1455331 11.2305386,10.0190888 11.4574983,9.10498407 C11.6266738,8.42201628 12.2093895,8.3885989 12.716916,8.35309293 C15.1320182,8.18252503 17.5485128,8.01334952 19.967096,7.92493269 C21.2745511,7.8768952 21.4221446,7.64993547 21.4486,6.36197378 C21.4701821,5.32603486 21.3177153,4.28383019 21.2160707,3.24719508 C21.1520207,2.59068272 20.8150621,2.18897791 20.1014617,2.15416814 C19.9406406,2.14650999 19.6510232,1.96480296 19.6579852,1.88474048 C19.6767825,1.67170465 19.7700727,1.39113786 19.9322862,1.27765799 C20.9487317,0.568234772 21.9679619,0.0641892257 23.2935181,0.656651602 C24.1985723,1.06183739 25.2129291,0.862029276 26.1618436,0.55152608 C27.3982868,0.147036491 27.8612568,0.376084813 28.015116,1.67448943 C28.1926459,3.17270216 28.2546073,4.68623119 28.3186573,6.19488686 C28.3646062,7.27050891 28.6604893,7.48075996 29.7458581,7.43063388 C31.3714746,7.35544477 33.0033568,7.38886215 34.6324543,7.40974802 C35.1385885,7.41670997 35.5235846,7.71816263 35.6725704,8.20828426 C35.8779481,8.88568249 36.0700981,9.57143506 36.1940209,10.2669344 C36.3040197,10.885156 35.9754155,11.3258477 35.3509281,11.4024292 C33.6786665,11.6071107 32.0008353,11.7707167 30.3250927,11.9517275 C30.062627,11.9802715 29.7987689,12.0060308 29.5383918,12.0505873 C28.4377067,12.2406486 28.1084062,12.6688089 28.2023926,13.7569624 C28.2441644,14.2422107 28.2803665,14.7295476 28.2984676,15.2161882 C28.3520747,16.6406042 28.4056817,18.0650202 28.4356181,19.4894363 C28.4474535,20.0498736 28.7147925,20.2350616 29.1993446,20.0422155 C30.3682569,19.5757645 31.5037517,19.0202005 32.6879803,18.5996984 C33.847842,18.1882468 35.0320706,17.76496 36.2399698,17.5957845 C37.4360336,17.4293937 38.2192536,18.3267898 38.2436204,19.5583596 C38.2826074,21.5195423 37.6504619,22.1934596 35.7289623,22.6884546 C33.9098034,23.1569942 32.1338087,23.8002788 30.3501558,24.3997032 C29.0893457,24.8236862 28.5950469,25.7614616 28.5853002,27.0682205 C28.5616295,30.3006563 28.4906176,33.5323958 28.4335295,36.7648316 C28.4042893,38.4343084 28.3472013,40.1044814 28.3346698,41.7739582 C28.328404,42.5502162 28.4189094,43.3264742 28.431441,44.1034284 C28.4968833,48.0703504 27.7707514,51.9084762 26.6874712,55.714577 C25.8311507,58.7228378 24.8613504,61.6586943 23.0282676,64.2269595 C21.1798686,66.8168068 18.9339419,68.9144439 15.7857458,69.8570926 C14.2005086,70.3312017 12.6549546,70.9549929 11.0516163,71.3511281 C9.52903676,71.7270737 7.96955882,71.8593508 6.38501785,71.4841015 C5.28085178,71.2230282 4.54149215,70.478099 3.71093091,69.8362067 C2.99454573,69.2834275 2.30879316,68.6909651 1.58753461,68.145844 C-0.649341549,66.4568737 -0.337445962,63.4889923 1.3731064,61.9691975 C1.77898838,61.6092644 2.28024914,61.7673008 2.68056156,62.387611 C3.31966903,63.3789934 3.92048576,64.3947426 4.57699812,65.3735935 C5.34281318,66.5146579 6.43653632,67.2240812 7.80873766,67.2206002 C8.77018366,67.2185116 9.74068019,66.9748432 10.6895947,66.760415 C12.3333123,66.3900389 14.0027891,66.0892825 15.4689768,65.1647349 C16.9908602,64.2046812 17.7281312,62.6173555 18.667299,61.1985091 C20.3806361,58.6121427 21.2494881,55.6519194 22.256883,52.7627081 C22.9349774,50.818234 23.6033251,48.8514817 24.0224348,46.8415653 C24.3308494,45.3586689 24.2382554,43.7915328 24.3064826,42.2605989 C24.332938,41.6813642 24.3113559,41.100041 24.3113559,40.5194139 C24.3259761,40.5187177 24.3412924,40.5180215 24.3566087,40.5180215" id="Fill-5" fill="#000000" mask="url(#mask-2)"></path>
                </g>
                <path d="M59.3688376,45.8864547 C59.0680812,45.3023467 58.8647921,44.7593142 58.5389726,44.3040023 C57.6854369,43.1114194 57.1006327,41.8116224 56.6759534,40.4101808 C56.40026,39.5023419 56.0152639,38.616085 55.5801417,37.7715999 C55.0301472,36.7057246 54.3047115,35.7282661 53.7874383,34.6484668 C52.4994766,31.9611522 51.2992355,29.2313696 50.0342483,26.5329158 C49.773175,25.9759594 49.4327354,25.4378003 49.0366001,24.9685645 C48.5931236,24.4422407 47.9762944,24.5926189 47.8509792,25.2616628 C47.7702205,25.6898231 47.7980683,26.2217164 47.9881297,26.6018392 C49.0414735,28.7120077 50.1393738,30.8012905 51.2609448,32.8766493 C51.9689756,34.1868892 52.8740298,35.4045352 53.4644035,36.7614202 C54.7572386,39.7362636 55.9003916,42.7758532 57.1215185,45.7820254 C57.3039218,46.2310715 57.5371473,46.6759404 57.8337265,47.0546708 C57.9506874,47.2043528 58.4456824,47.2885924 58.5271373,47.1939099 C58.8473872,46.82423 59.070866,46.3710068 59.3688376,45.8864547 M46.0701111,73.6207951 C47.5885135,73.6207951 49.1097007,73.6764907 50.6253183,73.606175 C52.37625,73.5254163 54.1501561,73.4822522 55.8627971,73.1529517 C58.0975846,72.7227029 60.3261065,72.4156807 62.599881,72.3899214 C63.287026,72.3822633 63.9748671,72.309859 64.6585311,72.2360622 C66.5758535,72.0278998 68.4924798,71.8120792 70.4070174,71.5823347 C71.7471937,71.4215135 73.0901549,71.2669581 74.4177997,71.0302516 C74.7317839,70.974556 75.1682985,70.6452555 75.2400066,70.3632963 C75.5679147,69.0739422 75.4843712,68.1215468 73.8023629,68.122243 C70.4299918,68.1229392 67.0576208,68.1194582 63.685946,68.1271164 C63.4234803,68.1278125 63.1610146,68.1953435 62.8992451,68.236419 C61.763054,68.4118603 60.6289515,68.5949597 59.4920642,68.7648314 C58.4004297,68.9277412 57.297656,69.0321705 56.2192492,69.2563455 C55.787608,69.3468509 55.431852,69.4129895 55.0287549,69.1971688 C53.0473824,68.1361669 50.9358215,68.1535718 48.8138176,68.5587576 C44.5906956,69.364952 40.3780166,70.2247534 36.1604642,71.0587956 C35.1600313,71.2565152 34.1526364,71.4194249 33.1570768,71.6401189 C32.719866,71.7368901 32.2589846,71.9366982 32.2506303,72.4776421 C32.2415797,73.0206746 32.6098671,73.3088995 33.1236594,73.4161136 C33.1884056,73.4300375 33.2517594,73.4585815 33.3172018,73.4648473 C34.2904831,73.5574413 35.2630682,73.7119967 36.2377419,73.7224396 C37.7958275,73.7384521 39.3546092,73.6423772 40.913391,73.6242761 C42.6322977,73.6047826 44.3512044,73.6200989 46.0701111,73.6207951 M75.483675,23.5323132 C75.5212696,22.7797258 75.2615887,22.4149194 74.6795692,22.2373895 C73.2885706,21.8113179 71.9365589,22.4782732 71.338527,24.0426245 C70.1396783,27.1810738 69.04874,30.3612949 67.8554609,33.5018328 C66.2667427,37.683183 64.6661892,41.8610523 62.9786113,46.0027193 C62.4105158,47.3958066 61.4274878,48.6204145 60.8628732,50.0148941 C59.5860506,53.1700521 58.4150498,56.3690704 57.2732892,59.5764431 C56.4984236,61.7527503 55.8439998,63.9722216 55.1415385,66.174288 C54.9974261,66.6261188 55.0733114,67.0347856 55.527927,67.2582644 C55.9707074,67.4761736 56.396779,67.4232627 56.7260795,67.0097226 C56.9606974,66.7138395 57.2280365,66.4360575 57.4146169,66.1116304 C57.9465102,65.1849941 58.4463786,64.2388644 58.9552975,63.2990005 C59.4746594,62.3396431 60.0490206,61.4039563 60.4911048,60.409093 C60.9074297,59.4720138 61.5117274,58.6484145 61.9009007,57.6883609 C63.3392406,54.141941 64.9015033,50.6456472 66.3468052,47.1020121 C68.0114087,43.0230026 69.6126583,38.9175377 71.2208699,34.8162499 C72.5540843,31.4167273 73.8615395,28.0074579 75.1703871,24.5988847 C75.3214615,24.2069266 75.4091821,23.7906017 75.483675,23.5323132 M60.6157238,47.0421392 C60.0706027,47.7063098 59.5679496,48.4115558 58.9692214,49.0235117 C58.2855574,49.7224919 57.8086635,49.7259729 57.2969598,48.8856649 C56.610511,47.7592206 56.0612128,46.5408785 55.5376738,45.3253211 C54.2928762,42.433325 53.2339628,39.452912 51.8464452,36.632624 C50.328739,33.5470855 48.5290736,30.60009 46.8449767,27.5967025 C46.3102985,26.6436109 45.8995432,25.6745068 46.2573877,24.5529358 C46.2636534,24.5327461 46.2615648,24.5083793 46.2601724,24.486101 C46.2239703,23.9166131 45.9566312,23.28586 46.8039011,23.0150399 C47.853764,22.6808661 48.9697654,22.8082699 49.4912158,23.5845278 C50.3169037,24.8133129 51.0868959,26.0936164 51.7413197,27.4205651 C53.2242161,30.4260411 54.544899,33.5136682 56.0897568,36.486423 C56.7789904,37.8119792 57.4480342,39.1263963 57.8929032,40.545939 C58.5591623,42.6728162 59.7816816,44.4049507 61.6537513,45.894809 C61.9649507,45.4012064 62.3638707,44.9451984 62.5685522,44.4140012 C64.6968219,38.9105757 66.8153448,33.4036693 68.885134,27.8786617 C69.4365209,26.4082968 69.8375295,24.8794515 70.2622087,23.3645301 C70.6680907,21.9129624 71.6942829,20.9494278 73.283001,20.9292382 C73.8970455,20.9208838 74.5138747,20.8860741 75.1251343,20.9299344 C76.9477742,21.0629077 77.0577731,22.1879597 76.7347384,23.3297203 C76.0789222,25.6529247 75.3360816,27.9635976 74.4463437,30.2067395 C71.5661829,37.4722358 68.6261493,44.7133653 65.6645336,51.9461404 C63.6351237,56.9030524 61.4184372,61.7743324 58.668465,66.3859314 C58.5104286,66.6511819 58.390683,67.1134557 58.5173905,67.3257953 C58.6510601,67.5492741 59.1112453,67.6989561 59.4140903,67.6780703 C60.6526222,67.591742 61.8827996,67.4044654 63.119939,67.2993399 C64.4030273,67.1907334 65.6889004,67.1127595 66.9754697,67.0584562 C69.6655692,66.9456726 72.357061,66.844028 75.0485528,66.7660541 C76.266895,66.7305482 76.5182216,67.007634 76.5683476,68.2426848 C76.5961955,68.9284374 76.6936628,69.6183671 76.6470177,70.2985501 C76.5683476,71.4479689 76.0489858,71.9422677 74.7373534,72.1058737 C71.9421285,72.4539714 69.1455111,72.8041578 66.3419318,73.0666235 C64.1315111,73.2726973 61.9015969,73.2810517 59.6939609,73.5080114 C58.291127,73.6521239 56.9182295,74.0705374 55.5209651,74.2988895 C54.4063561,74.4812927 53.2757346,74.656734 52.1506826,74.6713541 C48.4531883,74.7200878 44.7549978,74.681797 41.0568072,74.7019867 C38.7398686,74.7145182 36.4229299,74.7806568 34.1052951,74.8008465 C33.5761865,74.8057198 33.0408122,74.7535052 32.5179693,74.6678731 C31.8405711,74.5564819 31.3525381,74.1833211 31.1847549,73.4794674 C31.0726675,73.0074469 30.9835544,72.5305529 30.8582393,72.0620134 C30.675836,71.3790456 31.0204528,71.0608842 31.6247505,70.93905 C33.4285931,70.5763321 35.2345242,70.2219686 37.0411515,69.8738709 C40.4587753,69.2159661 43.8770952,68.5615423 47.2968076,67.9126881 C48.9064116,67.6070583 50.5146232,67.2916817 52.1318853,67.0306084 C53.2924433,66.844028 53.8988295,66.1227695 54.2622436,65.0875268 C55.4826743,61.612815 56.6752572,58.1283565 57.9499912,54.6738344 C58.7018823,52.6353739 59.5992784,50.6512167 60.4040804,48.6322498 C60.5990151,48.1435205 60.6846471,47.610931 60.8204053,47.0985311 C60.7521781,47.0797338 60.683951,47.0609365 60.6157238,47.0421392" id="Fill-8" fill="#000000"></path>
                <path d="M53.2251908,2.27363529 C54.8215671,4.15684413 56.3859184,6.00942037 57.9565354,7.85573086 C59.1867129,9.30103273 60.8366962,9.68881363 62.6328807,9.66444678 C63.2886968,9.65609244 63.4926821,9.2133121 63.0909773,8.67724156 C62.7721198,8.25116991 62.4233258,7.83762977 62.0355449,7.47351952 C60.2017659,5.74973945 58.329,4.06703491 56.512626,2.32584995 C55.3757387,1.23560779 54.4630264,1.17016541 53.2251908,2.27363529 M68.2880768,14.3888295 C68.2901653,14.4570567 68.2915577,14.52598 68.2929501,14.5942072 C70.7553936,14.4319936 73.2171409,14.2586409 75.6802806,14.1110475 C76.8122945,14.0435165 77.9505742,14.066491 79.0784109,13.9620616 C79.4125848,13.9307328 79.8866939,13.6794063 80.0099205,13.4016243 C80.4464351,12.4151152 79.9375162,11.4675931 78.8625903,11.3151263 C76.8909646,11.0345595 74.9095922,10.7846254 72.9233464,10.6565254 C71.6075369,10.5722857 70.2764111,10.7351955 68.9515511,10.7630433 C66.7244216,10.8103846 64.4958998,10.8834851 62.2687704,10.8612069 C60.0228437,10.8382324 57.7776132,10.6432977 55.5323827,10.6502596 C52.8401947,10.658614 50.145918,10.7693091 47.4558186,10.8967128 C45.8162782,10.9739905 44.1795226,11.1438622 42.5455517,11.3123415 C41.2046792,11.4501883 40.8405689,11.9068925 40.9275933,13.2282716 C40.9519602,13.6028248 40.9860738,13.9794665 41.0515161,14.3491463 C41.1455025,14.8789511 41.478284,15.1121766 42.0143545,15.0181902 C42.3847305,14.9527479 42.7488408,14.8225593 43.119913,14.8009772 C46.3593107,14.6088273 49.6028856,14.4765501 52.8388023,14.2426284 C55.9925679,14.0149725 59.11222,14.7522435 62.2792133,14.426424 C64.2626743,14.2224388 66.2837299,14.3888295 68.2880768,14.3888295 M57.1524296,9.09774364 C55.9807326,7.64478362 54.8751741,6.25726597 53.749426,4.88715322 C53.1987353,4.21741314 52.5839947,3.59919153 52.043747,2.92109711 C51.4157787,2.13300379 51.4923602,1.56490826 52.3542502,1.03649587 C52.9891805,0.646626387 53.681895,0.30827537 54.3934068,0.0938471543 C55.2963724,-0.179061484 56.0886429,0.168340073 56.7597754,0.819282872 C59.5403802,3.51704046 62.3154155,6.22106381 65.1245644,8.88958118 C65.4698773,9.21679307 66.0024669,9.51546095 66.458475,9.53147344 C69.2202825,9.62545984 71.9862673,9.59134626 74.7480749,9.68672504 C76.5087533,9.74729405 78.2756975,9.87748261 80.0161863,10.1329864 C80.9978219,10.2770988 81.2018072,11.2733546 81.3466159,12.0934729 C81.4628805,12.7548586 81.4002229,13.4552313 81.3563626,14.1340219 C81.32573,14.6095235 81.0709224,14.9715451 80.5487758,15.0543924 C80.0238444,15.1379359 79.5003054,15.2604663 78.9725892,15.2876179 C77.483427,15.3655918 75.9928724,15.4240722 74.5023178,15.4533124 C69.8907188,15.5438178 65.2784236,15.669133 60.6661283,15.676095 C58.4946946,15.6788798 56.323957,15.3655918 54.1511308,15.3398326 C52.6271588,15.3217315 51.1017945,15.576539 49.5743415,15.6559053 C48.3504298,15.7192591 47.111898,15.608564 45.8984293,15.7436259 C44.2749013,15.925333 42.660424,16.2260894 41.0591743,16.5595671 C40.0984245,16.7600714 39.245585,16.6096932 38.722046,15.8793841 C38.6099585,15.7227401 38.5988194,15.2820483 38.6976791,15.2186945 C39.9034898,14.4507909 39.7628583,13.3327009 39.555392,12.1825859 C39.3193817,10.8716498 39.3938746,10.6815884 40.6797477,10.4601982 C42.2935289,10.1824162 43.921234,9.93108966 45.5531163,9.82596414 C48.1269511,9.66096581 50.7098364,9.64007994 53.2878484,9.53147344 C54.3509389,9.48622073 55.4119409,9.37552565 56.4722466,9.28153925 C56.6630042,9.26483056 56.847496,9.18267949 57.1524296,9.09774364" id="Fill-10" fill="#000000"></path>
            </g>
        </g>
    </g>
</svg>