<?xml version="1.0" encoding="UTF-8"?>
<svg width="30px" height="30px" viewBox="0 0 30 30" version="1.1" xmlns="http://www.w3.org/2000/svg" xmlns:xlink="http://www.w3.org/1999/xlink">
    <!-- Generator: Sketch 45.2 (43514) - http://www.bohemiancoding.com/sketch -->
    <title>Group Copy</title>
    <desc>Created with Sketch.</desc>
    <defs></defs>
    <g id="Symbols" stroke="none" stroke-width="1" fill="none" fill-rule="evenodd">
        <g id="main-/-header-/-1" transform="translate(-1330.000000, -70.000000)">
            <g id="Group-Copy" transform="translate(1330.000000, 70.000000)">
                <circle id="Oval" fill="#000000" cx="15" cy="15" r="15"></circle>
                <path d="M20.3692105,19.0823684 C20.3692105,19.7921053 19.7928947,20.3692105 19.0823684,20.3692105 L10.8457895,20.3692105 C10.1352632,20.3692105 9.55894737,19.7921053 9.55894737,19.0823684 L9.55894737,13.5852632 L11.5634211,13.5852632 C11.3897368,14.0115789 11.2926316,14.4765789 11.2926316,14.9636842 C11.2926316,16.9878947 12.9394737,18.6355263 14.9636842,18.6355263 C16.9886842,18.6355263 18.6355263,16.9878947 18.6355263,14.9636842 C18.6355263,14.4765789 18.5376316,14.0115789 18.3647368,13.5852632 L20.3692105,13.5852632 L20.3692105,19.0823684 Z M13.0484211,13.5852632 C13.4778947,12.99 14.175,12.6 14.9636842,12.6 C15.7523684,12.6 16.4502632,12.99 16.8797368,13.5852632 C17.1607895,13.9736842 17.3281579,14.4489474 17.3281579,14.9636842 C17.3281579,16.2671053 16.2671053,17.3265789 14.9636842,17.3265789 C13.6610526,17.3265789 12.6007895,16.2671053 12.6007895,14.9636842 C12.6007895,14.4489474 12.7681579,13.9736842 13.0484211,13.5852632 L13.0484211,13.5852632 Z M19.8276316,9.79736842 L20.1244737,9.79578947 L20.1244737,10.0918421 L20.1244737,12.0726316 L17.8547368,12.0797368 L17.8476316,9.80368421 L19.8276316,9.79736842 Z M19.0823684,8.25 L10.8457895,8.25 C9.41447368,8.25 8.25,9.41368421 8.25,10.8442105 L8.25,13.5852632 L8.25,19.0823684 C8.25,20.5128947 9.41447368,21.6773684 10.8457895,21.6773684 L19.0823684,21.6773684 C20.5136842,21.6773684 21.6773684,20.5128947 21.6773684,19.0823684 L21.6773684,13.5852632 L21.6773684,10.8442105 C21.6773684,9.41368421 20.5136842,8.25 19.0823684,8.25 L19.0823684,8.25 Z" id="Fill-7" fill="#FFFFFF"></path>
            </g>
        </g>
    </g>
</svg>