<?xml version="1.0" encoding="UTF-8"?>
<svg width="40px" height="198px" viewBox="0 0 40 198" version="1.1" xmlns="http://www.w3.org/2000/svg" xmlns:xlink="http://www.w3.org/1999/xlink">
    <!-- Generator: Sketch 45.2 (43514) - http://www.bohemiancoding.com/sketch -->
    <title>Group</title>
    <desc>Created with Sketch.</desc>
    <defs>
        <polygon id="path-1" points="190.760454 0.524447427 0 0.524447427 0 28.6283729 190.760454 28.6283729 190.760454 0.524447427"></polygon>
    </defs>
    <g id="Symbols" stroke="none" stroke-width="1" fill="none" fill-rule="evenodd">
        <g id="main-/-contact" transform="translate(-899.000000, -292.000000)">
            <g id="Group" transform="translate(899.000000, 292.000000)">
                <ellipse id="Oval-2-Copy-4" fill="#000000" cx="20" cy="192" rx="20" ry="6"></ellipse>
                <g id="Page-1-Copy-8" transform="translate(22.000000, 95.500000) rotate(-90.000000) translate(-22.000000, -95.500000) translate(-73.500000, 80.500000)">
                    <g id="Group-3" transform="translate(0.000000, 0.366490)">
                        <mask id="mask-2" fill="white">
                            <use xlink:href="#path-1"></use>
                        </mask>
                        <g id="Clip-2"></g>
                        <path d="M130.052635,7.67620387 C130.036465,6.74004202 129.364506,6.11593412 128.392501,6.13500408 C127.469006,6.15234041 126.67128,6.89780263 126.696433,7.72301196 C126.723383,8.68344467 127.546264,9.51905581 128.475148,9.5346585 C129.474103,9.5502612 130.072398,8.84467255 130.052635,7.67620387 M179.046352,7.84263264 C178.133637,7.86343624 177.396998,8.58982849 177.391608,9.47398135 C177.384421,10.4569513 178.313305,11.365375 179.267343,11.3081651 C180.129751,11.2561561 180.907714,10.3546669 180.862797,9.45837865 C180.81788,8.55688946 179.98961,7.82009541 179.046352,7.84263264 M39.1944345,13.7959286 C39.2465383,13.7959286 39.3004387,13.7959286 39.3543392,13.7959286 C39.3543392,11.9201376 39.3597292,10.0443466 39.3525425,8.16855566 C39.3489491,7.62592851 39.4262064,6.8804663 38.6051229,6.99835334 C38.2637533,7.04516144 37.8055994,7.73688103 37.7732592,8.16335476 C37.6582715,9.66468098 37.6977985,11.176409 37.6924085,12.6846698 C37.6852218,15.0753497 37.6654583,17.4677634 37.7139687,19.8567097 C37.7211554,20.1462264 38.1290022,20.427075 38.3517907,20.7113908 C38.626683,20.4288086 38.9860194,20.1843664 39.1513141,19.8497752 C39.2860653,19.5793284 39.1926378,19.1996628 39.1926378,18.8685389 C39.1944345,17.1782466 39.1944345,15.4879544 39.1944345,13.7959286 M74.6214069,14.6280724 L74.4704856,14.6263388 C74.484859,14.3333548 74.5136059,14.0386372 74.5082159,13.7456532 C74.4650955,11.2786934 74.4345519,8.81173352 74.3447179,6.34650732 C74.3339378,6.06565876 73.9925682,5.79694564 73.8039166,5.52129798 C73.570348,5.76747388 73.2110116,5.98071074 73.1301609,6.26849383 C73.0007998,6.71750479 73.0349368,7.21679111 73.0403268,7.69527383 C73.1050074,12.518241 73.1732813,17.3412082 73.2523353,22.1641753 C73.2577253,22.5265046 73.2972523,22.9096375 73.4338002,23.2390278 C73.5110575,23.4245265 73.8129,23.6048244 74.0285018,23.6221607 C74.1830165,23.6342961 74.4435354,23.4037229 74.5100126,23.228626 C74.6142201,22.9633801 74.6178135,22.6513262 74.6178135,22.3600758 C74.6250002,19.7821635 74.6214069,17.2042511 74.6214069,14.6280724 M44.1065626,14.9071873 C44.1245294,14.9071873 44.1424963,14.9071873 44.1604631,14.9071873 C44.1604631,13.2515678 44.1371062,11.5942146 44.1658531,9.93859501 C44.1946,8.30897993 44.2251436,8.34538623 45.8673108,7.99692598 C46.2176638,7.92237976 46.481776,7.4785697 46.7872119,7.20638931 C46.447639,6.98968518 46.1098629,6.59094958 45.77029,6.58921594 C44.3616914,6.58054778 42.9459062,6.64122494 41.5480877,6.79551828 C41.1707845,6.83712547 40.8455851,7.29653823 40.4952321,7.56525135 C40.868942,7.79582455 41.2606186,8.24483551 41.6145649,8.21709738 C42.7482712,8.13041573 42.9333294,8.60196392 42.9027858,9.56759753 C42.7895948,13.0626018 42.7374911,16.5610733 42.7141342,20.0578111 C42.7105408,20.5935038 42.3943248,21.5157965 43.4220268,21.4915257 C44.2988076,21.4707221 44.0921892,20.6507137 44.0993759,20.0976847 C44.1209361,18.3675189 44.1065626,16.6373531 44.1065626,14.9071873 M27.841202,12.7626833 C27.8645589,12.7626833 27.8897124,12.7626833 27.914866,12.7626833 C27.914866,11.5474065 27.9615797,10.3303961 27.8843224,9.1203202 C27.8627622,8.78052813 27.4728822,8.46327328 27.2518904,8.13561663 C27.0470686,8.47367507 26.6805455,8.80653262 26.6661721,9.15325923 C26.576338,11.247488 26.5745413,13.345184 26.5260309,15.44288 C26.5062674,16.2888929 26.3876864,17.1869148 25.2449968,17.176513 C24.1454275,17.1678448 23.9783361,16.2923602 23.9064688,15.4446136 C23.8849086,15.1897695 23.8974854,14.9297246 23.9010787,14.6714132 C23.933419,12.9412475 23.9927095,11.2110817 23.9783361,9.48091588 C23.9765394,9.20873549 23.6477466,8.93828873 23.4698751,8.66610834 C23.2506799,8.92268604 22.8536132,9.16886193 22.8392398,9.43584142 C22.7206588,11.6410227 22.5984844,13.8496712 22.629028,16.0548524 C22.6469948,17.4903006 24.2011246,18.6934419 25.6851838,18.6310311 C26.9213009,18.5790222 27.8106584,17.4920342 27.8376086,15.9664371 C27.8555755,14.8985192 27.841202,13.8306012 27.841202,12.7626833 M79.6646928,15.352731 C79.6269624,15.352731 79.5892321,15.352731 79.5497051,15.352731 C79.5497051,13.000191 79.5982155,10.6459173 79.5281449,8.2968445 C79.4976013,7.27053373 79.7545268,6.80418644 80.9061999,6.88740083 C81.2098391,6.90820443 81.5512087,6.44185713 81.8746114,6.19914851 C81.5907357,5.94950535 81.3158434,5.49876075 81.0229842,5.48662532 C79.4634644,5.4276818 77.9003512,5.45195266 76.3408314,5.51783072 C76.1108561,5.52823251 75.7353496,5.91309905 75.7245695,6.13847135 C75.7119927,6.37944634 76.0120386,6.68283213 76.252794,6.86833087 C76.4019185,6.98275065 76.7001677,6.97754975 76.9157696,6.94287709 C78.0854094,6.75044382 78.3010112,7.29653823 78.2938245,8.30897993 C78.2632809,12.7574824 78.3099947,17.2042511 78.3315548,21.6527536 C78.3333515,22.1676426 78.2938245,22.694667 78.3998287,23.1904861 C78.4555259,23.4470638 78.7933021,23.6464316 79.0035138,23.8700702 C79.2155223,23.6412307 79.5011947,23.4418629 79.6161823,23.1748834 C79.7257799,22.921773 79.6628961,22.5958499 79.6646928,22.302866 C79.6664894,19.9867322 79.6646928,17.6688648 79.6646928,15.352731 M50.8710697,6.30836739 C50.8710697,6.35864275 50.8710697,6.40718447 50.8710697,6.4557262 C50.2997249,6.4557262 49.7265834,6.47999706 49.1570353,6.4505253 C48.3197815,6.40718447 48.0287191,6.77991558 48.0089556,7.56871862 C47.9029513,11.9426748 47.7843703,16.3148974 47.6100922,20.6871199 C47.5723619,21.6371509 47.9568518,22.0497555 48.8695662,22.1347035 C50.1200567,22.250857 51.3705473,22.4155521 52.6246312,22.4519584 C52.9713908,22.4606266 53.3289305,22.0826946 53.6810801,21.8833268 C53.3918143,21.6094127 53.1402789,21.1621354 52.8060961,21.0945237 C51.9544689,20.9211604 51.066908,20.9020904 50.191924,20.8518151 C49.4570811,20.8102079 49.0761846,20.5276257 49.1390684,19.7526917 C49.2109357,18.8737398 49.2289025,17.9878533 49.2324959,17.1054341 C49.2360893,16.4466535 49.5379318,16.1883422 50.2170775,16.2195476 C50.824356,16.2490193 51.4585847,16.2888929 52.0353195,16.146735 C52.3407555,16.0721888 52.5473739,15.6249114 52.7989093,15.3457965 C52.5312037,15.1325596 52.2886517,14.7840994 51.9921992,14.733824 C51.3992942,14.6332733 50.7578788,14.7806321 50.1757538,14.6592778 C49.8541478,14.5916661 49.3762304,14.1877296 49.3708404,13.9276847 C49.3331101,12.2373924 49.4229442,10.5436329 49.4373176,8.85160708 C49.4445043,8.13735026 49.8092308,7.8721044 50.4991566,7.87557167 C51.185489,7.88077257 51.8951784,7.95705242 52.5491705,7.81142725 C52.9713908,7.7195447 53.3109636,7.2844028 53.6882668,7.00355424 C53.3199471,6.77124741 52.9803742,6.42278717 52.5797141,6.33783915 C52.0335229,6.22168574 51.4424145,6.30836739 50.8710697,6.30836739 M84.3845759,14.2102669 L84.4025427,14.2102669 C84.4025427,12.2599297 84.3881693,10.3095925 84.4097295,8.35925529 C84.4187129,7.61726035 84.4528498,6.73657475 85.417668,6.61868771 C86.4561501,6.49039886 86.7166689,7.31214093 86.84064,8.13041573 C86.9071172,8.56729126 86.8945404,9.03710582 87.0706153,9.42890689 C87.1945863,9.70628818 87.5754829,9.87791785 87.8413918,10.0963556 C87.992313,9.82590886 88.2869689,9.54679394 88.269002,9.28674898 C88.2097115,8.44767058 88.1270642,7.59125585 87.8863088,6.78858374 C87.6168065,5.89229546 86.9807812,5.29072479 85.9279256,5.1711041 C84.7996094,5.04281526 83.9192353,5.44328449 83.4700649,6.39158178 C83.1322887,7.10410496 82.9292636,7.93798246 82.9202802,8.7215846 C82.8663798,12.8077577 82.8807532,16.8973981 82.9041101,20.9853048 C82.9059068,21.5261983 83.0083176,22.09483 83.1951726,22.6045181 C83.6551231,23.8579348 84.7960161,24.4230992 86.2189881,24.1890587 C87.3455076,24.00356 88.0569936,23.1748834 88.1378443,21.9127985 C88.1683879,21.4360494 88.2348651,20.9280949 88.0983173,20.4877521 C87.9779396,20.0994183 87.5988397,19.7856308 87.3329308,19.4389041 C87.1334991,19.7977662 86.9178973,20.1496937 86.7418225,20.5189575 C86.682532,20.6420455 86.7346358,20.8102079 86.7202623,20.9575667 C86.6394116,21.7359679 86.8208765,22.8090868 85.6745935,22.8472267 C84.5858043,22.883633 84.434883,21.8278505 84.4097295,21.045982 C84.3396589,18.7697218 84.3845759,16.4882607 84.3845759,14.2102669 M97.4751998,14.5760634 C97.5596438,14.5760634 97.6440878,14.5760634 97.7285319,14.5760634 C97.7285319,15.163765 97.7303286,15.7532003 97.7285319,16.3426355 C97.7195485,18.4784714 97.7141584,20.6143074 97.6979883,22.7501433 C97.6908016,23.5441472 98.0052209,23.9827564 98.9017651,23.9966255 C100.046251,24.0139618 101.190738,24.1855915 102.328037,24.1283816 C102.707137,24.1093116 103.059287,23.5926889 103.424013,23.3031722 C103.064677,23.0535291 102.734087,22.6634616 102.338817,22.5871818 C101.638112,22.4519584 100.896082,22.4900983 100.172019,22.4883647 C99.4102261,22.4866311 99.0652632,22.1641753 99.0868234,21.4117786 C99.1245537,20.1219556 99.1443172,18.8321326 99.1155703,17.5440432 C99.0976034,16.8141837 99.4138195,16.5714751 100.136086,16.5940123 C100.666107,16.609615 101.232061,16.5974796 101.717166,16.4275835 C102.031585,16.316631 102.432245,15.8832228 102.416075,15.6162433 C102.401701,15.3579319 101.929174,14.9782663 101.605771,14.9193228 C101.057783,14.8187721 100.455895,15.0077381 99.9025169,14.9175891 C99.6042677,14.8690474 99.1425205,14.5067181 99.128147,14.2640095 C99.0005826,12.206187 98.9538689,10.1431637 98.8945784,8.08360764 C98.8730182,7.33467816 99.2593048,7.04169417 100.037268,7.09370316 C100.720007,7.13877762 101.43868,7.18905298 102.087282,7.03129237 C102.495129,6.93247529 102.802361,6.45399257 103.154511,6.14540588 C102.780801,5.90963179 102.421465,5.50569528 102.027992,5.47275626 C100.967949,5.38780824 99.8935335,5.48835895 98.8245078,5.46235446 C97.8057892,5.43808359 97.4248927,5.82295013 97.4518429,6.84579364 C97.5201168,9.42023872 97.4751998,11.9981511 97.4751998,14.5760634 M34.3020699,14.7355577 C34.1709121,14.7667631 34.041551,14.7979685 33.9103932,14.8291739 C33.7738454,14.5136526 33.6265175,14.2015987 33.5007498,13.8826102 C32.7730936,12.0276228 32.0669977,10.1622337 31.3034079,8.32111537 C31.1902169,8.04893498 30.7572166,7.66926934 30.5595816,7.71261016 C30.2703158,7.77502095 30.0044069,8.14601843 29.8319255,8.44073605 C29.7133445,8.64530475 29.7528715,8.94348963 29.7492781,9.20006732 C29.7133445,11.2942961 29.6702241,13.3902584 29.659444,15.4844871 C29.6522573,16.5142652 29.6630374,17.5492441 29.7690416,18.570354 C29.7959918,18.8373335 30.2110253,19.066173 30.4481873,19.3123489 C30.6512124,19.0557712 30.9009512,18.8182635 31.0410923,18.5322141 C31.1273331,18.3536499 31.0392957,18.0988058 31.0464824,17.8769008 C31.1021795,16.2576875 31.16147,14.6384742 31.2189638,13.0175273 C31.3249681,13.0036582 31.432769,12.9897892 31.5405699,12.9741865 C31.7022713,13.326114 31.8855328,13.6693733 32.0220806,14.029969 C32.703023,15.8225456 33.3372517,17.6341921 34.0667045,19.4076988 C34.2176258,19.7700281 34.70812,20.0023349 35.0423028,20.2935852 C35.2327511,19.9295223 35.5705272,19.5723939 35.5884941,19.2013964 C35.6711414,17.658463 35.6585646,16.1103287 35.6765315,14.5656616 C35.7034817,12.362214 35.7466021,10.1605 35.7232452,7.95878606 C35.7214485,7.69007293 35.3495354,7.42656071 35.148307,7.16131485 C34.8859915,7.37801898 34.470958,7.55311592 34.3954973,7.81836178 C34.2571528,8.3020454 34.3074599,8.83773802 34.3038665,9.35262703 C34.2966798,11.1469372 34.3020699,12.9412475 34.3020699,14.7355577 M67.2945383,12.6499971 C67.1975175,12.6309271 67.1004967,12.6101235 67.0034759,12.5893199 C66.9675422,12.0935009 66.9100484,11.5959482 66.901065,11.1001292 C66.8705214,9.5918684 66.8830982,8.08360764 66.8148243,6.57881415 C66.8040442,6.33090462 66.4752514,6.09686416 66.2919899,5.85588916 C66.0368611,6.07952783 65.6865081,6.25982566 65.5499603,6.53720695 C65.4152091,6.81285461 65.4709063,7.18731935 65.4816864,7.51670963 C65.5266034,8.87761158 65.6182342,10.2367799 65.6344043,11.5976818 C65.6775247,15.1290924 65.670338,18.6605029 65.749392,22.1919134 C65.7565787,22.543841 66.2147326,22.8853667 66.4644713,23.2320933 C66.6549196,22.8888339 66.9962892,22.5507755 67.0088659,22.2005816 C67.0609697,20.7686007 66.9423887,19.3279516 67.0268327,17.8977044 C67.0735465,17.0967659 67.3915592,16.3114301 67.5891942,15.5191598 C67.7023851,15.5243607 67.8173728,15.5312952 67.9305637,15.5364961 C68.0653148,15.8260129 68.2252195,16.1051278 68.3294271,16.4033127 C69.0409131,18.4177943 69.7056854,20.4496122 70.4692751,22.4450239 C70.6219931,22.8402922 71.1376408,23.1072717 71.4861971,23.4331947 C71.5454876,22.9460438 71.7718695,22.4086176 71.6353216,21.9786766 C70.9292257,19.7682944 70.1907895,17.5631132 69.3409589,15.4012728 C68.7570374,13.912082 68.6510331,12.5477128 69.4038428,11.0671901 C70.0883786,9.72015724 70.5860595,8.27777454 71.0711636,6.84752727 C71.1825578,6.51813699 70.9022755,6.06739239 70.803458,5.67212406 C70.4674785,5.89229546 69.9895611,6.03965427 69.8224697,6.34650732 C69.4343864,7.05729687 69.1972244,7.84263264 68.8989752,8.59849665 C68.363564,9.9489968 67.8299495,11.299497 67.2945383,12.6499971 M55.132799,14.45991 C55.1543592,14.45991 55.1759194,14.45991 55.1974796,14.45991 C55.1974796,16.557606 55.1992763,18.655302 55.1974796,20.752998 C55.1956829,22.7241388 55.1938862,22.7241388 57.1738296,22.935642 C57.2492902,22.9443102 57.3247509,22.9616465 57.4002115,22.968581 C59.0531588,23.0847345 60.3683299,22.1000309 60.3970768,20.5050885 C60.4617573,16.9390053 60.3988735,13.3711885 60.4078569,9.80510526 C60.4168403,7.01915694 59.5382629,5.97897711 56.5881113,6.26502656 C56.4749204,6.27542836 56.358136,6.28236289 56.2449451,6.27196109 C55.3825378,6.19394761 55.1148322,6.61001954 55.1238156,7.39188805 C55.1489692,9.74789537 55.132799,12.1039027 55.132799,14.45991 M91.104166,15.0476116 C91.104166,12.329275 91.1077593,9.79470346 91.1005726,7.2583983 C91.0987759,6.85619543 91.1221328,6.43145534 90.9981617,6.05872423 C90.9244978,5.84028646 90.5992984,5.606246 90.3567463,5.56983971 C90.1878582,5.54383521 89.8518787,5.80734744 89.7907916,5.9997807 C89.6847873,6.34130642 89.7099409,6.72790659 89.7171276,7.09370316 C89.7710281,9.7444281 89.8554721,12.3934194 89.8914057,15.0441444 C89.9273394,17.7694155 89.9201527,20.492953 89.9345261,23.2182242 C89.9381195,23.7712532 90.0099867,24.3728238 90.7915433,24.1058443 C91.0538589,24.0156954 91.2820375,23.4626665 91.2892242,23.1159399 C91.3305479,21.4603203 91.2730541,19.8012335 91.2820375,18.1456139 C91.2946143,16.3218319 91.3125811,16.3617055 93.1703501,16.231683 C94.0758777,16.1692722 94.2950729,16.5281342 94.2860895,17.3048019 C94.2681227,18.9621551 94.266326,20.6212419 94.3435833,22.2768615 C94.3705335,22.8957685 93.9680768,23.970621 95.0101523,23.9758219 C96.0737879,23.9827564 95.8222525,22.9061703 95.8114724,22.2196516 C95.7252316,16.9563416 95.6192274,11.6930317 95.4754929,6.43145534 C95.4665095,6.09339689 95.0820196,5.76747388 94.8718078,5.43634996 C94.6184756,5.77787567 94.1800853,6.10379869 94.1441516,6.466128 C94.0525209,7.41269164 94.142355,8.37659162 94.1459483,9.3352907 C94.1513384,11.1608063 94.147745,12.9863219 94.147745,14.8742483 C93.1631634,14.9297246 92.3043494,14.9799999 91.104166,15.0476116 M109.556088,17.0950323 C109.475238,17.1193031 109.394387,17.1418404 109.313536,17.1643776 C109.035051,16.1970103 108.743988,15.2331104 108.478079,14.2622758 C107.74683,11.5976818 107.053311,8.9209524 106.269957,6.27022746 C106.169343,5.92523448 105.630339,5.70159582 105.296156,5.42074726 C105.127268,5.81948287 104.818238,6.2147512 104.814645,6.61522044 C104.793085,8.53088497 104.868545,10.4465495 104.882919,12.362214 C104.909869,15.8242792 104.906276,19.2863444 104.944006,22.7484097 C104.951193,23.3413122 104.823628,24.1665215 105.768683,24.1838578 C106.799978,24.2046614 106.415489,23.3309104 106.410099,22.8454931 C106.381352,19.7145518 106.286127,16.5836105 106.223244,13.4544028 C106.216057,13.0990081 106.282534,12.7453469 106.314874,12.3899521 C106.417285,12.3916858 106.519696,12.3934194 106.622107,12.395153 C106.877236,13.4231974 107.100024,14.45991 107.39468,15.4775526 C108.194204,18.2409637 109.004507,21.0026412 109.868711,23.7487159 C109.972919,24.0833071 110.438259,24.3138803 110.736508,24.5912616 C110.921567,24.2376004 111.138965,23.8960747 111.27731,23.5250773 C111.350974,23.3309104 111.284496,23.0882017 111.280903,22.8662967 C111.182085,17.3776144 111.097641,11.8889322 110.953907,6.40024994 C110.943127,6.00151434 110.495753,5.61318053 110.249608,5.21964583 C109.987292,5.60971327 109.507578,5.99457981 109.498595,6.39158178 C109.448287,8.34191896 109.534528,10.2957234 109.552495,12.2495279 C109.566868,13.8635402 109.556088,15.4792863 109.556088,17.0950323 M0.0627041959,10.4170777 C2.04444426,9.93339411 4.01181086,9.39250059 6.00972106,8.97816229 C20.0615697,6.06565876 34.2535595,4.15692877 48.6090473,3.3351867 C63.7119548,2.46837017 78.8346257,2.38688942 93.9555,2.22739518 C99.87377,2.16325075 105.79204,2.03842917 111.708513,1.91360759 C112.694892,1.892804 113.677677,1.66396443 114.664055,1.64316084 C116.555961,1.60328728 118.45146,1.65876353 120.345163,1.64489447 C124.197249,1.61542271 128.056521,1.70383799 131.899624,1.50273656 C146.815676,0.719134419 161.735322,0.160904575 176.667545,0.805816072 C179.646443,0.934104918 182.666665,1.462863 185.546746,2.23432971 C190.712207,3.61776889 191.772249,7.79755818 189.896513,12.1836498 C188.320823,15.8676201 185.228734,18.3068418 181.448515,19.893116 C179.901572,20.5414948 178.44087,20.303987 177.396998,19.0575049 C175.258946,16.5021298 172.341135,15.8121438 169.214909,15.8450828 C163.566141,15.9074936 157.91917,16.3062292 152.272199,16.2715566 C148.012266,16.2472857 143.74335,15.88669 139.501384,15.4550154 C135.295352,15.026808 131.119864,14.3125512 126.928205,13.7456532 C126.328113,13.6641724 125.708258,13.6884433 125.099183,13.6901769 C122.519148,13.6953778 120.74762,14.837842 119.825922,17.1817139 C118.78744,19.8289716 117.734584,22.4744956 116.696102,25.1217533 C115.494122,28.1850829 114.82396,28.7086401 111.465961,28.6202248 C103.79413,28.4173897 96.1258917,28.1244058 88.4540603,27.8903653 C81.623076,27.6823293 74.7849049,27.5956477 67.9593106,27.2905283 C55.1813094,26.720163 42.415885,25.9226918 29.9073861,23.0968699 C21.0335745,21.0910565 12.4526221,18.2704355 4.55081541,13.7837931 C2.98410885,12.8944394 1.51442312,11.8507923 -0.000179668183,10.8764905 C0.0213805138,10.7239308 0.0411440139,10.5696374 0.0627041959,10.4170777" id="Fill-1" fill="#030807" mask="url(#mask-2)"></path>
                    </g>
                    <path d="M56.4688116,14.9451539 C56.4688116,13.1040356 56.4490481,11.2611837 56.4813884,9.42006536 C56.4903718,8.89130728 56.2496164,8.1267751 57.2485715,8.12504147 C58.1163689,8.12504147 58.8871454,8.34521287 59.0290832,9.31431374 C59.1422742,10.0771123 59.1728178,10.8537799 59.1853946,11.6252466 C59.2374983,14.3505178 59.2770253,17.0775226 59.2949922,19.8027937 C59.3039756,21.0423414 58.685917,21.7288601 57.6294681,21.7739345 C56.9844593,21.8034063 56.6287163,21.6092394 56.6376997,20.9088516 C56.6610566,18.9203745 56.6466831,16.9318974 56.6466831,14.9451539 C56.5873926,14.9451539 56.5281021,14.9451539 56.4688116,14.9451539" id="Fill-4" fill="#030807"></path>
                </g>
            </g>
        </g>
    </g>
</svg>