<?xml version="1.0" encoding="UTF-8"?>
<svg width="73px" height="59px" viewBox="0 0 73 59" version="1.1" xmlns="http://www.w3.org/2000/svg" xmlns:xlink="http://www.w3.org/1999/xlink">
    <!-- Generator: Sketch 45.2 (43514) - http://www.bohemiancoding.com/sketch -->
    <title>Fill 1 Copy 3</title>
    <desc>Created with Sketch.</desc>
    <defs></defs>
    <g id="KIT" stroke="none" stroke-width="1" fill="none" fill-rule="evenodd">
        <g id="main" transform="translate(-1805.000000, -1433.000000)" fill="#E6E6E4">
            <path d="M1834.98502,1491.66804 C1834.76769,1491.57839 1834.54513,1491.49949 1834.3342,1491.39692 C1833.83893,1491.15618 1833.312,1490.95708 1832.86572,1490.64483 C1832.13982,1490.13717 1831.44977,1489.57377 1830.77807,1488.99544 C1829.77877,1488.13524 1828.81685,1487.23223 1827.82293,1486.36581 C1827.2881,1485.89962 1826.6728,1485.5172 1826.18123,1485.01222 C1825.78326,1484.60311 1825.52502,1484.06976 1824.91527,1483.8856 C1824.67942,1483.81425 1824.43785,1483.67878 1824.26176,1483.50805 C1823.40168,1482.6737 1822.59985,1481.77589 1821.70375,1480.98334 C1821.07616,1480.42818 1820.15228,1480.13725 1819.67704,1479.49545 C1818.88598,1478.42759 1817.35825,1478.27415 1816.79985,1476.95228 C1816.64244,1476.5796 1816.10509,1476.36505 1815.73826,1476.08285 C1815.62968,1475.99925 1815.48692,1475.95207 1815.39602,1475.85471 C1814.56085,1474.96043 1813.7533,1474.03945 1812.8971,1473.16599 C1812.2956,1472.55223 1811.58787,1472.0397 1811.00809,1471.40832 C1810.52612,1470.88337 1810.21468,1470.20246 1809.73136,1469.67919 C1809.15293,1469.05267 1808.44352,1468.54803 1807.84539,1467.93763 C1807.44153,1467.52549 1807.1646,1466.99148 1806.77,1466.5686 C1806.44459,1466.21975 1805.99746,1465.98539 1805.66178,1465.6441 C1805.15422,1465.12804 1804.70996,1464.62542 1805.23806,1463.7815 C1805.50185,1463.35997 1805.34899,1462.70105 1805.50943,1462.18835 C1805.76161,1461.38221 1806.00554,1460.53628 1806.4562,1459.8374 C1807.33985,1458.46753 1808.35211,1457.17891 1809.33407,1455.87383 C1809.76166,1455.30574 1810.29532,1454.81352 1810.69312,1454.22763 C1811.2724,1453.37431 1811.72878,1452.43722 1812.31732,1451.59096 C1813.10921,1450.45208 1813.97956,1449.36759 1814.81102,1448.25608 C1815.15074,1447.80197 1815.46032,1447.3247 1815.81267,1446.88083 C1816.67089,1445.79971 1817.54528,1444.73151 1818.41512,1443.65961 C1818.51966,1443.53085 1818.64525,1443.41871 1818.74626,1443.2876 C1819.15752,1442.75392 1819.55819,1442.21235 1819.97366,1441.68219 C1820.0814,1441.5447 1820.23443,1441.44347 1820.35598,1441.31572 C1821.01421,1440.62339 1821.65526,1439.91411 1822.32865,1439.23706 C1823.1266,1438.43478 1823.97271,1437.67933 1824.75922,1436.86647 C1825.57536,1436.02273 1826.27197,1435.0487 1827.15949,1434.29359 C1827.83893,1433.71543 1828.69732,1433.26719 1829.5515,1433.01152 C1829.88601,1432.91146 1830.42976,1433.48846 1830.87083,1433.76881 C1831.09759,1433.91302 1831.28664,1434.13579 1831.52906,1434.23232 C1832.94552,1434.79538 1833.80845,1435.83504 1834.61197,1437.12064 C1835.12424,1437.94055 1835.3771,1438.61072 1835.22676,1439.50684 C1836.01647,1439.76772 1836.44407,1440.54432 1835.95822,1441.52103 C1835.72843,1441.98286 1834.80826,1442.10306 1834.15171,1442.28101 C1833.96973,1442.77624 1833.77091,1443.28256 1833.00275,1442.85162 C1832.81707,1443.23337 1833.18238,1443.9445 1832.34789,1443.83655 C1832.33526,1443.83488 1832.33089,1444.09089 1832.25884,1444.16442 C1832.05918,1444.36789 1831.76272,1444.73386 1831.61677,1444.68702 C1831.06644,1444.51075 1830.99776,1444.8779 1830.86948,1445.20257 C1830.62959,1445.81045 1830.83733,1446.77675 1829.65436,1446.62549 C1829.55016,1446.61223 1829.3234,1447.0707 1829.25808,1447.33561 C1829.11515,1447.9168 1829.28518,1448.7023 1828.24195,1448.55188 C1828.12074,1448.53425 1827.84684,1448.77969 1827.83556,1448.91852 C1827.7396,1450.1076 1826.87818,1450.48565 1825.92905,1450.79455 C1825.86457,1450.81553 1825.81508,1450.90468 1825.77417,1450.97166 C1825.24153,1451.84092 1824.71646,1452.71472 1824.17674,1453.57946 C1824.09375,1453.71242 1823.95941,1453.82238 1823.82894,1453.91538 C1823.03671,1454.48062 1823.03486,1454.47793 1823.91749,1455.18956 C1824.00553,1455.04418 1824.08483,1454.78632 1824.17674,1454.78162 C1824.97504,1454.74217 1825.77888,1454.69987 1826.57432,1454.7551 C1827.26992,1454.80345 1827.95391,1454.99718 1828.64816,1455.08733 C1829.13569,1455.15079 1829.63181,1455.14844 1829.91126,1455.16371 C1830.56276,1455.05308 1831.04187,1454.87412 1831.50111,1454.91492 C1832.3654,1454.99181 1833.3179,1454.63977 1834.07932,1455.45615 C1834.2172,1455.60389 1834.8421,1455.23405 1835.24697,1455.21626 C1835.74931,1455.19443 1836.42471,1455.51541 1836.72807,1455.29012 C1837.42653,1454.77155 1837.69488,1455.36432 1838.15581,1455.55738 C1838.48307,1455.69454 1838.88491,1455.66197 1839.25476,1455.6895 C1839.60475,1455.71536 1839.95626,1455.72073 1840.3017,1455.62369 C1840.91364,1455.62084 1841.52558,1455.61782 1842.24946,1455.61429 C1842.28868,1455.56208 1842.45669,1455.33814 1842.6247,1455.11419 C1842.64086,1455.19729 1842.65686,1455.28039 1842.67285,1455.36349 C1843.46794,1455.42862 1844.26203,1455.51357 1845.05847,1455.55285 C1845.71771,1455.58542 1846.38234,1455.60321 1847.03939,1455.55654 C1847.74105,1455.50668 1848.4375,1455.37708 1849.13428,1455.27065 C1849.19859,1455.26091 1849.26778,1455.10898 1849.30481,1455.12023 C1850.93541,1455.61799 1852.69411,1454.81604 1854.3008,1455.61026 C1854.47942,1455.6984 1854.84775,1455.70025 1854.95583,1455.58357 C1855.39774,1455.10613 1855.73662,1455.31732 1856.17836,1455.58374 C1856.4201,1455.72946 1856.80292,1455.70914 1857.10964,1455.66885 C1858.0783,1455.5416 1859.05774,1455.64955 1860.01579,1455.17613 C1860.44541,1454.96377 1861.18461,1455.37423 1861.84402,1455.51525 C1862.59114,1454.62818 1863.11705,1454.61744 1864.09547,1455.6524 C1864.72205,1454.4729 1865.64526,1455.35089 1866.46527,1455.28828 C1866.67419,1455.27233 1866.87401,1455.12074 1867.07468,1455.02454 C1867.1671,1454.98022 1867.26946,1454.85599 1867.33696,1454.87513 C1868.28677,1455.14407 1869.44498,1454.09266 1870.15742,1455.42678 C1870.94965,1454.44788 1871.15453,1454.43781 1871.99508,1455.26578 C1872.76829,1456.02744 1873.66675,1456.70616 1874.26993,1457.58517 C1875.06401,1458.74234 1876.10792,1459.7956 1876.28351,1461.31606 C1876.33536,1461.7643 1876.57222,1462.21034 1876.79999,1462.6151 C1877.15099,1463.23876 1877.60165,1463.81793 1876.96649,1464.52503 C1876.92002,1464.57674 1877.02372,1464.76274 1877.06581,1464.91669 C1876.90723,1464.88009 1876.78131,1464.85088 1876.59242,1464.8074 C1876.63384,1465.01674 1876.6707,1465.20325 1876.72087,1465.45675 C1876.43788,1465.4502 1876.20472,1465.42216 1875.97628,1465.44315 C1874.29653,1465.59743 1872.6358,1465.79317 1870.92491,1465.72233 C1868.82951,1465.63554 1866.71964,1465.91085 1864.61549,1466.01863 C1863.98285,1466.05103 1863.34819,1466.0517 1862.71437,1466.05875 C1860.37319,1466.08494 1858.03184,1466.12792 1855.69049,1466.12641 C1853.03333,1466.12473 1850.37583,1466.10089 1847.71917,1466.05019 C1846.10777,1466.01947 1844.49805,1465.89692 1842.88665,1465.85898 C1841.67911,1465.83044 1840.46971,1465.88886 1839.2615,1465.8756 C1838.26456,1465.86469 1837.26829,1465.8009 1836.27135,1465.76883 C1835.10387,1465.73123 1833.93556,1465.71545 1832.76859,1465.66727 C1831.15264,1465.60045 1829.5372,1465.44298 1827.92192,1465.45003 C1825.76306,1465.45927 1823.60353,1465.5657 1821.44702,1465.68388 C1820.93811,1465.71175 1820.44099,1465.95282 1819.90565,1466.10509 C1820.05632,1466.2174 1820.20766,1466.42657 1820.36035,1466.42758 C1821.01404,1466.43178 1821.36369,1466.65002 1821.21504,1467.36416 C1821.20292,1467.42225 1821.29484,1467.56394 1821.33002,1467.56108 C1822.5384,1467.46388 1822.08202,1468.77517 1822.698,1469.18059 C1822.73739,1469.20645 1822.66298,1469.40437 1822.62662,1469.60431 C1823.56396,1468.86095 1823.8552,1468.98938 1824.2365,1470.08411 C1824.33566,1470.36883 1824.63127,1470.67419 1824.9114,1470.78936 C1825.52839,1471.04302 1825.62704,1471.89449 1826.39638,1471.97121 C1826.56287,1471.98783 1826.72078,1472.34255 1826.83256,1472.56633 C1826.91488,1472.73085 1826.91555,1472.936 1826.95309,1473.12553 C1827.5817,1472.97159 1828.2778,1472.41021 1828.35794,1473.57326 C1829.25135,1473.91724 1829.16835,1475.33932 1830.36613,1475.3781 C1830.50872,1475.3828 1830.77285,1475.69153 1830.75703,1475.83473 C1830.67656,1476.56533 1831.15735,1476.57909 1831.6602,1476.69426 C1831.91154,1476.75184 1832.11221,1477.03538 1832.33223,1477.22072 C1832.78996,1477.60633 1832.87229,1478.40442 1833.75408,1478.35758 C1834.01821,1478.34365 1834.30777,1478.81068 1834.52258,1479.1372 C1834.96246,1479.20083 1835.60588,1478.92551 1835.57861,1479.87687 C1835.57574,1479.97827 1836.09038,1480.04307 1836.29407,1480.21061 C1837.14186,1480.90797 1837.96221,1481.63874 1838.7935,1482.35607 C1839.4354,1482.9099 1840.05339,1483.49529 1840.72947,1484.00379 C1841.21531,1484.36925 1841.4813,1484.72767 1841.16195,1485.32363 C1840.85219,1485.90197 1840.62695,1486.5436 1840.23016,1487.05327 C1839.4354,1488.0743 1838.59249,1489.06746 1837.6804,1489.9839 C1837.27637,1490.38999 1836.63817,1490.55518 1836.1397,1490.88069 C1835.83348,1491.08047 1835.59073,1491.37694 1835.31952,1491.6301 C1835.20808,1491.64269 1835.09647,1491.65545 1834.98502,1491.66804" id="Fill-1-Copy-3"></path>
        </g>
    </g>
</svg>