<?xml version="1.0" encoding="UTF-8"?>
<svg width="73px" height="59px" viewBox="0 0 73 59" version="1.1" xmlns="http://www.w3.org/2000/svg" xmlns:xlink="http://www.w3.org/1999/xlink">
    <!-- Generator: Sketch 45.2 (43514) - http://www.bohemiancoding.com/sketch -->
    <title>Fill 1</title>
    <desc>Created with Sketch.</desc>
    <defs></defs>
    <g id="KIT" stroke="none" stroke-width="1" fill="none" fill-rule="evenodd">
        <g id="main" transform="translate(-1693.000000, -1433.000000)" fill="#FF4936">
            <path d="M1722.98502,1491.66804 C1722.76769,1491.57839 1722.54513,1491.49949 1722.3342,1491.39692 C1721.83893,1491.15618 1721.312,1490.95708 1720.86572,1490.64483 C1720.13982,1490.13717 1719.44977,1489.57377 1718.77807,1488.99544 C1717.77877,1488.13524 1716.81685,1487.23223 1715.82293,1486.36581 C1715.2881,1485.89962 1714.6728,1485.5172 1714.18123,1485.01222 C1713.78326,1484.60311 1713.52502,1484.06976 1712.91527,1483.8856 C1712.67942,1483.81425 1712.43785,1483.67878 1712.26176,1483.50805 C1711.40168,1482.6737 1710.59985,1481.77589 1709.70375,1480.98334 C1709.07616,1480.42818 1708.15228,1480.13725 1707.67704,1479.49545 C1706.88598,1478.42759 1705.35825,1478.27415 1704.79985,1476.95228 C1704.64244,1476.5796 1704.10509,1476.36505 1703.73826,1476.08285 C1703.62968,1475.99925 1703.48692,1475.95207 1703.39602,1475.85471 C1702.56085,1474.96043 1701.7533,1474.03945 1700.8971,1473.16599 C1700.2956,1472.55223 1699.58787,1472.0397 1699.00809,1471.40832 C1698.52612,1470.88337 1698.21468,1470.20246 1697.73136,1469.67919 C1697.15293,1469.05267 1696.44352,1468.54803 1695.84539,1467.93763 C1695.44153,1467.52549 1695.1646,1466.99148 1694.77,1466.5686 C1694.44459,1466.21975 1693.99746,1465.98539 1693.66178,1465.6441 C1693.15422,1465.12804 1692.70996,1464.62542 1693.23806,1463.7815 C1693.50185,1463.35997 1693.34899,1462.70105 1693.50943,1462.18835 C1693.76161,1461.38221 1694.00554,1460.53628 1694.4562,1459.8374 C1695.33985,1458.46753 1696.35211,1457.17891 1697.33407,1455.87383 C1697.76166,1455.30574 1698.29532,1454.81352 1698.69312,1454.22763 C1699.2724,1453.37431 1699.72878,1452.43722 1700.31732,1451.59096 C1701.10921,1450.45208 1701.97956,1449.36759 1702.81102,1448.25608 C1703.15074,1447.80197 1703.46032,1447.3247 1703.81267,1446.88083 C1704.67089,1445.79971 1705.54528,1444.73151 1706.41512,1443.65961 C1706.51966,1443.53085 1706.64525,1443.41871 1706.74626,1443.2876 C1707.15752,1442.75392 1707.55819,1442.21235 1707.97366,1441.68219 C1708.0814,1441.5447 1708.23443,1441.44347 1708.35598,1441.31572 C1709.01421,1440.62339 1709.65526,1439.91411 1710.32865,1439.23706 C1711.1266,1438.43478 1711.97271,1437.67933 1712.75922,1436.86647 C1713.57536,1436.02273 1714.27197,1435.0487 1715.15949,1434.29359 C1715.83893,1433.71543 1716.69732,1433.26719 1717.5515,1433.01152 C1717.88601,1432.91146 1718.42976,1433.48846 1718.87083,1433.76881 C1719.09759,1433.91302 1719.28664,1434.13579 1719.52906,1434.23232 C1720.94552,1434.79538 1721.80845,1435.83504 1722.61197,1437.12064 C1723.12424,1437.94055 1723.3771,1438.61072 1723.22676,1439.50684 C1724.01647,1439.76772 1724.44407,1440.54432 1723.95822,1441.52103 C1723.72843,1441.98286 1722.80826,1442.10306 1722.15171,1442.28101 C1721.96973,1442.77624 1721.77091,1443.28256 1721.00275,1442.85162 C1720.81707,1443.23337 1721.18238,1443.9445 1720.34789,1443.83655 C1720.33526,1443.83488 1720.33089,1444.09089 1720.25884,1444.16442 C1720.05918,1444.36789 1719.76272,1444.73386 1719.61677,1444.68702 C1719.06644,1444.51075 1718.99776,1444.8779 1718.86948,1445.20257 C1718.62959,1445.81045 1718.83733,1446.77675 1717.65436,1446.62549 C1717.55016,1446.61223 1717.3234,1447.0707 1717.25808,1447.33561 C1717.11515,1447.9168 1717.28518,1448.7023 1716.24195,1448.55188 C1716.12074,1448.53425 1715.84684,1448.77969 1715.83556,1448.91852 C1715.7396,1450.1076 1714.87818,1450.48565 1713.92905,1450.79455 C1713.86457,1450.81553 1713.81508,1450.90468 1713.77417,1450.97166 C1713.24153,1451.84092 1712.71646,1452.71472 1712.17674,1453.57946 C1712.09375,1453.71242 1711.95941,1453.82238 1711.82894,1453.91538 C1711.03671,1454.48062 1711.03486,1454.47793 1711.91749,1455.18956 C1712.00553,1455.04418 1712.08483,1454.78632 1712.17674,1454.78162 C1712.97504,1454.74217 1713.77888,1454.69987 1714.57432,1454.7551 C1715.26992,1454.80345 1715.95391,1454.99718 1716.64816,1455.08733 C1717.13569,1455.15079 1717.63181,1455.14844 1717.91126,1455.16371 C1718.56276,1455.05308 1719.04187,1454.87412 1719.50111,1454.91492 C1720.3654,1454.99181 1721.3179,1454.63977 1722.07932,1455.45615 C1722.2172,1455.60389 1722.8421,1455.23405 1723.24697,1455.21626 C1723.74931,1455.19443 1724.42471,1455.51541 1724.72807,1455.29012 C1725.42653,1454.77155 1725.69488,1455.36432 1726.15581,1455.55738 C1726.48307,1455.69454 1726.88491,1455.66197 1727.25476,1455.6895 C1727.60475,1455.71536 1727.95626,1455.72073 1728.3017,1455.62369 C1728.91364,1455.62084 1729.52558,1455.61782 1730.24946,1455.61429 C1730.28868,1455.56208 1730.45669,1455.33814 1730.6247,1455.11419 C1730.64086,1455.19729 1730.65686,1455.28039 1730.67285,1455.36349 C1731.46794,1455.42862 1732.26203,1455.51357 1733.05847,1455.55285 C1733.71771,1455.58542 1734.38234,1455.60321 1735.03939,1455.55654 C1735.74105,1455.50668 1736.4375,1455.37708 1737.13428,1455.27065 C1737.19859,1455.26091 1737.26778,1455.10898 1737.30481,1455.12023 C1738.93541,1455.61799 1740.69411,1454.81604 1742.3008,1455.61026 C1742.47942,1455.6984 1742.84775,1455.70025 1742.95583,1455.58357 C1743.39774,1455.10613 1743.73662,1455.31732 1744.17836,1455.58374 C1744.4201,1455.72946 1744.80292,1455.70914 1745.10964,1455.66885 C1746.0783,1455.5416 1747.05774,1455.64955 1748.01579,1455.17613 C1748.44541,1454.96377 1749.18461,1455.37423 1749.84402,1455.51525 C1750.59114,1454.62818 1751.11705,1454.61744 1752.09547,1455.6524 C1752.72205,1454.4729 1753.64526,1455.35089 1754.46527,1455.28828 C1754.67419,1455.27233 1754.87401,1455.12074 1755.07468,1455.02454 C1755.1671,1454.98022 1755.26946,1454.85599 1755.33696,1454.87513 C1756.28677,1455.14407 1757.44498,1454.09266 1758.15742,1455.42678 C1758.94965,1454.44788 1759.15453,1454.43781 1759.99508,1455.26578 C1760.76829,1456.02744 1761.66675,1456.70616 1762.26993,1457.58517 C1763.06401,1458.74234 1764.10792,1459.7956 1764.28351,1461.31606 C1764.33536,1461.7643 1764.57222,1462.21034 1764.79999,1462.6151 C1765.15099,1463.23876 1765.60165,1463.81793 1764.96649,1464.52503 C1764.92002,1464.57674 1765.02372,1464.76274 1765.06581,1464.91669 C1764.90723,1464.88009 1764.78131,1464.85088 1764.59242,1464.8074 C1764.63384,1465.01674 1764.6707,1465.20325 1764.72087,1465.45675 C1764.43788,1465.4502 1764.20472,1465.42216 1763.97628,1465.44315 C1762.29653,1465.59743 1760.6358,1465.79317 1758.92491,1465.72233 C1756.82951,1465.63554 1754.71964,1465.91085 1752.61549,1466.01863 C1751.98285,1466.05103 1751.34819,1466.0517 1750.71437,1466.05875 C1748.37319,1466.08494 1746.03184,1466.12792 1743.69049,1466.12641 C1741.03333,1466.12473 1738.37583,1466.10089 1735.71917,1466.05019 C1734.10777,1466.01947 1732.49805,1465.89692 1730.88665,1465.85898 C1729.67911,1465.83044 1728.46971,1465.88886 1727.2615,1465.8756 C1726.26456,1465.86469 1725.26829,1465.8009 1724.27135,1465.76883 C1723.10387,1465.73123 1721.93556,1465.71545 1720.76859,1465.66727 C1719.15264,1465.60045 1717.5372,1465.44298 1715.92192,1465.45003 C1713.76306,1465.45927 1711.60353,1465.5657 1709.44702,1465.68388 C1708.93811,1465.71175 1708.44099,1465.95282 1707.90565,1466.10509 C1708.05632,1466.2174 1708.20766,1466.42657 1708.36035,1466.42758 C1709.01404,1466.43178 1709.36369,1466.65002 1709.21504,1467.36416 C1709.20292,1467.42225 1709.29484,1467.56394 1709.33002,1467.56108 C1710.5384,1467.46388 1710.08202,1468.77517 1710.698,1469.18059 C1710.73739,1469.20645 1710.66298,1469.40437 1710.62662,1469.60431 C1711.56396,1468.86095 1711.8552,1468.98938 1712.2365,1470.08411 C1712.33566,1470.36883 1712.63127,1470.67419 1712.9114,1470.78936 C1713.52839,1471.04302 1713.62704,1471.89449 1714.39638,1471.97121 C1714.56287,1471.98783 1714.72078,1472.34255 1714.83256,1472.56633 C1714.91488,1472.73085 1714.91555,1472.936 1714.95309,1473.12553 C1715.5817,1472.97159 1716.2778,1472.41021 1716.35794,1473.57326 C1717.25135,1473.91724 1717.16835,1475.33932 1718.36613,1475.3781 C1718.50872,1475.3828 1718.77285,1475.69153 1718.75703,1475.83473 C1718.67656,1476.56533 1719.15735,1476.57909 1719.6602,1476.69426 C1719.91154,1476.75184 1720.11221,1477.03538 1720.33223,1477.22072 C1720.78996,1477.60633 1720.87229,1478.40442 1721.75408,1478.35758 C1722.01821,1478.34365 1722.30777,1478.81068 1722.52258,1479.1372 C1722.96246,1479.20083 1723.60588,1478.92551 1723.57861,1479.87687 C1723.57574,1479.97827 1724.09038,1480.04307 1724.29407,1480.21061 C1725.14186,1480.90797 1725.96221,1481.63874 1726.7935,1482.35607 C1727.4354,1482.9099 1728.05339,1483.49529 1728.72947,1484.00379 C1729.21531,1484.36925 1729.4813,1484.72767 1729.16195,1485.32363 C1728.85219,1485.90197 1728.62695,1486.5436 1728.23016,1487.05327 C1727.4354,1488.0743 1726.59249,1489.06746 1725.6804,1489.9839 C1725.27637,1490.38999 1724.63817,1490.55518 1724.1397,1490.88069 C1723.83348,1491.08047 1723.59073,1491.37694 1723.31952,1491.6301 C1723.20808,1491.64269 1723.09647,1491.65545 1722.98502,1491.66804" id="Fill-1"></path>
        </g>
    </g>
</svg>