<?xml version="1.0" encoding="UTF-8"?>
<svg width="73px" height="59px" viewBox="0 0 73 59" version="1.1" xmlns="http://www.w3.org/2000/svg" xmlns:xlink="http://www.w3.org/1999/xlink">
    <!-- Generator: Sketch 45.2 (43514) - http://www.bohemiancoding.com/sketch -->
    <title>Page 1 Copy 4</title>
    <desc>Created with Sketch.</desc>
    <defs>
        <polygon id="path-1" points="72.2856539 6.59681806e-05 72.2856539 58.668103 36.1428364 58.668103 1.88101619e-05 58.668103 1.88101619e-05 6.59681806e-05 72.2856539 6.59681806e-05"></polygon>
    </defs>
    <g id="Page-1" stroke="none" stroke-width="1" fill="none" fill-rule="evenodd">
        <g id="main" transform="translate(-44.000000, -1540.000000)">
            <g id="Page-1-Copy-4" transform="translate(44.000000, 1540.000000)">
                <mask id="mask-2" fill="white">
                    <use xlink:href="#path-1"></use>
                </mask>
                <g id="Clip-2"></g>
                <path d="M29.9850392,58.668103 C29.7677053,58.5784567 29.5451527,58.4995546 29.3342159,58.3969818 C28.8389438,58.1562463 28.3120228,57.9571444 27.8657392,57.6448933 C27.1398339,57.1372336 26.4497862,56.5738388 25.7780882,55.995503 C24.77879,55.1353018 23.8168645,54.232292 22.8229534,53.3658794 C22.2881201,52.8996853 21.6728177,52.5172618 21.1812492,52.0122881 C20.7832808,51.6031721 20.525039,51.0698273 19.915292,50.8856663 C19.6794401,50.8143186 19.4378645,50.678842 19.2617752,50.5081112 C18.4016987,49.6737631 17.5998696,48.7759575 16.7037672,47.9834107 C16.0761756,47.4282419 15.1522962,47.1373112 14.6770572,46.4955179 C13.8860022,45.427653 12.3582679,45.2742136 11.7998663,43.952351 C11.6424634,43.5796643 11.1051049,43.3651176 10.7382804,43.0829166 C10.6296976,42.9993139 10.4869407,42.9521405 10.3960342,42.8547719 C9.56087277,41.9604917 8.75331999,41.0395191 7.89711539,40.1660557 C7.29561735,39.5522978 6.58789338,39.0397697 6.0081119,38.4083847 C5.52613908,37.8834337 5.21470013,37.202525 4.73138054,36.6792528 C4.15294582,36.0527362 3.44353839,35.5480983 2.84540726,34.937698 C2.4415467,34.5255602 2.16461855,33.9915438 1.77001698,33.568662 C1.44460537,33.2198138 0.997480039,32.9854577 0.661799353,32.644164 C0.154238036,32.1281104 -0.290025419,31.625487 0.238074035,30.7815699 C0.501871244,30.3600311 0.349013639,29.7011143 0.509446786,29.1884183 C0.761628163,28.3822735 1.00556062,27.5363419 1.4562212,26.8374704 C2.33986609,25.467595 3.35212685,24.178972 4.33408545,22.8738971 C4.76168271,22.3058017 5.29533756,21.8135867 5.69313769,21.2276964 C6.27241414,20.3743782 6.72879846,19.4372894 7.31733391,18.591022 C8.10923057,17.4521452 8.97957618,16.3676606 9.811034,15.2561477 C10.150755,14.8020407 10.4603421,14.3247667 10.812689,13.8809003 C11.6709138,12.7997731 12.5452996,11.7315725 13.4151402,10.6596786 C13.5196827,10.530917 13.6452684,10.4187753 13.7462756,10.2876634 C14.1575433,9.75398279 14.5582053,9.21241195 14.9736817,8.68225675 C15.0814228,8.54476558 15.2344487,8.44353582 15.3559941,8.31578151 C16.0142245,7.62345724 16.6552837,6.9141774 17.3286652,6.23712992 C18.1266223,5.43484628 18.9727262,4.6794003 19.7592358,3.86654042 C20.5753742,3.0227912 21.2719874,2.04876951 22.1595042,1.29365928 C22.8389462,0.715491285 23.6973393,0.267260001 24.5515237,0.0115835051 C24.886026,-0.0884711185 25.4297816,0.488521736 25.8708465,0.768876134 C26.0976077,0.913082379 26.2866595,1.13585501 26.5290769,1.23238421 C27.9455349,1.79544329 28.8084733,2.83510484 29.6119858,4.12070603 C30.1242608,4.94061673 30.3771156,5.61078126 30.2267831,6.50690807 C31.0164913,6.76778875 31.4440886,7.54438722 30.9582438,8.52109494 C30.7284524,8.98292425 29.8082765,9.1031241 29.1517295,9.2810736 C28.9697482,9.77631041 28.7709323,10.2826271 28.0027723,9.85168713 C27.8170874,10.2334392 28.1823969,10.9445657 27.3479088,10.8366208 C27.3352829,10.8349421 27.3309059,11.0909543 27.2588541,11.1644844 C27.0591965,11.3679512 26.7627403,11.7339228 26.6167848,11.6870851 C26.0664638,11.5108144 25.9977789,11.8779611 25.8694997,12.202635 C25.6296075,12.8105172 25.8373457,13.7768166 24.6543828,13.6255595 C24.550177,13.6122972 24.3234157,14.070769 24.2580977,14.3356787 C24.1151725,14.9168685 24.2852013,15.7023645 23.241965,15.5519468 C23.1207564,15.5343197 22.8468584,15.7797557 22.8355793,15.9185899 C22.7396224,17.1076619 21.8781991,17.4857206 20.9290679,17.7946141 C20.8645916,17.8155987 20.815098,17.9047413 20.7741901,17.9717242 C20.2415453,18.8409907 19.7164761,19.7147899 19.1767608,20.5795237 C19.0937665,20.7124822 18.9594269,20.8224416 18.8289593,20.9154454 C18.0367259,21.4806869 18.0348741,21.4780008 18.9175089,22.1896309 C19.0055536,22.0442496 19.0848442,21.7863907 19.1767608,21.7816901 C19.9750546,21.742239 20.7789038,21.6999341 21.5743357,21.7551656 C22.2699388,21.8035141 22.9539261,21.997244 23.6481824,22.0873939 C24.1357106,22.1508514 24.6318245,22.1485011 24.9112778,22.1637779 C25.5627744,22.053147 26.0418854,21.8741903 26.5011316,21.9149844 C27.3654167,21.991872 28.3179149,21.6398341 29.079341,22.4562194 C29.2172159,22.6039511 29.8421139,22.2341183 30.2469846,22.2163234 C30.7493272,22.1944994 31.4247289,22.51548 31.7280872,22.2901892 C32.4265522,21.7716175 32.6948947,22.3643908 33.1558244,22.5574492 C33.4830878,22.6946046 33.8849282,22.6620365 34.254783,22.6895683 C34.6047731,22.7154213 34.9562782,22.7207934 35.3017229,22.6237606 C35.9136584,22.6209067 36.5255938,22.6178849 37.249479,22.6143595 C37.2887034,22.5621497 37.4567121,22.338202 37.6247208,22.1142542 C37.640882,22.1973533 37.6568748,22.2804523 37.6728676,22.3635514 C38.4679628,22.4286876 39.262048,22.5136333 40.05849,22.5529165 C40.7177305,22.5854846 41.382358,22.6032796 42.03941,22.5566098 C42.7410736,22.5067504 43.4375184,22.3771494 44.1342999,22.2707155 C44.1986079,22.2609786 44.2677978,22.10905 44.3048338,22.1202978 C45.9354271,22.6180527 47.6941313,21.8161049 49.3008196,22.6103304 C49.479434,22.6984658 49.8477737,22.7003124 49.9558515,22.583638 C50.3977581,22.1061961 50.7366373,22.3173852 51.1783756,22.5838059 C51.4201196,22.729523 51.802937,22.7092099 52.1096622,22.6689194 C53.0783216,22.5416688 54.057755,22.6496136 55.0158085,22.1762008 C55.4454259,21.9638365 56.1846305,22.3742955 56.8440393,22.5153121 C57.5911561,21.6282506 58.1170671,21.6175065 59.0954904,22.6524675 C59.7220719,21.4729645 60.645278,22.3509606 61.4652883,22.2883425 C61.6742049,22.2723942 61.8740309,22.1208014 62.0746986,22.024608 C62.1671202,21.9802885 62.2694742,21.8560596 62.3369807,21.8751975 C63.2867853,22.1441363 64.4450015,21.0927234 65.1574392,22.426841 C65.9496725,21.4479509 66.1545489,21.4378782 66.9950973,22.265847 C67.7683077,23.0275045 68.666767,23.7062307 69.2699484,24.5852341 C70.0640336,25.7424095 71.1079433,26.795669 71.2835275,28.31613 C71.3353779,28.7643613 71.5722398,29.2104102 71.8000111,29.6151613 C72.1510113,30.238824 72.6016718,30.8179992 71.9665047,31.5250967 C71.9200414,31.5768027 72.0237422,31.7628103 72.0658285,31.9167534 C71.9072472,31.8801563 71.7813248,31.8509457 71.5924413,31.8074656 C71.6338543,32.016808 71.6707219,32.2033193 71.7208888,32.4568134 C71.4379002,32.4502662 71.2047419,32.4222307 70.9762972,32.4432153 C69.296547,32.5974942 67.6358199,32.7932386 65.9249258,32.7223946 C63.8295308,32.6356022 61.7196582,32.9109203 59.6155093,33.0186973 C58.9828674,33.0510975 58.3482053,33.051769 57.7143849,33.0588199 C55.3732058,33.0850087 53.0318582,33.1279852 50.6905107,33.1264743 C48.0333472,33.1247955 45.3758471,33.100957 42.7191887,33.0502582 C41.1077867,33.0195367 39.4980682,32.8969866 37.8866662,32.8590464 C36.6791248,32.8305073 35.4697316,32.8889285 34.2615168,32.8756662 C33.2645755,32.8647542 32.2683075,32.800961 31.2713662,32.7688965 C30.103891,32.7312921 28.9355741,32.7155116 27.7686039,32.667331 C26.1526566,32.600516 24.5372144,32.4430475 22.9219405,32.4500983 C20.7630793,32.4593315 18.6035448,32.5657655 16.4470405,32.6839508 C15.9381324,32.7118184 15.4410085,32.9528896 14.9056702,33.1051539 C15.0563393,33.2174635 15.2076818,33.4266381 15.3603711,33.4276454 C16.0140562,33.4318423 16.3637095,33.6500823 16.2150606,34.3642305 C16.2029397,34.4223159 16.2948563,34.564004 16.3300405,34.5611501 C17.5384236,34.4639494 17.0820393,35.7752358 17.698015,36.1806584 C17.7374078,36.2065115 17.6629992,36.4044383 17.6266366,36.6043797 C18.5639836,35.8610208 18.8552211,35.9894467 19.2365234,37.0841718 C19.3356789,37.368891 19.6312933,37.6742591 19.91142,37.7894226 C20.5284059,38.0430846 20.6270563,38.8945562 21.3963946,38.9712759 C21.5628882,38.9878957 21.7207962,39.3426196 21.8325775,39.5663995 C21.9148984,39.7309188 21.9155718,39.9360644 21.9531128,40.1255974 C22.5817144,39.9716543 23.2778226,39.410274 23.357955,40.573325 C24.2513639,40.9173047 24.1683696,42.3393898 25.366147,42.3781694 C25.5087355,42.38287 25.7728694,42.6915955 25.757045,42.8347945 C25.6765759,43.5653947 26.1573703,43.5791606 26.6602179,43.6943242 C26.9115576,43.751906 27.1122253,44.03545 27.3322527,44.2207861 C27.7899838,44.6063993 27.8723047,45.404486 28.7540978,45.3576484 C29.0182317,45.3437146 29.3077857,45.8107481 29.5225944,46.1372686 C29.9624809,46.200894 30.6058969,45.9255759 30.578625,46.8769342 C30.5757631,46.9783318 31.0903949,47.0431323 31.2940928,47.2106734 C32.1418802,47.908034 32.9622272,48.6388021 33.7935167,49.35614 C34.4354176,49.9099659 35.0534135,50.4953526 35.7294885,51.0038516 C36.2153333,51.3693196 36.481319,51.7277368 36.1619678,52.3236997 C35.8522123,52.9020356 35.6269662,53.543661 35.2301761,54.0533353 C34.4354176,55.0743625 33.5925123,56.0675221 32.680417,56.9839621 C32.2763881,57.3900562 31.6381908,57.5552471 31.1397201,57.8807604 C30.8334999,58.0805339 30.5907458,58.3770044 30.3195414,58.6301628 C30.2080968,58.6427536 30.0964838,58.6555122 29.9850392,58.668103" id="Fill-1" fill="#FEFEFE" mask="url(#mask-2)"></path>
            </g>
        </g>
    </g>
</svg>