<?xml version="1.0" encoding="UTF-8"?>
<svg width="40px" height="55px" viewBox="0 0 40 55" version="1.1" xmlns="http://www.w3.org/2000/svg" xmlns:xlink="http://www.w3.org/1999/xlink">
    <!-- Generator: Sketch 45.2 (43514) - http://www.bohemiancoding.com/sketch -->
    <title>Fill 1</title>
    <desc>Created with Sketch.</desc>
    <defs></defs>
    <g id="Symbols" stroke="none" stroke-width="1" fill="none" fill-rule="evenodd">
        <g id="main-/-header-/-1" transform="translate(-419.000000, -58.000000)" fill="#E6E6E4">
            <path d="M426.147644,63.7952968 C423.294023,63.4366508 422.890091,63.0154143 422.92997,60.6210168 C422.962279,58.6771911 423.57994,58.0170826 425.539582,58.013703 C434.498971,57.998427 443.45863,57.9795011 452.417342,58.0579085 C453.225343,58.0649381 454.571381,58.613519 454.718327,59.1638573 C455.021141,60.2984653 454.79768,61.629362 454.53826,62.8246682 C454.459042,63.1893974 453.543839,63.3558102 453.031623,63.6483506 C452.580105,63.9061485 451.760613,64.2768259 451.79441,64.4866331 C451.899448,65.1407935 452.173468,66.0830332 452.662568,66.31082 C457.125567,68.3894252 459.024917,71.8922048 458.985578,76.7200681 C458.918932,84.8937612 458.870941,93.0698876 458.99842,101.242229 C459.104541,108.048255 453.84733,112.392967 448.19308,112.191812 C442.023911,111.972271 435.836086,111.990251 429.66543,112.187756 C424.048626,112.367417 418.925654,107.947812 419.000817,101.454334 C419.097474,93.1115246 419.040967,84.7666873 419.015687,76.4227962 C419.001628,71.7889234 420.974518,68.3872622 425.206351,66.4585772 C426.59727,65.8245594 426.274042,64.8982715 426.147644,63.7952968" id="Fill-1"></path>
        </g>
    </g>
</svg>